Gelasio GFAfrica.glyphspackage
{
glyphname = numbersign;
kernLeft = numbersign;
kernRight = numbersign;
layers = (
{
layerId = "DD6F9F34-BC40-4E8F-B1D3-DF3B42A9710F";
shapes = (
{
closed = 1;
nodes = (
(378,0,l),
(454,400,l),
(745,400,l),
(670,0,l),
(815,0,l),
(891,400,l),
(1148,400,l),
(1148,526,l),
(915,526,l),
(986,900,l),
(1218,900,l),
(1218,1026,l),
(1010,1026,l),
(1084,1419,l),
(937,1419,l),
(863,1026,l),
(573,1026,l),
(647,1419,l),
(500,1419,l),
(426,1026,l),
(148,1026,l),
(148,900,l),
(402,900,l),
(332,526,l),
(99,526,l),
(99,400,l),
(308,400,l),
(233,0,l,{
name = hr00;
})
);
},
{
closed = 1;
nodes = (
(549,900,l),
(839,900,l),
(769,526,l),
(478,526,l)
);
}
);
width = 1317;
},
{
layerId = "62CA62AF-CD91-478A-AB8B-28A62CC47DA0";
shapes = (
{
closed = 1;
nodes = (
(430,0,l),
(506,400,l),
(817,400,l),
(742,0,l),
(887,0,l),
(963,400,l),
(1220,400,l),
(1220,526,l),
(987,526,l),
(1058,900,l),
(1290,900,l),
(1290,1026,l),
(1082,1026,l),
(1156,1419,l),
(1009,1419,l),
(935,1026,l),
(625,1026,l),
(699,1419,l),
(552,1419,l),
(478,1026,l),
(200,1026,l),
(200,900,l),
(454,900,l),
(384,526,l),
(151,526,l),
(151,400,l),
(360,400,l),
(285,0,l,{
name = hr00;
})
);
},
{
closed = 1;
nodes = (
(601,900,l),
(911,900,l),
(841,526,l),
(530,526,l)
);
}
);
width = 1440;
}
);
unicode = 35;
}
{
glyphname = ampersand;
kernLeft = ampersand;
kernRight = ampersand;
layers = (
{
layerId = "DD6F9F34-BC40-4E8F-B1D3-DF3B42A9710F";
shapes = (
{
closed = 1;
nodes = (
(709,-29,o),
(830,40,o),
(923,148,c),
(1053,0,l),
(1347,0,ls),
(1369,0,o),
(1381,21,o),
(1381,41,cs),
(1381,71,o),
(1373,75,o),
(1345,78,cs),
(1282,85,o),
(1200,122,o),
(1160,162,c),
(1024,315,l),
(1106,486,o),
(1169,644,o),
(1222,741,c),
(1254,791,o),
(1306,818,o),
(1374,818,cs),
(1396,818,o),
(1407,831,o),
(1407,855,cs),
(1407,875,o),
(1396,896,o),
(1373,896,cs),
(980,896,ls),
(957,896,o),
(946,875,o),
(946,855,cs),
(946,834,o),
(951,821,o),
(977,818,cs),
(1016,814,o),
(1097,804,o),
(1097,760,cs),
(1097,731,o),
(1006,475,o),
(963,383,c),
(600,793,l),
(857,942,o),
(921,1013,o),
(921,1198,cs),
(921,1346,o),
(802,1448,o),
(590,1448,cs),
(333,1448,o),
(224,1287,o),
(224,1109,cs),
(224,989,o),
(302,866,o),
(389,758,c),
(184,680,o),
(72,552,o),
(72,365,cs),
(72,141,o),
(254,-29,o),
(537,-29,cs)
);
},
{
closed = 1;
nodes = (
(453,957,o),
(411,1047,o),
(411,1188,cs),
(411,1293,o),
(494,1379,o),
(583,1379,cs),
(704,1379,o),
(752,1259,o),
(752,1192,cs),
(752,998,o),
(706,954,o),
(550,850,c)
);
},
{
closed = 1;
nodes = (
(364,67,o),
(286,217,o),
(286,365,cs),
(286,482,o),
(304,618,o),
(440,705,c),
(860,219,l),
(755,103,o),
(650,67,o),
(545,67,cs)
);
}
);
width = 1455;
},
{
layerId = "62CA62AF-CD91-478A-AB8B-28A62CC47DA0";
shapes = (
{
closed = 1;
nodes = (
(719,-30,o),
(877,42,o),
(981,129,c),
(1105,0,l,{
name = hr03;
}),
(1572,0,ls),
(1595,0,o),
(1606,21,o),
(1606,41,cs),
(1606,71,o),
(1598,76,o),
(1570,78,cs),
(1478,85,o),
(1386,162,o),
(1336,212,c),
(1204,347,l),
(1321,449,o),
(1369,612,o),
(1401,711,c),
(1424,779,o),
(1482,818,o),
(1539,818,cs),
(1561,818,o),
(1572,831,o),
(1573,855,c),
(1572,875,o),
(1561,896,o),
(1538,896,cs),
(1085,896,ls),
(1062,896,o),
(1050,875,o),
(1052,855,c),
(1052,834,o),
(1056,821,o),
(1082,818,cs),
(1137,812,o),
(1237,795,o),
(1235,718,cs),
(1233,703,o),
(1236,574,o),
(1142,412,c),
(763,811,l),
(905,896,o),
(1078,1010,o),
(1078,1178,cs),
(1078,1357,o),
(950,1458,o),
(679,1458,cs),
(453,1458,o),
(231,1350,o),
(231,1124,cs),
(231,983,o),
(307,866,o),
(404,758,c),
(202,696,o),
(39,555,o),
(39,361,cs),
(39,109,o),
(259,-30,o),
(565,-30,cs,{
name = hr02;
})
);
},
{
closed = 1;
nodes = (
(596,999,o),
(536,1067,o),
(536,1208,cs),
(536,1316,o),
(590,1369,o),
(702,1369,cs,{
name = hr06;
}),
(812,1369,o),
(863,1234,o),
(860,1167,cs),
(859,1094,o),
(837,969,o),
(688,892,c)
);
},
{
closed = 1;
nodes = (
(498,140,o),
(384,245,o),
(384,425,cs),
(384,542,o),
(428,613,o),
(491,663,c),
(919,201,l),
(856,160,o),
(756,140,o),
(667,140,cs)
);
}
);
width = 1637;
}
);
unicode = 38;
}
{
glyphname = quotesingle;
kernLeft = quotesingle;
kernRight = quotesingle;
layers = (
{
layerId = "DD6F9F34-BC40-4E8F-B1D3-DF3B42A9710F";
shapes = (
{
closed = 1;
nodes = (
(194,967,l),
(250,1154,o),
(356,1475,o),
(367,1542,cs),
(379,1620,o),
(351,1681,o),
(278,1681,cs),
(204,1681,o),
(157,1620,o),
(145,1542,cs),
(134,1475,o),
(140,1154,o),
(136,967,c)
);
}
);
width = 441;
},
{
layerId = "62CA62AF-CD91-478A-AB8B-28A62CC47DA0";
shapes = (
{
closed = 1;
nodes = (
(265,928,l),
(351,1304,o),
(427,1415,o),
(443,1512,cs),
(455,1590,o),
(441,1671,o),
(335,1671,cs),
(229,1671,o),
(189,1590,o),
(177,1512,cs),
(161,1415,o),
(203,1304,o),
(169,928,c,{
name = hr00;
})
);
}
);
width = 551;
}
);
unicode = 39;
}
{
glyphname = parenright;
kernLeft = parenright;
kernRight = parenright;
layers = (
{
layerId = "DD6F9F34-BC40-4E8F-B1D3-DF3B42A9710F";
shapes = (
{
closed = 1;
nodes = (
(308,-340,o),
(673,-115,o),
(673,596,cs),
(673,1307,o),
(308,1532,o),
(90,1532,c),
(90,1449,l),
(195,1449,o),
(468,1356,o),
(468,596,cs),
(468,-164,o),
(195,-257,o),
(90,-257,c),
(90,-340,l)
);
}
);
width = 768;
},
{
layerId = "62CA62AF-CD91-478A-AB8B-28A62CC47DA0";
shapes = (
{
closed = 1;
nodes = (
(362,-340,o),
(808,-115,o),
(808,596,cs,{
name = hr00;
}),
(808,1307,o),
(362,1532,o),
(95,1532,c),
(95,1429,l),
(200,1429,o),
(473,1356,o),
(473,596,cs),
(473,-164,o),
(200,-237,o),
(95,-237,c),
(95,-340,l)
);
}
);
width = 915;
}
);
unicode = 41;
userData = {
com.typemytype.robofont.mark = (
0.967,
0.6,
1,
1
);
};
}
{
glyphname = asterisk;
kernLeft = asterisk;
kernRight = asterisk;
layers = (
{
background = {
shapes = (
{
closed = 1;
nodes = (
(317,620,o),
(351,640,o),
(374,673,cs),
(394,702,o),
(451,870,o),
(484,934,c),
(518,867,o),
(574,698,o),
(592,673,cs),
(614,642,o),
(649,621,o),
(682,621,cs),
(734,621,o),
(775,666,o),
(775,714,cs),
(775,738,o),
(766,765,o),
(748,788,cs),
(693,860,o),
(610,916,o),
(548,980,c),
(602,993,o),
(767,990,o),
(811,1003,cs),
(860,1017,o),
(893,1051,o),
(893,1096,cs),
(893,1161,o),
(845,1194,o),
(796,1194,cs),
(784,1194,o),
(766,1191,o),
(753,1187,cs),
(729,1179,o),
(601,1097,o),
(523,1055,c),
(526,1080,o),
(524,1064,o),
(528,1086,cs),
(536,1138,o),
(581,1308,o),
(581,1336,cs),
(581,1400,o),
(547,1449,o),
(484,1449,cs),
(419,1449,o),
(386,1400,o),
(386,1336,cs),
(386,1308,o),
(432,1138,o),
(443,1056,c),
(360,1097,o),
(242,1178,o),
(213,1187,cs),
(197,1192,o),
(184,1194,o),
(170,1194,cs),
(121,1194,o),
(72,1161,o),
(72,1098,cs),
(72,1052,o),
(107,1018,o),
(154,1003,cs),
(195,990,o),
(369,994,o),
(419,980,c),
(351,912,o),
(234,811,o),
(216,786,cs),
(201,765,o),
(192,738,o),
(192,714,cs),
(192,662,o),
(236,620,o),
(285,620,cs)
);
}
);
};
layerId = "DD6F9F34-BC40-4E8F-B1D3-DF3B42A9710F";
shapes = (
{
closed = 1;
nodes = (
(321,722,o),
(356,742,o),
(380,776,cs),
(400,804,o),
(460,994,o),
(484,1049,c),
(508,996,o),
(569,802,o),
(588,776,cs),
(611,744,o),
(646,722,o),
(681,722,cs),
(735,722,o),
(777,768,o),
(777,819,cs),
(777,916,o),
(602,1021,o),
(537,1087,c),
(590,1094,o),
(765,1087,o),
(809,1100,cs),
(858,1115,o),
(893,1150,o),
(893,1195,cs),
(893,1263,o),
(843,1298,o),
(794,1298,cs),
(757,1298,o),
(749,1293,o),
(636,1223,cs,{
name = hr02;
}),
(584,1188,o),
(544,1162,o),
(517,1148,c),
(541,1277,o),
(589,1366,o),
(589,1434,cs),
(589,1499,o),
(549,1549,o),
(485,1549,cs),
(418,1549,o),
(381,1499,o),
(381,1434,cs),
(381,1378,o),
(431,1277,o),
(451,1148,c),
(393,1177,o),
(254,1276,o),
(218,1290,cs),
(203,1296,o),
(189,1298,o),
(174,1298,cs),
(125,1298,o),
(74,1263,o),
(74,1198,cs),
(74,1150,o),
(110,1116,o),
(157,1100,cs),
(195,1087,o),
(376,1094,o),
(432,1087,c),
(410,1065,o),
(363,1026,o),
(325,992,cs),
(276,949,o),
(227,905,o),
(217,892,cs),
(200,870,o),
(191,843,o),
(191,819,cs),
(191,763,o),
(237,722,o),
(287,722,cs,{
name = hr01;
})
);
}
);
width = 967;
},
{
layerId = "62CA62AF-CD91-478A-AB8B-28A62CC47DA0";
shapes = (
{
closed = 1;
nodes = (
(311,615,o),
(350,638,o),
(377,676,cs),
(399,708,o),
(467,928,o),
(494,990,c),
(521,931,o),
(590,706,o),
(611,676,cs),
(637,640,o),
(677,615,o),
(717,615,cs),
(777,615,o),
(824,667,o),
(824,724,cs),
(824,834,o),
(628,948,o),
(548,1029,c),
(610,1038,o),
(811,1028,o),
(861,1042,cs),
(917,1058,o),
(956,1098,o),
(956,1149,cs),
(956,1225,o),
(899,1265,o),
(844,1265,cs),
(802,1265,o),
(793,1261,o),
(666,1180,cs,{
name = hr02;
}),
(611,1146,o),
(555,1105,o),
(528,1091,c),
(556,1236,o),
(612,1342,o),
(612,1418,cs),
(612,1492,o),
(568,1549,o),
(495,1549,cs),
(420,1549,o),
(378,1492,o),
(378,1418,cs),
(378,1355,o),
(437,1236,o),
(460,1091,c),
(406,1118,o),
(235,1241,o),
(194,1256,cs),
(177,1263,o),
(161,1265,o),
(144,1265,cs),
(89,1265,o),
(31,1225,o),
(31,1152,cs),
(31,1099,o),
(71,1059,o),
(125,1042,cs),
(167,1028,o),
(381,1037,o),
(441,1029,c),
(419,1006,o),
(358,958,o),
(314,920,cs),
(260,871,o),
(204,822,o),
(192,807,cs),
(175,783,o),
(164,752,o),
(164,724,cs),
(164,662,o),
(215,615,o),
(272,615,cs,{
name = hr01;
})
);
}
);
width = 987;
}
);
unicode = 42;
}
{
glyphname = comma;
kernLeft = period;
kernRight = period;
layers = (
{
background = {
shapes = (
{
closed = 1;
nodes = (
(293,-379,o),
(303,-377,o),
(310,-372,cs),
(412,-299,o),
(537,-117,o),
(537,80,cs),
(537,256,o),
(458,340,o),
(333,340,cs),
(229,340,o),
(157,271,o),
(157,159,cs,{
name = hr00;
}),
(157,59,o),
(243,-16,o),
(331,-16,c),
(336,-36,o),
(339,-49,o),
(339,-73,cs),
(339,-170,o),
(286,-264,o),
(244,-310,cs),
(234,-321,o),
(229,-330,o),
(229,-342,cs),
(229,-365,o),
(257,-379,o),
(283,-379,cs)
);
},
{
closed = 1;
nodes = (
(193,-360,o),
(203,-357,o),
(210,-352,cs),
(270,-309,o),
(412,-135,o),
(412,52,cs),
(412,192,o),
(343,257,o),
(270,257,cs),
(187,257,o),
(121,218,o),
(121,120,cs),
(121,-1,o),
(228,5,o),
(231,-7,cs),
(234,-18,o),
(236,-38,o),
(236,-63,cs),
(236,-126,o),
(224,-219,o),
(162,-281,cs),
(145,-298,o),
(139,-313,o),
(139,-325,cs),
(139,-347,o),
(162,-360,o),
(183,-360,cs)
);
}
);
};
layerId = "DD6F9F34-BC40-4E8F-B1D3-DF3B42A9710F";
shapes = (
{
closed = 1;
nodes = (
(193,-360,o),
(203,-357,o),
(210,-352,cs),
(270,-309,o),
(412,-135,o),
(412,52,cs),
(412,192,o),
(343,257,o),
(254,257,cs),
(182,257,o),
(121,209,o),
(121,120,cs),
(121,33,o),
(183,3,o),
(233,-7,c),
(238,-18,o),
(241,-38,o),
(241,-63,cs),
(241,-126,o),
(216,-221,o),
(162,-281,cs),
(145,-300,o),
(139,-312,o),
(139,-325,cs),
(139,-347,o),
(162,-360,o),
(183,-360,cs)
);
}
);
width = 552;
},
{
background = {
shapes = (
{
closed = 1;
nodes = (
(293,-379,o),
(303,-377,o),
(310,-372,cs),
(412,-299,o),
(537,-117,o),
(537,95,cs),
(537,261,o),
(460,340,o),
(345,340,cs),
(236,340,o),
(157,287,o),
(157,159,cs,{
name = hr00;
}),
(157,48,o),
(257,-16,o),
(329,-16,c),
(334,-36,o),
(334,-58,o),
(334,-91,cs),
(334,-179,o),
(281,-276,o),
(252,-301,cs),
(235,-316,o),
(229,-330,o),
(229,-342,cs),
(229,-365,o),
(257,-379,o),
(283,-379,cs)
);
}
);
};
layerId = "62CA62AF-CD91-478A-AB8B-28A62CC47DA0";
shapes = (
{
closed = 1;
nodes = (
(293,-379,o),
(303,-377,o),
(310,-372,cs),
(412,-299,o),
(537,-117,o),
(537,80,cs),
(537,256,o),
(458,340,o),
(333,340,cs),
(229,340,o),
(157,271,o),
(157,159,cs,{
name = hr00;
}),
(157,59,o),
(243,-16,o),
(331,-16,c),
(336,-36,o),
(339,-49,o),
(339,-73,cs),
(339,-170,o),
(286,-264,o),
(244,-310,cs),
(234,-321,o),
(229,-330,o),
(229,-342,cs),
(229,-365,o),
(257,-379,o),
(283,-379,cs)
);
}
);
width = 672;
}
);
unicode = 44;
}
{
glyphname = zero;
kernLeft = zero;
kernRight = zero;
layers = (
{
anchors = (
{
name = center;
pos = (629,590);
}
);
layerId = "DD6F9F34-BC40-4E8F-B1D3-DF3B42A9710F";
shapes = (
{
closed = 1;
nodes = (
(933,-29,o),
(1114,206,o),
(1114,582,cs),
(1114,965,o),
(940,1205,o),
(634,1205,cs),
(328,1205,o),
(144,965,o),
(144,582,cs),
(144,206,o),
(321,-29,o),
(627,-29,cs)
);
},
{
closed = 1;
nodes = (
(420,66,o),
(359,234,o),
(359,582,cs),
(359,936,o),
(416,1110,o),
(626,1110,cs),
(835,1110,o),
(897,936,o),
(897,582,cs),
(897,234,o),
(839,66,o),
(630,66,cs)
);
}
);
width = 1257;
},
{
anchors = (
{
name = center;
pos = (719,590);
}
);
layerId = "62CA62AF-CD91-478A-AB8B-28A62CC47DA0";
shapes = (
{
closed = 1;
nodes = (
(1104,-29,o),
(1333,206,o),
(1333,582,cs),
(1333,965,o),
(1112,1205,o),
(723,1205,cs),
(339,1205,o),
(103,965,o),
(103,582,cs,{
name = hr00;
}),
(103,206,o),
(332,-29,o),
(716,-29,cs)
);
},
{
closed = 1;
nodes = (
(509,66,o),
(458,234,o),
(458,582,cs),
(458,936,o),
(505,1110,o),
(715,1110,cs),
(924,1110,o),
(976,936,o),
(976,582,cs),
(976,234,o),
(928,66,o),
(719,66,cs)
);
}
);
width = 1436;
}
);
unicode = 48;
}
{
glyphname = two;
kernLeft = two;
kernRight = two;
layers = (
{
layerId = "DD6F9F34-BC40-4E8F-B1D3-DF3B42A9710F";
shapes = (
{
closed = 1;
nodes = (
(1023,0,l),
(1033,165,l),
(399,165,l),
(633,325,o),
(964,598,o),
(964,851,cs),
(964,1079,o),
(808,1205,o),
(542,1205,cs),
(336,1205,o),
(166,1080,o),
(126,960,cs),
(117,933,o),
(113,911,o),
(113,891,cs),
(113,796,o),
(198,774,o),
(235,774,cs),
(275,774,o),
(295,808,o),
(302,849,cs),
(309,889,o),
(318,950,o),
(329,1002,c),
(356,1045,o),
(368,1109,o),
(517,1109,cs),
(707,1109,o),
(755,951,o),
(755,850,cs),
(755,587,o),
(455,295,o),
(143,85,c),
(132,70,o),
(125,52,o),
(123,34,c),
(123,0,l)
);
}
);
width = 1144;
},
{
layerId = "62CA62AF-CD91-478A-AB8B-28A62CC47DA0";
shapes = (
{
closed = 1;
nodes = (
(1166,0,l),
(1176,249,l),
(505,249,l),
(791,393,o),
(1140,575,o),
(1140,851,cs),
(1140,1079,o),
(975,1205,o),
(628,1205,cs),
(385,1205,o),
(197,1092,o),
(138,972,cs),
(118,931,o),
(109,896,o),
(109,866,cs),
(109,771,o),
(194,730,o),
(268,730,cs),
(338,730,o),
(353,779,o),
(366,822,c),
(389,882,o),
(411,942,o),
(434,1002,c),
(448,1046,o),
(484,1109,o),
(594,1109,cs),
(749,1109,o),
(791,951,o),
(791,850,cs),
(791,515,o),
(424,317,o),
(138,88,cs),
(123,76,o),
(114,51,o),
(114,32,cs),
(114,0,l,{
name = hr00;
})
);
}
);
width = 1283;
}
);
unicode = 50;
}
{
glyphname = nine;
kernLeft = nine;
kernRight = nine;
layers = (
{
layerId = "DD6F9F34-BC40-4E8F-B1D3-DF3B42A9710F";
shapes = (
{
closed = 1;
nodes = (
(833,-261,o),
(1063,261,o),
(1063,654,cs),
(1063,931,o),
(882,1205,o),
(576,1205,cs),
(270,1205,o),
(96,981,o),
(96,704,cs),
(96,447,o),
(220,243,o),
(523,243,cs),
(681,243,o),
(766,314,o),
(823,378,c),
(771,121,o),
(627,-165,o),
(223,-261,c),
(224,-353,l)
);
},
{
closed = 1;
nodes = (
(385,361,o),
(313,500,o),
(313,704,cs),
(313,954,o),
(371,1110,o),
(580,1110,cs),
(790,1110,o),
(851,954,o),
(851,704,cs),
(851,649,o),
(850,581,o),
(842,506,c),
(783,432,o),
(677,361,o),
(549,361,cs)
);
}
);
width = 1159;
},
{
layerId = "62CA62AF-CD91-478A-AB8B-28A62CC47DA0";
shapes = (
{
closed = 1;
nodes = (
(979,-331,o),
(1232,216,o),
(1232,593,cs,{
name = hr00;
}),
(1232,930,o),
(1074,1204,o),
(675,1204,cs),
(316,1204,o),
(95,964,o),
(95,673,cs),
(95,410,o),
(241,212,o),
(552,212,cs),
(689,212,o),
(788,256,o),
(862,308,c),
(824,65,o),
(706,-214,o),
(342,-282,c),
(343,-374,l)
);
},
{
closed = 1;
nodes = (
(521,330,o),
(452,469,o),
(452,703,cs),
(452,941,o),
(502,1109,o),
(679,1109,cs),
(836,1109,o),
(880,877,o),
(880,573,cs),
(880,527,o),
(879,471,o),
(874,409,c),
(823,363,o),
(758,330,o),
(678,330,cs)
);
}
);
width = 1327;
}
);
unicode = 57;
}
{
glyphname = less;
kernLeft = less;
kernRight = less;
layers = (
{
layerId = "DD6F9F34-BC40-4E8F-B1D3-DF3B42A9710F";
shapes = (
{
closed = 1;
nodes = (
(1088,164,l),
(318,554,l),
(1088,945,l),
(1088,1091,l),
(170,614,l),
(170,495,l),
(1088,20,l)
);
}
);
width = 1317;
},
{
layerId = "62CA62AF-CD91-478A-AB8B-28A62CC47DA0";
shapes = (
{
closed = 1;
nodes = (
(1207,163,l),
(407,570,l),
(1207,984,l),
(1207,1160,l),
(209,633,l),
(209,514,l,{
name = hr00;
}),
(1207,-11,l)
);
}
);
width = 1440;
}
);
unicode = 60;
}
{
glyphname = equal;
kernLeft = equal;
kernRight = equal;
layers = (
{
layerId = "DD6F9F34-BC40-4E8F-B1D3-DF3B42A9710F";
shapes = (
{
closed = 1;
nodes = (
(1124,740,l),
(1124,886,l),
(193,886,l),
(193,740,l)
);
},
{
closed = 1;
nodes = (
(1124,222,l),
(1124,368,l),
(193,368,l),
(193,222,l)
);
}
);
width = 1317;
},
{
layerId = "62CA62AF-CD91-478A-AB8B-28A62CC47DA0";
shapes = (
{
closed = 1;
nodes = (
(1200,700,l),
(1200,846,l),
(240,846,l),
(240,700,l,{
name = hr00;
})
);
},
{
closed = 1;
nodes = (
(1200,272,l),
(1200,418,l),
(240,418,l),
(240,272,l)
);
}
);
width = 1440;
}
);
unicode = 61;
}
{
glyphname = greater;
kernLeft = greater;
kernRight = greater;
layers = (
{
layerId = "DD6F9F34-BC40-4E8F-B1D3-DF3B42A9710F";
shapes = (
{
closed = 1;
nodes = (
(1128,495,l),
(1128,614,l),
(210,1091,l),
(210,945,l),
(980,554,l),
(210,164,l),
(210,20,l)
);
}
);
width = 1317;
},
{
layerId = "62CA62AF-CD91-478A-AB8B-28A62CC47DA0";
shapes = (
{
closed = 1;
nodes = (
(1231,514,l,{
name = hr00;
}),
(1231,633,l),
(233,1160,l),
(233,984,l),
(1033,570,l),
(233,163,l),
(233,-11,l)
);
}
);
width = 1440;
}
);
unicode = 62;
}
{
glyphname = A;
kernLeft = A;
kernRight = A;
layers = (
{
anchors = (
{
name = bottom;
pos = (678,0);
},
{
name = ogonek;
pos = (1182,10);
},
{
name = top;
pos = (712,1419);
}
);
guides = (
{
angle = 109.0197;
pos = (986,132);
},
{
angle = 109.0197;
pos = (1211,132);
}
);
layerId = "DD6F9F34-BC40-4E8F-B1D3-DF3B42A9710F";
shapes = (
{
closed = 1;
nodes = (
(430,0,ls),
(453,0,o),
(464,36,o),
(464,51,cs),
(464,72,o),
(457,85,o),
(431,88,c),
(349,93,o),
(285,86,o),
(285,120,cs),
(285,123,o),
(285,127,o),
(287,132,cs),
(423,537,l),
(364,494,l),
(935,494,l),
(875,537,l),
(1010,132,ls),
(1012,127,o),
(1013,122,o),
(1013,118,cs),
(1013,87,o),
(957,92,o),
(876,88,c),
(850,85,o),
(843,72,o),
(843,51,cs),
(843,36,o),
(854,0,o),
(877,0,cs),
(1378,0,ls),
(1400,0,o),
(1412,36,o),
(1412,51,cs),
(1412,81,o),
(1404,85,o),
(1376,88,cs),
(1327,93,o),
(1256,77,o),
(1225,165,cs),
(780,1441,l),
(620,1441,l),
(162,165,ls),
(130,76,o),
(58,93,o),
(9,88,cs),
(-19,85,o),
(-27,81,o),
(-27,51,cs),
(-27,24,o),
(-15,0,o),
(7,0,cs)
);
},
{
closed = 1;
nodes = (
(659,1187,l),
(875,537,l),
(905,580,l),
(393,580,l),
(424,537,l)
);
}
);
width = 1374;
},
{
anchors = (
{
name = bottom;
pos = (750,0);
},
{
name = ogonek;
pos = (1276,10);
},
{
name = top;
pos = (773,1419);
}
);
background = {
shapes = (
{
closed = 1;
nodes = (
(467,0,ls),
(490,0,o),
(491,36,o),
(491,51,cs),
(491,72,o),
(484,86,o),
(458,88,cs),
(365,96,o),
(283,101,o),
(295,132,cs),
(389,379,l),
(922,379,l),
(1015,160,ls),
(1049,73,o),
(990,92,o),
(873,88,cs),
(847,87,o),
(840,72,o),
(840,51,cs),
(840,36,o),
(851,0,o),
(874,0,cs),
(1545,0,ls),
(1567,0,o),
(1579,36,o),
(1579,51,cs),
(1579,82,o),
(1560,88,o),
(1534,90,cs),
(1491,93,o),
(1427,88,o),
(1392,165,cs,{
name = hr02;
}),
(784,1452,l),
(710,1452,l),
(169,165,ls),
(117,38,o),
(-20,131,o),
(-20,51,cs,{
name = hr03;
}),
(-20,36,o),
(-18,0,o),
(4,0,cs,{
name = hr01;
})
);
},
{
closed = 1;
nodes = (
(654,1040,l),
(872,495,l),
(433,495,l)
);
}
);
};
guides = (
{
angle = 67.1056;
pos = (403,777);
},
{
angle = 67.1056;
pos = (541,743);
},
{
angle = 110.477;
pos = (823,714);
},
{
angle = 110.477;
pos = (1217,714);
},
{
angle = 270;
pos = (774,770);
}
);
layerId = "62CA62AF-CD91-478A-AB8B-28A62CC47DA0";
shapes = (
{
closed = 1;
nodes = (
(446,0,ls),
(469,0,o),
(480,36,o),
(480,51,cs),
(480,72,o),
(473,85,o),
(447,88,c),
(366,92,o),
(300,87,o),
(300,119,cs),
(300,123,o),
(301,127,o),
(303,132,cs),
(443,522,l),
(393,478,l),
(943,477,l),
(893,512,l),
(1031,132,ls),
(1033,126,o),
(1034,121,o),
(1034,116,cs),
(1034,87,o),
(986,92,o),
(907,88,c),
(881,85,o),
(874,72,o),
(874,51,cs),
(874,36,o),
(885,0,o),
(908,0,cs),
(1530,0,ls),
(1552,0,o),
(1564,36,o),
(1564,51,cs),
(1564,81,o),
(1556,85,o),
(1528,88,cs),
(1479,93,o),
(1400,75,o),
(1367,165,cs),
(892,1441,l),
(658,1441,l),
(178,165,ls),
(146,79,o),
(74,93,o),
(25,88,cs),
(-3,85,o),
(-11,81,o),
(-11,51,cs),
(-11,24,o),
(1,0,o),
(23,0,cs)
);
},
{
closed = 1;
nodes = (
(688,1190,l),
(879,554,l),
(910,563,l),
(435,563,l),
(452,555,l)
);
}
);
width = 1553;
}
);
unicode = 65;
}
{
glyphname = J;
kernLeft = J;
kernRight = U;
layers = (
{
anchors = (
{
name = bottom;
pos = (416,0);
},
{
name = top;
pos = (726,1419);
}
);
layerId = "DD6F9F34-BC40-4E8F-B1D3-DF3B42A9710F";
shapes = (
{
closed = 1;
nodes = (
(555,-30,o),
(831,48,o),
(831,439,cs),
(831,1267,ls),
(831,1311,o),
(898,1326,o),
(957,1331,cs),
(983,1333,o),
(990,1347,o),
(990,1368,cs),
(990,1383,o),
(979,1419,o),
(956,1419,cs),
(491,1419,ls),
(468,1419,o),
(457,1383,o),
(457,1368,cs),
(457,1338,o),
(465,1334,o),
(493,1331,c),
(566,1326,o),
(625,1320,o),
(625,1234,cs),
(624,406,ls),
(624,161,o),
(535,59,o),
(395,59,cs),
(327,59,o),
(271,82,o),
(231,113,c),
(275,439,l),
(275,453,o),
(242,471,o),
(201,471,cs),
(108,471,o),
(44,397,o),
(44,278,cs),
(44,213,o),
(65,137,o),
(128,76,c),
(216,1,o),
(314,-30,o),
(404,-30,cs)
);
}
);
width = 1060;
},
{
anchors = (
{
name = bottom;
pos = (477,0);
},
{
name = top;
pos = (809,1419);
}
);
layerId = "62CA62AF-CD91-478A-AB8B-28A62CC47DA0";
shapes = (
{
closed = 1;
nodes = (
(676,-30,o),
(981,48,o),
(981,439,cs),
(981,1267,ls),
(981,1311,o),
(1046,1327,o),
(1147,1331,cs),
(1173,1332,o),
(1180,1347,o),
(1180,1368,cs),
(1180,1383,o),
(1169,1419,o),
(1146,1419,cs),
(441,1419,ls),
(418,1419,o),
(407,1383,o),
(407,1368,cs),
(407,1338,o),
(415,1334,o),
(443,1331,c),
(524,1326,o),
(649,1320,o),
(649,1234,cs),
(648,406,ls),
(648,161,o),
(581,59,o),
(440,59,cs),
(390,59,o),
(347,69,o),
(311,84,c),
(370,462,l),
(370,497,o),
(322,541,o),
(246,541,cs),
(110,541,o),
(39,455,o),
(39,318,cs),
(39,238,o),
(68,153,o),
(137,94,cs,{
name = hr00;
}),
(231,13,o),
(353,-30,o),
(449,-30,cs)
);
}
);
width = 1219;
}
);
unicode = 74;
}
{
glyphname = X;
kernLeft = X;
kernRight = X;
layers = (
{
anchors = (
{
name = bottom;
pos = (687,0);
},
{
name = top;
pos = (687,1419);
}
);
layerId = "DD6F9F34-BC40-4E8F-B1D3-DF3B42A9710F";
shapes = (
{
closed = 1;
nodes = (
(482,0,ls),
(505,0,o),
(516,36,o),
(516,51,cs),
(516,72,o),
(509,85,o),
(483,88,c),
(412,92,o),
(376,110,o),
(376,137,cs),
(376,144,o),
(379,153,o),
(385,162,c),
(651,605,l),
(936,132,ls),
(939,127,o),
(941,123,o),
(941,119,cs),
(941,91,o),
(858,92,o),
(778,88,c),
(752,85,o),
(745,72,o),
(745,51,cs),
(745,36,o),
(756,0,o),
(779,0,cs),
(1336,0,ls),
(1358,0,o),
(1370,36,o),
(1370,51,cs),
(1370,81,o),
(1362,85,o),
(1334,88,cs),
(1285,93,o),
(1207,86,o),
(1156,165,cs),
(770,766,l),
(1113,1254,ls),
(1169,1330,o),
(1265,1326,o),
(1314,1331,cs),
(1342,1334,o),
(1350,1338,o),
(1350,1368,cs),
(1350,1383,o),
(1338,1419,o),
(1316,1419,cs),
(861,1419,ls),
(838,1419,o),
(827,1383,o),
(827,1368,cs),
(827,1347,o),
(834,1334,o),
(860,1331,c),
(935,1327,o),
(985,1307,o),
(985,1278,cs),
(985,1271,o),
(983,1264,o),
(978,1257,cs),
(724,859,l),
(455,1287,ls),
(452,1292,o),
(450,1297,o),
(450,1301,cs),
(450,1328,o),
(524,1327,o),
(593,1331,c),
(619,1334,o),
(626,1347,o),
(626,1368,cs),
(626,1383,o),
(615,1419,o),
(592,1419,cs),
(67,1419,ls),
(45,1419,o),
(33,1383,o),
(33,1368,cs),
(33,1338,o),
(41,1334,o),
(69,1331,cs),
(118,1326,o),
(189,1333,o),
(240,1254,cs),
(599,686,l),
(250,165,ls),
(196,88,o),
(98,93,o),
(49,88,cs),
(21,85,o),
(13,81,o),
(13,51,cs),
(13,36,o),
(25,0,o),
(47,0,cs)
);
}
);
width = 1455;
},
{
anchors = (
{
name = bottom;
pos = (817,0);
},
{
name = top;
pos = (817,1419);
}
);
layerId = "62CA62AF-CD91-478A-AB8B-28A62CC47DA0";
shapes = (
{
closed = 1;
nodes = (
(546,0,ls),
(569,0,o),
(580,36,o),
(580,51,cs),
(580,72,o),
(573,85,o),
(547,88,c),
(469,92,o),
(403,113,o),
(403,145,cs),
(403,150,o),
(405,156,o),
(409,162,cs),
(730,580,l),
(1034,170,l),
(1049,148,o),
(1058,133,o),
(1058,119,cs),
(1058,97,o),
(993,85,o),
(902,88,c),
(876,85,o),
(869,72,o),
(869,51,cs),
(869,36,o),
(880,0,o),
(903,0,cs),
(1608,0,ls),
(1630,0,o),
(1642,36,o),
(1642,51,cs),
(1642,81,o),
(1634,85,o),
(1606,88,cs),
(1557,93,o),
(1476,86,o),
(1425,165,c),
(957,786,l),
(1345,1254,l),
(1402,1330,o),
(1478,1326,o),
(1526,1331,cs),
(1554,1334,o),
(1562,1338,o),
(1562,1368,cs),
(1562,1383,o),
(1550,1419,o),
(1528,1419,cs),
(1073,1419,ls),
(1050,1419,o),
(1039,1383,o),
(1039,1368,cs),
(1039,1347,o),
(1046,1334,o),
(1072,1331,c),
(1144,1327,o),
(1197,1307,o),
(1197,1277,cs),
(1197,1271,o),
(1195,1264,o),
(1190,1257,cs),
(897,871,l),
(603,1277,ls),
(600,1282,o),
(598,1286,o),
(598,1290,cs),
(598,1318,o),
(627,1325,o),
(745,1331,c),
(771,1334,o),
(778,1347,o),
(778,1368,cs),
(778,1383,o),
(767,1419,o),
(744,1419,cs),
(49,1419,ls),
(27,1419,o),
(15,1383,o),
(15,1368,cs),
(15,1338,o),
(23,1334,o),
(51,1331,cs),
(100,1326,o),
(186,1333,o),
(237,1254,c),
(673,657,l),
(252,165,ls),
(196,99,o),
(120,93,o),
(71,88,cs),
(43,85,o),
(35,81,o),
(35,51,cs,{
name = hr00;
}),
(35,36,o),
(47,0,o),
(69,0,cs)
);
}
);
width = 1656;
}
);
unicode = 88;
}
{
glyphname = Y;
kernLeft = Y;
kernRight = Y;
layers = (
{
anchors = (
{
name = bottom;
pos = (620,0);
},
{
name = top;
pos = (644,1419);
},
{
name = topleft;
pos = (10,1419);
}
);
layerId = "DD6F9F34-BC40-4E8F-B1D3-DF3B42A9710F";
shapes = (
{
closed = 1;
nodes = (
(925,0,ls),
(947,0,o),
(959,36,o),
(959,51,cs),
(959,81,o),
(941,85,o),
(913,88,cs),
(846,95,o),
(741,79,o),
(741,165,cs),
(741,567,l),
(1116,1254,ls),
(1161,1336,o),
(1218,1336,o),
(1267,1341,cs),
(1295,1344,o),
(1303,1348,o),
(1303,1378,cs),
(1303,1393,o),
(1291,1419,o),
(1269,1419,cs),
(854,1419,ls),
(831,1419,o),
(820,1393,o),
(820,1378,cs),
(820,1357,o),
(827,1344,o),
(853,1341,c),
(931,1337,o),
(1001,1332,o),
(1005,1303,cs),
(1005,1299,o),
(1004,1293,o),
(1001,1287,cs),
(650,599,l),
(706,599,l),
(365,1287,ls),
(362,1293,o),
(361,1298,o),
(361,1302,cs),
(361,1333,o),
(434,1337,o),
(513,1341,c),
(539,1344,o),
(546,1357,o),
(546,1378,cs),
(546,1393,o),
(535,1419,o),
(512,1419,cs),
(-10,1419,ls),
(-32,1419,o),
(-44,1393,o),
(-44,1378,cs),
(-44,1348,o),
(-36,1344,o),
(-8,1341,cs),
(41,1336,o),
(98,1337,o),
(143,1254,cs),
(534,534,l),
(534,152,ls),
(534,81,o),
(436,93,o),
(369,88,c),
(344,85,o),
(326,72,o),
(326,51,cs),
(326,36,o),
(337,0,o),
(360,0,cs)
);
}
);
width = 1260;
},
{
anchors = (
{
name = bottom;
pos = (755,0);
},
{
name = top;
pos = (829,1419);
},
{
name = topleft;
pos = (25,1419);
}
);
layerId = "62CA62AF-CD91-478A-AB8B-28A62CC47DA0";
shapes = (
{
closed = 1;
nodes = (
(1125,0,ls),
(1147,0,o),
(1159,36,o),
(1159,51,cs),
(1159,81,o),
(1141,85,o),
(1113,88,c),
(1046,93,o),
(941,79,o),
(941,165,cs),
(941,535,l),
(1346,1254,ls),
(1391,1335,o),
(1447,1336,o),
(1497,1341,cs),
(1525,1344,o),
(1533,1348,o),
(1533,1378,cs),
(1533,1393,o),
(1521,1419,o),
(1499,1419,cs),
(1084,1419,ls),
(1061,1419,o),
(1050,1393,o),
(1050,1378,cs),
(1050,1357,o),
(1057,1343,o),
(1083,1341,cs),
(1177,1333,o),
(1234,1324,o),
(1234,1299,cs),
(1234,1295,o),
(1232,1288,o),
(1226,1277,cs),
(862,619,l),
(895,618,l),
(546,1262,ls),
(544,1266,o),
(527,1292,o),
(527,1301,cs),
(527,1334,o),
(576,1334,o),
(706,1341,c),
(732,1344,o),
(739,1357,o),
(739,1378,cs),
(739,1393,o),
(728,1419,o),
(705,1419,cs),
(0,1419,ls),
(-22,1419,o),
(-34,1393,o),
(-34,1378,cs),
(-34,1348,o),
(-26,1344,o),
(2,1341,cs),
(51,1336,o),
(112,1334,o),
(161,1254,cs),
(604,525,l),
(604,152,ls),
(604,81,o),
(506,93,o),
(439,88,c),
(414,85,o),
(396,72,o),
(396,51,cs,{
name = hr00;
}),
(396,36,o),
(407,0,o),
(430,0,cs)
);
}
);
width = 1499;
}
);
unicode = 89;
}
{
glyphname = f;
kernLeft = f;
kernRight = f;
layers = (
{
anchors = (
{
name = bottom;
pos = (288,0);
},
{
name = top;
pos = (327,1421);
}
);
layerId = "DD6F9F34-BC40-4E8F-B1D3-DF3B42A9710F";
shapes = (
{
closed = 1;
nodes = (
(562,0,ls),
(585,0,o),
(596,26,o),
(596,41,cs),
(596,71,o),
(588,75,o),
(560,78,cs),
(495,85,o),
(389,89,o),
(389,175,cs),
(389,907,l),
(599,907,l),
(613,913,o),
(623,935,o),
(623,960,cs),
(623,976,o),
(615,993,o),
(599,994,c),
(389,994,l),
(389,1174,ls),
(389,1488,o),
(497,1475,o),
(522,1475,c),
(631,1312,l),
(633,1310,o),
(637,1309,o),
(642,1309,cs),
(677,1309,o),
(750,1361,o),
(750,1441,cs),
(750,1512,o),
(686,1573,o),
(558,1573,cs),
(361,1573,o),
(205,1397,o),
(203,1142,cs),
(202,994,l),
(80,984,l,{
name = "❌";
}),
(66,978,o),
(56,966,o),
(56,941,cs),
(56,925,o),
(64,908,o),
(80,907,c),
(203,907,l),
(203,142,ls),
(203,98,o),
(145,84,o),
(96,78,cs),
(70,75,o),
(63,62,o),
(63,41,cs),
(63,26,o),
(74,0,o),
(97,0,cs)
);
}
);
width = 666;
},
{
anchors = (
{
name = bottom;
pos = (386,0);
},
{
name = top;
pos = (406,1419);
}
);
layerId = "62CA62AF-CD91-478A-AB8B-28A62CC47DA0";
shapes = (
{
closed = 1;
nodes = (
(712,0,ls),
(735,0,o),
(746,26,o),
(746,41,cs),
(746,71,o),
(738,75,o),
(710,78,c),
(645,82,o),
(539,88,o),
(539,165,cs),
(539,887,l),
(760,887,l),
(774,893,o),
(784,935,o),
(784,960,cs),
(784,976,o),
(776,993,o),
(760,994,c),
(539,994,l),
(539,1107,ls),
(539,1396,o),
(576,1449,o),
(629,1449,c),
(757,1278,l),
(757,1276,o),
(768,1275,o),
(768,1275,c),
(833,1274,o),
(886,1334,o),
(886,1416,cs),
(886,1494,o),
(810,1563,o),
(657,1563,cs),
(363,1563,o),
(223,1331,o),
(223,1076,cs),
(223,994,l),
(79,977,l),
(65,971,o),
(54,956,o),
(54,931,cs),
(54,915,o),
(62,888,o),
(78,887,c),
(223,887,l),
(223,132,ls),
(223,95,o),
(165,82,o),
(116,78,c),
(90,75,o),
(83,62,o),
(83,41,cs,{
name = hr00;
}),
(83,26,o),
(94,0,o),
(117,0,cs)
);
}
);
width = 805;
}
);
unicode = 102;
}
{
glyphname = h;
kernLeft = h;
kernRight = n;
layers = (
{
anchors = (
{
name = bottom;
pos = (576,0);
},
{
name = center;
pos = (576,945);
},
{
name = top;
pos = (275,1489);
}
);
background = {
shapes = (
{
closed = 1;
nodes = (
(488,0,ls),
(510,0,o),
(522,26,o),
(522,41,cs),
(522,71,o),
(514,75,o),
(486,78,cs),
(437,83,o),
(374,89,o),
(374,175,cs),
(374,771,l),
(429,822,o),
(547,896,o),
(672,896,cs),
(790,896,o),
(801,829,o),
(801,795,cs),
(801,142,ls),
(801,104,o),
(737,81,o),
(695,78,cs),
(669,76,o),
(664,62,o),
(664,41,cs),
(664,26,o),
(675,0,o),
(698,0,cs),
(1125,0,ls),
(1148,0,o),
(1159,26,o),
(1159,41,cs),
(1159,70,o),
(1148,75,o),
(1126,78,cs),
(1076,85,o),
(989,79,o),
(989,175,cs),
(989,766,ls),
(989,974,o),
(879,1014,o),
(749,1014,cs),
(561,1014,o),
(399,880,o),
(364,845,c),
(364,957,l),
(361,989,o),
(345,997,o),
(334,997,cs),
(279,997,o),
(168,995,o),
(39,987,cs),
(23,986,o),
(15,959,o),
(15,943,cs),
(15,918,o),
(25,909,o),
(39,903,c),
(89,889,o),
(188,902,o),
(188,778,cs),
(188,142,ls),
(188,98,o),
(121,84,o),
(72,78,cs),
(46,75,o),
(39,62,o),
(39,41,cs),
(39,26,o),
(50,0,o),
(73,0,cs)
);
}
);
};
layerId = "DD6F9F34-BC40-4E8F-B1D3-DF3B42A9710F";
shapes = (
{
closed = 1;
nodes = (
(489,0,ls),
(511,0,o),
(523,26,o),
(523,41,cs),
(523,71,o),
(515,75,o),
(487,78,cs),
(438,83,o),
(375,89,o),
(375,175,cs),
(375,771,l),
(430,822,o),
(548,896,o),
(673,896,cs),
(791,896,o),
(802,829,o),
(802,795,cs),
(802,142,ls),
(802,104,o),
(738,81,o),
(696,78,cs),
(670,76,o),
(665,62,o),
(665,41,cs),
(665,26,o),
(676,0,o),
(699,0,cs),
(1126,0,ls),
(1149,0,o),
(1160,26,o),
(1160,41,cs),
(1160,70,o),
(1149,75,o),
(1127,78,cs),
(1077,85,o),
(990,79,o),
(990,175,cs),
(990,766,ls),
(990,974,o),
(879,1014,o),
(749,1014,cs),
(561,1014,o),
(400,880,o),
(365,845,c),
(375,1104,l),
(375,1518,l),
(372,1550,o),
(356,1558,o),
(345,1558,cs),
(288,1558,o),
(173,1557,o),
(40,1549,cs,{
name = "❌";
}),
(24,1548,o),
(16,1520,o),
(16,1504,cs),
(16,1479,o),
(26,1470,o),
(40,1464,c),
(94,1450,o),
(189,1463,o),
(189,1339,cs),
(189,142,ls),
(189,98,o),
(122,84,o),
(73,78,cs),
(47,75,o),
(40,62,o),
(40,41,cs),
(40,26,o),
(51,0,o),
(74,0,cs)
);
}
);
width = 1192;
},
{
anchors = (
{
name = bottom;
pos = (686,0);
},
{
name = center;
pos = (686,945);
},
{
name = top;
pos = (325,1489);
}
);
background = {
shapes = (
{
closed = 1;
nodes = (
(600,0,ls),
(623,0,o),
(634,26,o),
(634,41,cs),
(634,71,o),
(626,75,o),
(598,78,cs),
(549,83,o),
(501,88,o),
(501,165,cs),
(501,340,l),
(626,461,l),
(692,333,o),
(824,0,o),
(864,0,cs),
(1263,0,ls),
(1286,0,o),
(1297,26,o),
(1297,41,cs),
(1297,70,o),
(1286,75,o),
(1264,78,cs),
(1214,85,o),
(1156,132,o),
(1116,198,cs),
(1035,332,o),
(931,494,o),
(846,666,c),
(1033,837,l),
(1082,876,o),
(1157,906,o),
(1221,906,cs),
(1243,906,o),
(1254,925,o),
(1254,949,cs),
(1254,964,o),
(1243,994,o),
(1220,994,cs),
(763,994,ls),
(740,994,o),
(729,964,o),
(729,949,cs),
(729,928,o),
(733,909,o),
(760,906,c),
(813,903,o),
(884,884,o),
(884,857,cs),
(884,852,o),
(881,847,o),
(875,842,c),
(501,485,l),
(501,1508,ls),
(501,1540,o),
(482,1548,o),
(471,1548,cs),
(389,1548,o),
(230,1546,o),
(41,1534,cs),
(25,1533,o),
(17,1506,o),
(17,1490,cs),
(17,1465,o),
(27,1456,o),
(41,1450,c),
(95,1436,o),
(190,1453,o),
(190,1329,cs),
(190,132,ls),
(190,95,o),
(143,82,o),
(94,78,c),
(68,75,o),
(61,62,o),
(61,41,cs,{
name = hr00;
}),
(61,26,o),
(72,0,o),
(95,0,cs)
);
}
);
};
layerId = "62CA62AF-CD91-478A-AB8B-28A62CC47DA0";
shapes = (
{
closed = 1;
nodes = (
(620,0,ls),
(642,0,o),
(654,26,o),
(654,41,cs),
(654,71,o),
(646,75,o),
(618,78,cs),
(569,83,o),
(501,88,o),
(501,165,cs),
(501,727,l),
(548,778,o),
(678,852,o),
(786,852,cs),
(905,852,o),
(905,764,o),
(905,721,cs),
(905,132,ls),
(905,100,o),
(841,81,o),
(799,78,c),
(772,75,o),
(768,62,o),
(768,41,cs),
(768,26,o),
(779,0,o),
(802,0,cs),
(1349,0,ls),
(1372,0,o),
(1383,26,o),
(1383,41,cs),
(1383,70,o),
(1372,75,o),
(1350,78,cs),
(1300,85,o),
(1213,79,o),
(1213,165,cs),
(1213,736,ls),
(1213,968,o),
(1072,1014,o),
(922,1014,cs),
(729,1014,o),
(537,890,o),
(496,845,c),
(501,992,l,{
name = "❌";
}),
(501,1508,l),
(498,1540,o),
(482,1549,o),
(471,1549,cs,{
name = "❌";
}),
(390,1549,o),
(231,1546,o),
(41,1534,cs),
(25,1533,o),
(17,1506,o),
(17,1490,cs),
(17,1465,o),
(27,1456,o),
(41,1450,c),
(95,1436,o),
(190,1453,o),
(190,1329,cs),
(190,132,ls),
(190,95,o),
(123,82,o),
(74,78,c),
(48,75,o),
(41,62,o),
(41,41,cs,{
name = hr00;
}),
(41,26,o),
(52,0,o),
(75,0,cs)
);
}
);
width = 1392;
}
);
unicode = 104;
userData = {
com.typemytype.robofont.mark = (
0.967,
0.6,
1,
1
);
};
}
{
glyphname = q;
kernLeft = o;
kernRight = q;
layers = (
{
anchors = (
{
name = bottom;
pos = (565,0);
},
{
name = top;
pos = (565,994);
}
);
layerId = "DD6F9F34-BC40-4E8F-B1D3-DF3B42A9710F";
shapes = (
{
closed = 1;
nodes = (
(1117,-444,ls),
(1140,-444,o),
(1151,-418,o),
(1151,-403,cs),
(1151,-373,o),
(1143,-369,o),
(1115,-366,cs),
(1062,-360,o),
(993,-355,o),
(993,-269,cs),
(993,963,ls),
(993,985,o),
(985,996,o),
(959,996,cs),
(944,996,o),
(929,986,o),
(915,978,cs),
(883,960,o),
(858,940,o),
(833,918,c),
(775,990,o),
(665,1014,o),
(547,1014,cs),
(231,1014,o),
(92,760,o),
(92,491,cs),
(92,221,o),
(210,-30,o),
(525,-30,cs),
(624,-30,o),
(748,24,o),
(817,106,c),
(807,-29,l),
(807,-302,ls),
(807,-346,o),
(725,-361,o),
(651,-366,c),
(625,-369,o),
(618,-382,o),
(618,-403,cs),
(618,-418,o),
(629,-444,o),
(652,-444,cs)
);
},
{
closed = 1;
nodes = (
(365,65,o),
(306,251,o),
(306,491,cs),
(306,731,o),
(361,918,o),
(584,918,cs),
(693,918,o),
(769,885,o),
(807,817,c),
(807,172,l),
(762,114,o),
(664,65,o),
(588,65,cs)
);
}
);
width = 1146;
},
{
anchors = (
{
name = bottom;
pos = (648,0);
},
{
name = top;
pos = (648,994);
}
);
background = {
shapes = (
{
closed = 1;
nodes = (
(1282,0,ls),
(1305,0,o),
(1316,26,o),
(1316,41,cs),
(1316,71,o),
(1308,75,o),
(1280,78,cs),
(1231,83,o),
(1183,88,o),
(1183,165,cs),
(1183,340,l),
(1308,461,l),
(1374,333,o),
(1506,0,o),
(1546,0,cs),
(1945,0,ls),
(1968,0,o),
(1979,26,o),
(1979,41,cs),
(1979,70,o),
(1968,75,o),
(1946,78,cs),
(1896,85,o),
(1838,132,o),
(1798,198,cs),
(1717,332,o),
(1613,494,o),
(1528,666,c),
(1715,837,l),
(1764,876,o),
(1839,906,o),
(1903,906,cs),
(1925,906,o),
(1936,925,o),
(1936,949,cs),
(1936,964,o),
(1925,994,o),
(1902,994,cs),
(1445,994,ls),
(1422,994,o),
(1411,964,o),
(1411,949,cs),
(1411,928,o),
(1415,909,o),
(1442,906,c),
(1495,903,o),
(1566,884,o),
(1566,857,cs),
(1566,852,o),
(1563,847,o),
(1557,842,c),
(1183,485,l),
(1183,1508,ls),
(1183,1540,o),
(1164,1548,o),
(1153,1548,cs),
(1071,1548,o),
(912,1546,o),
(723,1534,cs),
(707,1533,o),
(699,1506,o),
(699,1490,cs),
(699,1465,o),
(709,1456,o),
(723,1450,c),
(777,1436,o),
(872,1453,o),
(872,1329,cs),
(872,132,ls),
(872,95,o),
(825,82,o),
(776,78,c),
(750,75,o),
(743,62,o),
(743,41,cs,{
name = hr00;
}),
(743,26,o),
(754,0,o),
(777,0,cs)
);
}
);
};
layerId = "62CA62AF-CD91-478A-AB8B-28A62CC47DA0";
shapes = (
{
closed = 1;
nodes = (
(1307,-444,ls),
(1330,-444,o),
(1341,-418,o),
(1341,-403,cs),
(1341,-373,o),
(1333,-369,o),
(1305,-366,cs),
(1252,-360,o),
(1183,-355,o),
(1183,-269,cs),
(1183,998,ls),
(1183,1018,o),
(1163,1028,o),
(1145,1028,cs),
(1121,1028,o),
(1106,1020,o),
(1092,1008,cs),
(1068,987,o),
(1010,928,o),
(945,914,c),
(887,962,o),
(796,1014,o),
(611,1014,cs),
(267,1014,o),
(101,761,o),
(101,492,cs,{
name = hr00;
}),
(101,222,o),
(230,-29,o),
(559,-29,cs),
(674,-29,o),
(809,15,o),
(876,108,c),
(871,0,l),
(871,-302,ls),
(871,-346,o),
(755,-361,o),
(681,-366,c),
(655,-369,o),
(648,-382,o),
(648,-403,cs),
(648,-418,o),
(659,-444,o),
(682,-444,cs)
);
},
{
closed = 1;
nodes = (
(502,116,o),
(438,273,o),
(438,492,cs),
(438,740,o),
(502,909,o),
(708,909,cs),
(771,909,o),
(854,850,o),
(871,801,c),
(871,209,l),
(836,147,o),
(753,116,o),
(692,116,cs)
);
}
);
width = 1328;
}
);
unicode = 113;
userData = {
com.typemytype.robofont.mark = (
0.967,
0.6,
1,
1
);
};
}
{
glyphname = t;
kernLeft = t;
kernRight = t;
layers = (
{
anchors = (
{
name = bottom;
pos = (364,0);
},
{
name = center;
pos = (337,497);
},
{
name = top;
pos = (304,1177);
},
{
name = topright;
pos = (585,994);
}
);
background = {
shapes = (
{
closed = 1;
nodes = (
(522,-30,o),
(654,41,o),
(689,78,c),
(683,102,o),
(671,122,o),
(655,138,c),
(602,113,o),
(558,89,o),
(466,89,cs),
(415,89,o),
(355,126,o),
(355,296,cs),
(355,907,l),
(650,907,l),
(664,913,o),
(674,935,o),
(674,960,cs),
(674,976,o),
(666,993,o),
(650,994,c),
(355,994,l),
(355,1267,ls),
(355,1275,o),
(356,1291,o),
(339,1291,cs),
(316,1291,o),
(289,1295,o),
(283,1268,cs),
(237,1063,o),
(181,998,o),
(67,985,c),
(54,984,l),
(40,978,o),
(30,966,o),
(30,941,cs),
(30,925,o),
(38,908,o),
(54,907,c),
(169,907,l),
(169,223,ls),
(169,20,o),
(273,-30,o),
(424,-30,cs)
);
}
);
};
layerId = "DD6F9F34-BC40-4E8F-B1D3-DF3B42A9710F";
shapes = (
{
closed = 1;
nodes = (
(532,-30,o),
(647,41,o),
(689,78,cs),
(702,90,o),
(672,154,o),
(653,141,cs),
(604,108,o),
(558,89,o),
(466,89,cs),
(415,89,o),
(355,126,o),
(355,296,cs),
(355,907,l),
(646,907,ls),
(660,907,o),
(674,932,o),
(674,960,cs),
(674,976,o),
(666,993,o),
(650,994,c),
(355,994,l),
(355,1267,ls),
(355,1286,o),
(352,1291,o),
(326,1291,cs),
(302,1291,o),
(287,1288,o),
(283,1268,cs),
(237,1063,o),
(185,998,o),
(58,984,c,{
name = "❌";
}),
(41,984,o),
(30,966,o),
(30,941,cs),
(30,925,o),
(38,908,o),
(54,907,c),
(169,907,l),
(169,223,ls),
(169,47,o),
(244,-30,o),
(424,-30,cs)
);
}
);
width = 707;
},
{
anchors = (
{
name = bottom;
pos = (416,0);
},
{
name = center;
pos = (349,497);
},
{
name = top;
pos = (406,1224);
},
{
name = topright;
pos = (661,994);
}
);
background = {
shapes = (
{
closed = 1;
nodes = (
(583,-30,o),
(735,28,o),
(786,84,c),
(799,93,o),
(764,156,o),
(752,150,cs),
(704,126,o),
(637,105,o),
(591,105,cs),
(521,105,o),
(498,142,o),
(498,312,cs),
(498,887,l),
(719,887,l),
(733,893,o),
(743,935,o),
(743,960,cs),
(743,976,o),
(735,993,o),
(719,994,c),
(498,994,l),
(498,1277,ls),
(498,1299,o),
(456,1307,o),
(414,1307,cs),
(384,1307,o),
(352,1299,o),
(345,1268,cs),
(314,1129,o),
(242,1022,o),
(196,1012,c),
(71,975,l),
(57,969,o),
(46,954,o),
(46,929,cs),
(46,913,o),
(55,886,o),
(70,885,c),
(177,885,l),
(177,223,ls,{
name = hr00;
}),
(177,20,o),
(323,-30,o),
(492,-30,cs)
);
}
);
};
layerId = "62CA62AF-CD91-478A-AB8B-28A62CC47DA0";
shapes = (
{
closed = 1;
nodes = (
(583,-30,o),
(735,28,o),
(786,84,cs),
(799,93,o),
(782,166,o),
(752,150,cs),
(702,123,o),
(637,105,o),
(591,105,cs),
(521,105,o),
(498,142,o),
(498,312,cs),
(498,887,l),
(713,887,ls),
(727,887,o),
(743,916,o),
(743,960,cs),
(743,976,o),
(735,993,o),
(719,994,c),
(498,994,l),
(498,1273,ls),
(498,1293,o),
(479,1307,o),
(422,1307,cs),
(369,1307,o),
(350,1290,o),
(345,1268,cs),
(300,1066,o),
(241,1006,o),
(71,975,c),
(56,970,o),
(46,954,o),
(46,929,cs),
(46,913,o),
(55,886,o),
(70,885,c),
(177,885,l),
(177,223,ls,{
name = hr00;
}),
(177,20,o),
(323,-30,o),
(492,-30,cs)
);
}
);
width = 814;
}
);
unicode = 116;
userData = {
com.typemytype.robofont.mark = (
0.967,
0.6,
1,
1
);
};
}
{
glyphname = w;
kernLeft = w;
kernRight = w;
layers = (
{
anchors = (
{
name = bottom;
pos = (762,0);
},
{
name = top;
pos = (789,994);
}
);
layerId = "DD6F9F34-BC40-4E8F-B1D3-DF3B42A9710F";
shapes = (
{
closed = 1;
nodes = (
(488,-9,l),
(731,711,l),
(996,-9,l),
(1070,-9,l),
(1367,829,l),
(1407,895,o),
(1430,911,o),
(1479,916,cs),
(1507,919,o),
(1515,923,o),
(1515,953,cs),
(1515,968,o),
(1503,994,o),
(1481,994,cs),
(1156,994,ls),
(1133,994,o),
(1122,968,o),
(1122,953,cs),
(1122,932,o),
(1129,919,o),
(1155,916,cs),
(1204,910,o),
(1281,906,o),
(1281,862,c),
(1080,278,l),
(825,976,l),
(729,976,l),
(499,275,l),
(284,862,l),
(284,906,o),
(341,910,o),
(390,916,cs),
(416,919,o),
(423,932,o),
(423,953,cs),
(423,968,o),
(412,994,o),
(389,994,cs),
(-16,994,ls),
(-38,994,o),
(-50,968,o),
(-50,953,cs),
(-50,923,o),
(-42,919,o),
(-14,916,cs),
(35,911,o),
(68,895,o),
(108,829,c),
(414,-9,l)
);
}
);
width = 1510;
},
{
anchors = (
{
name = bottom;
pos = (891,0);
},
{
name = top;
pos = (956,994);
}
);
layerId = "62CA62AF-CD91-478A-AB8B-28A62CC47DA0";
shapes = (
{
closed = 1;
nodes = (
(660,-9,l),
(875,661,l),
(1135,-9,l),
(1329,-9,l),
(1643,829,ls),
(1670,901,o),
(1715,911,o),
(1764,916,cs),
(1792,919,o),
(1800,923,o),
(1800,953,cs),
(1800,968,o),
(1788,994,o),
(1766,994,cs),
(1392,994,ls),
(1369,994,o),
(1358,968,o),
(1358,953,cs),
(1358,932,o),
(1365,917,o),
(1391,916,cs),
(1469,913,o),
(1529,905,o),
(1529,873,c),
(1333,322,l),
(1077,986,l),
(851,986,l),
(652,306,l),
(451,876,l),
(451,905,o),
(495,913,o),
(560,916,cs),
(586,917,o),
(593,932,o),
(593,953,cs),
(593,968,o),
(582,994,o),
(559,994,cs),
(-6,994,ls),
(-28,994,o),
(-40,968,o),
(-40,953,cs),
(-40,923,o),
(-32,919,o),
(-4,916,cs),
(45,911,o),
(90,901,o),
(118,829,cs),
(446,-9,l,{
name = hr00;
})
);
}
);
width = 1768;
}
);
unicode = 119;
}
{
glyphname = x;
kernLeft = x;
kernRight = x;
layers = (
{
anchors = (
{
name = bottom;
pos = (517,0);
},
{
name = top;
pos = (517,994);
}
);
layerId = "DD6F9F34-BC40-4E8F-B1D3-DF3B42A9710F";
shapes = (
{
closed = 1;
nodes = (
(367,0,ls),
(390,0,o),
(401,26,o),
(401,41,cs),
(401,62,o),
(396,75,o),
(370,78,cs),
(336,82,o),
(286,90,o),
(286,122,cs),
(286,129,o),
(289,137,o),
(294,146,c),
(484,408,l),
(658,132,l),
(667,122,o),
(671,113,o),
(671,107,cs),
(671,86,o),
(633,81,o),
(602,78,cs),
(575,75,o),
(571,62,o),
(571,41,cs),
(571,26,o),
(582,0,o),
(605,0,cs),
(976,0,ls),
(999,0,o),
(1010,26,o),
(1010,41,cs),
(1010,70,o),
(999,75,o),
(977,78,cs),
(927,85,o),
(906,105,o),
(856,165,c),
(605,534,l),
(811,829,l),
(849,871,o),
(890,916,o),
(958,916,cs),
(980,916,o),
(991,929,o),
(991,953,cs),
(991,968,o),
(980,994,o),
(957,994,cs),
(634,994,ls),
(611,994,o),
(600,968,o),
(600,953,cs),
(600,932,o),
(605,919,o),
(631,916,cs),
(665,912,o),
(717,902,o),
(717,873,cs),
(717,866,o),
(713,857,o),
(707,848,cs),
(544,592,l),
(393,862,ls),
(385,876,o),
(380,885,o),
(380,892,cs),
(380,914,o),
(417,912,o),
(449,916,cs),
(476,919,o),
(480,932,o),
(480,953,cs),
(480,968,o),
(469,994,o),
(446,994,cs),
(59,994,ls),
(36,994,o),
(25,968,o),
(25,953,cs),
(25,924,o),
(36,919,o),
(58,916,cs),
(108,909,o),
(145,889,o),
(195,829,c),
(428,479,l),
(190,165,l),
(155,128,o),
(116,78,o),
(48,78,cs),
(26,78,o),
(15,65,o),
(15,41,cs),
(15,26,o),
(26,0,o),
(49,0,cs)
);
}
);
width = 1034;
},
{
anchors = (
{
name = bottom;
pos = (593,0);
},
{
name = top;
pos = (593,994);
}
);
layerId = "62CA62AF-CD91-478A-AB8B-28A62CC47DA0";
shapes = (
{
closed = 1;
nodes = (
(427,0,ls),
(450,0,o),
(461,26,o),
(461,41,cs),
(461,62,o),
(456,75,o),
(430,78,cs),
(395,81,o),
(324,95,o),
(324,125,cs),
(324,132,o),
(327,138,o),
(334,146,c),
(505,386,l),
(694,132,ls),
(702,121,o),
(705,112,o),
(705,106,cs),
(705,84,o),
(671,81,o),
(640,78,cs),
(613,75,o),
(609,62,o),
(609,41,cs),
(609,26,o),
(620,0,o),
(643,0,cs),
(1164,0,ls),
(1187,0,o),
(1198,26,o),
(1198,41,cs),
(1198,70,o),
(1183,75,o),
(1161,78,cs),
(1111,85,o),
(1103,116,o),
(1064,165,cs),
(783,513,l),
(1005,827,ls),
(1038,873,o),
(1084,914,o),
(1152,914,cs),
(1174,914,o),
(1185,927,o),
(1185,951,cs),
(1185,966,o),
(1174,994,o),
(1151,994,cs),
(808,994,ls),
(785,994,o),
(774,966,o),
(774,951,cs),
(774,930,o),
(779,916,o),
(805,914,cs),
(855,910,o),
(896,899,o),
(896,874,cs),
(896,866,o),
(891,857,o),
(881,846,c),
(704,604,l),
(535,857,l),
(525,871,o),
(524,884,o),
(524,891,cs),
(524,912,o),
(557,910,o),
(589,914,cs),
(616,917,o),
(620,930,o),
(620,951,cs),
(620,966,o),
(609,994,o),
(586,994,cs),
(45,994,ls),
(22,994,o),
(11,966,o),
(11,951,cs),
(11,922,o),
(22,917,o),
(44,914,cs),
(94,907,o),
(111,888,o),
(160,827,cs),
(441,476,l),
(210,168,l),
(175,131,o),
(125,78,o),
(57,78,cs),
(35,78,o),
(24,65,o),
(24,41,cs,{
name = hr00;
}),
(24,26,o),
(35,0,o),
(58,0,cs)
);
}
);
width = 1204;
}
);
unicode = 120;
}
{
glyphname = plusminus;
kernLeft = plusminus;
kernRight = plusminus;
layers = (
{
layerId = "DD6F9F34-BC40-4E8F-B1D3-DF3B42A9710F";
shapes = (
{
closed = 1;
nodes = (
(1102,0,l),
(1102,126,l),
(733,126,l),
(733,496,l),
(1122,496,l),
(1122,622,l),
(733,622,l),
(733,1032,l),
(587,1032,l),
(587,622,l),
(195,622,l),
(195,496,l),
(587,496,l),
(587,126,l),
(215,126,l),
(215,0,l)
);
}
);
width = 1317;
},
{
layerId = "62CA62AF-CD91-478A-AB8B-28A62CC47DA0";
shapes = (
{
closed = 1;
nodes = (
(1175,0,l),
(1175,146,l),
(803,146,l),
(803,501,l),
(1205,501,l),
(1205,647,l),
(803,647,l),
(803,1062,l),
(637,1062,l),
(637,647,l),
(235,647,l),
(235,501,l),
(637,501,l),
(637,146,l),
(265,146,l),
(265,0,l,{
name = hr00;
})
);
}
);
width = 1440;
}
);
unicode = 177;
}
{
glyphname = paragraph;
kernLeft = paragraph;
kernRight = paragraph;
layers = (
{
layerId = "DD6F9F34-BC40-4E8F-B1D3-DF3B42A9710F";
shapes = (
{
closed = 1;
nodes = (
(504,-287,l),
(504,1302,l),
(684,1302,l),
(684,-287,l),
(966,-287,ls),
(989,-287,o),
(1000,-251,o),
(1000,-236,cs),
(1000,-215,o),
(993,-202,o),
(967,-199,c),
(903,-194,o),
(821,-179,o),
(821,-135,cs),
(821,1234,ls),
(821,1320,o),
(882,1327,o),
(943,1331,cs),
(971,1333,o),
(979,1338,o),
(979,1368,cs),
(979,1383,o),
(968,1419,o),
(945,1419,cs),
(482,1421,ls),
(257,1422,o),
(40,1311,o),
(40,1000,cs),
(40,786,o),
(165,630,o),
(362,576,c),
(362,-102,ls),
(362,-188,o),
(274,-194,o),
(210,-199,cs),
(182,-201,o),
(174,-206,o),
(174,-236,cs),
(174,-251,o),
(185,-287,o),
(208,-287,cs)
);
}
);
width = 1024;
},
{
layerId = "62CA62AF-CD91-478A-AB8B-28A62CC47DA0";
shapes = (
{
closed = 1;
nodes = (
(559,-287,l),
(559,1302,l),
(739,1302,l),
(739,-287,l),
(1061,-287,ls),
(1084,-287,o),
(1095,-251,o),
(1095,-236,cs),
(1095,-215,o),
(1088,-202,o),
(1062,-199,c),
(1002,-194,o),
(926,-179,o),
(926,-135,cs),
(926,1234,ls),
(926,1320,o),
(987,1327,o),
(1048,1331,cs),
(1076,1333,o),
(1084,1338,o),
(1084,1368,cs),
(1084,1383,o),
(1073,1419,o),
(1050,1419,cs),
(507,1421,l),
(261,1421,o),
(45,1311,o),
(45,1000,cs),
(45,801,o),
(169,652,o),
(359,589,c),
(359,-102,ls),
(359,-188,o),
(259,-194,o),
(187,-199,c,{
name = hr00;
}),
(159,-202,o),
(151,-206,o),
(151,-236,cs),
(151,-251,o),
(162,-287,o),
(185,-287,cs)
);
}
);
width = 1124;
}
);
unicode = 182;
}
{
glyphname = cedilla;
kernLeft = cedilla;
kernRight = cedilla;
layers = (
{
background = {
shapes = (
{
closed = 1;
nodes = (
(625,-488,o),
(710,-387,o),
(710,-298,cs),
(710,-203,o),
(634,-124,o),
(502,-111,c,{
name = hr03;
}),
(532,18,l),
(415,18,l,{
name = hr01;
}),
(383,-179,l),
(490,-180,o),
(541,-229,o),
(541,-286,cs,{
name = hr02;
}),
(541,-335,o),
(490,-369,o),
(410,-369,cs),
(373,-369,o),
(335,-364,o),
(286,-354,cs),
(262,-349,o),
(248,-394,o),
(228,-430,cs),
(221,-443,o),
(233,-453,o),
(248,-458,cs),
(284,-470,o),
(346,-488,o),
(455,-488,cs)
);
}
);
};
layerId = "DD6F9F34-BC40-4E8F-B1D3-DF3B42A9710F";
shapes = (
{
pos = (233,0);
ref = cedillacomb;
}
);
width = 503;
},
{
background = {
shapes = (
{
closed = 1;
nodes = (
(451,-498,o),
(542,-404,o),
(542,-289,cs),
(542,-195,o),
(466,-105,o),
(318,-91,c,{
name = hr03;
}),
(348,18,l),
(191,18,l,{
name = hr01;
}),
(158,-192,l),
(239,-192,o),
(307,-220,o),
(307,-284,cs,{
name = hr02;
}),
(307,-344,o),
(254,-374,o),
(188,-374,cs),
(157,-374,o),
(123,-370,o),
(75,-361,cs),
(49,-356,o),
(33,-402,o),
(24,-434,cs),
(20,-448,o),
(29,-457,o),
(44,-462,cs),
(80,-474,o),
(142,-498,o),
(251,-498,cs)
);
}
);
};
layerId = "62CA62AF-CD91-478A-AB8B-28A62CC47DA0";
shapes = (
{
pos = (20,0);
ref = cedillacomb;
}
);
width = 561;
}
);
unicode = 184;
}
{
glyphname = Oslash;
kernLeft = O;
kernRight = O;
layers = (
{
layerId = "DD6F9F34-BC40-4E8F-B1D3-DF3B42A9710F";
shapes = (
{
closed = 1;
nodes = (
(301,-114,l,{
name = hr00;
}),
(299,-129,o),
(312,-148,o),
(334,-162,cs),
(342,-167,o),
(355,-171,o),
(366,-171,cs),
(373,-171,o),
(379,-169,o),
(383,-164,c),
(1237,1525,l),
(1239,1540,o),
(1217,1566,o),
(1196,1578,cs),
(1189,1582,o),
(1181,1584,o),
(1174,1584,cs),
(1166,1584,o),
(1159,1582,o),
(1154,1575,c)
);
},
{
ref = O;
}
);
width = 1524;
},
{
layerId = "62CA62AF-CD91-478A-AB8B-28A62CC47DA0";
shapes = (
{
closed = 1;
nodes = (
(321,-114,l,{
name = hr00;
}),
(319,-129,o),
(332,-148,o),
(354,-162,cs),
(362,-167,o),
(375,-171,o),
(386,-171,cs),
(393,-171,o),
(399,-169,o),
(403,-164,c),
(1379,1525,l),
(1381,1540,o),
(1359,1566,o),
(1338,1578,cs),
(1331,1582,o),
(1323,1584,o),
(1316,1584,cs),
(1308,1584,o),
(1301,1582,o),
(1296,1575,c)
);
},
{
ref = O;
}
);
width = 1679;
}
);
unicode = 216;
}
{
glyphname = divide;
kernLeft = divide;
kernRight = divide;
layers = (
{
layerId = "DD6F9F34-BC40-4E8F-B1D3-DF3B42A9710F";
shapes = (
{
closed = 1;
nodes = (
(1188,496,l),
(1188,622,l),
(261,622,l),
(261,496,l)
);
},
{
pos = (444,837);
ref = period;
},
{
pos = (444,44);
ref = period;
}
);
width = 1317;
},
{
layerId = "62CA62AF-CD91-478A-AB8B-28A62CC47DA0";
shapes = (
{
closed = 1;
nodes = (
(1205,501,l),
(1205,647,l),
(235,647,l),
(235,501,l,{
name = hr00;
})
);
},
{
pos = (393,787);
ref = period;
},
{
pos = (393,20);
ref = period;
}
);
width = 1440;
}
);
unicode = 247;
}
{
glyphname = dcroat;
kernLeft = o;
kernRight = l;
layers = (
{
anchors = (
{
name = bottom;
pos = (572,0);
},
{
name = center;
pos = (572,497);
},
{
name = top;
pos = (284,917);
},
{
name = topright;
pos = (1190,994);
}
);
layerId = "DD6F9F34-BC40-4E8F-B1D3-DF3B42A9710F";
shapes = (
{
closed = 1;
nodes = (
(1130,1191,l),
(1144,1197,o),
(1154,1219,o),
(1154,1244,cs),
(1154,1260,o),
(1146,1287,o),
(1130,1288,c),
(529,1288,l),
(515,1282,o),
(505,1250,o),
(505,1225,cs),
(505,1209,o),
(513,1192,o),
(529,1191,c)
);
},
{
closed = 1;
nodes = (
(612,-29,o),
(731,21,o),
(801,97,c),
(800,34,o),
(802,0,o),
(877,0,cs),
(1101,0,ls),
(1123,0,o),
(1135,26,o),
(1135,41,cs),
(1135,71,o),
(1127,75,o),
(1099,78,cs),
(1050,83,o),
(987,89,o),
(987,175,cs),
(987,1518,l),
(984,1550,o),
(968,1558,o),
(957,1558,cs),
(900,1558,o),
(745,1557,o),
(612,1549,cs,{
name = "❌";
}),
(596,1548,o),
(588,1520,o),
(588,1504,cs),
(588,1479,o),
(598,1470,o),
(612,1464,c),
(666,1450,o),
(801,1463,o),
(801,1339,cs),
(801,1104,l),
(811,934,l),
(750,994,o),
(648,1014,o),
(539,1014,cs),
(223,1014,o),
(84,761,o),
(84,492,cs),
(84,222,o),
(202,-29,o),
(517,-29,cs)
);
},
{
closed = 1;
nodes = (
(357,66,o),
(298,253,o),
(298,492,cs),
(298,736,o),
(353,919,o),
(576,919,cs),
(687,919,o),
(763,885,o),
(801,814,c),
(801,176,l),
(757,117,o),
(657,66,o),
(580,66,cs)
);
}
);
width = 1176;
},
{
anchors = (
{
name = bottom;
pos = (657,0);
},
{
name = center;
pos = (657,497);
},
{
name = top;
pos = (334,880);
},
{
name = topright;
pos = (1379,994);
}
);
layerId = "62CA62AF-CD91-478A-AB8B-28A62CC47DA0";
shapes = (
{
closed = 1;
nodes = (
(1295,1191,l),
(1309,1197,o),
(1319,1219,o),
(1319,1244,cs),
(1319,1260,o),
(1311,1287,o),
(1295,1288,c),
(526,1288,l),
(512,1282,o),
(502,1250,o),
(502,1225,cs),
(502,1209,o),
(510,1192,o),
(526,1191,c)
);
},
{
closed = 1;
nodes = (
(648,-29,o),
(793,15,o),
(861,108,c),
(860,37,o),
(857,0,o),
(937,0,cs,{
name = hr02;
}),
(1281,0,ls),
(1303,0,o),
(1315,26,o),
(1315,41,cs),
(1315,71,o),
(1307,75,o),
(1279,78,cs),
(1230,83,o),
(1167,89,o),
(1167,175,cs),
(1167,1508,ls),
(1167,1540,o),
(1148,1549,o),
(1137,1549,cs,{
name = "❌";
}),
(1057,1549,o),
(839,1550,o),
(652,1538,cs),
(637,1537,o),
(628,1510,o),
(628,1494,cs),
(628,1469,o),
(638,1460,o),
(652,1454,c),
(764,1446,o),
(853,1425,o),
(853,1329,cs),
(853,1105,l),
(862,948,l),
(773,1002,o),
(702,1014,o),
(595,1014,cs),
(251,1014,o),
(85,761,o),
(85,492,cs,{
name = hr01;
}),
(85,222,o),
(204,-29,o),
(533,-29,cs)
);
},
{
closed = 1;
nodes = (
(486,116,o),
(422,273,o),
(422,492,cs),
(422,740,o),
(486,909,o),
(692,909,cs),
(755,909,o),
(836,850,o),
(853,801,c),
(853,209,l),
(818,147,o),
(737,116,o),
(676,116,cs)
);
}
);
width = 1358;
}
);
unicode = 273;
}
{
glyphname = Hbar;
kernLeft = H;
kernRight = H;
layers = (
{
anchors = (
{
name = bottom;
pos = (832,0);
},
{
name = center;
pos = (832,710);
},
{
name = top;
pos = (832,1419);
},
{
name = topleft;
pos = (17,1419);
}
);
layerId = "DD6F9F34-BC40-4E8F-B1D3-DF3B42A9710F";
shapes = (
{
closed = 1;
nodes = (
(1541,0,ls),
(1564,0,o),
(1575,36,o),
(1575,51,cs),
(1575,81,o),
(1567,85,o),
(1539,88,cs),
(1478,93,o),
(1387,99,o),
(1387,185,cs),
(1388,1267,ls),
(1388,1311,o),
(1469,1326,o),
(1533,1331,cs),
(1559,1334,o),
(1566,1347,o),
(1566,1368,cs),
(1566,1383,o),
(1555,1419,o),
(1532,1419,cs),
(1027,1419,ls),
(1004,1419,o),
(993,1383,o),
(993,1368,cs),
(993,1338,o),
(1001,1334,o),
(1029,1331,cs),
(1090,1326,o),
(1181,1320,o),
(1181,1234,cs),
(1180,152,ls),
(1180,108,o),
(1099,93,o),
(1035,88,cs),
(1009,85,o),
(1002,72,o),
(1002,51,cs),
(1002,36,o),
(1013,0,o),
(1036,0,cs)
);
},
{
closed = 1;
nodes = (
(636,0,ls),
(659,0,o),
(670,36,o),
(670,51,cs),
(670,81,o),
(662,85,o),
(634,88,cs),
(573,93,o),
(482,99,o),
(482,185,cs),
(483,1267,ls),
(483,1311,o),
(564,1326,o),
(628,1331,cs),
(654,1334,o),
(661,1347,o),
(661,1368,cs),
(661,1383,o),
(650,1419,o),
(627,1419,cs),
(132,1419,ls),
(109,1419,o),
(98,1383,o),
(98,1368,cs),
(98,1338,o),
(106,1334,o),
(134,1331,cs),
(195,1326,o),
(276,1320,o),
(276,1234,c),
(275,152,ls),
(275,108,o),
(204,93,o),
(140,88,cs),
(114,85,o),
(107,72,o),
(107,51,cs),
(107,36,o),
(118,0,o),
(141,0,cs)
);
},
{
closed = 1;
nodes = (
(1218,545,l),
(1218,631,l),
(421,631,l),
(421,545,l)
);
},
{
closed = 1;
nodes = (
(1569,887,l),
(1583,893,o),
(1593,935,o),
(1593,960,cs),
(1593,976,o),
(1585,993,o),
(1569,994,c),
(123,994,l),
(109,988,o),
(99,966,o),
(99,941,cs),
(99,925,o),
(107,888,o),
(123,887,c)
);
}
);
width = 1669;
},
{
anchors = (
{
name = bottom;
pos = (902,0);
},
{
name = center;
pos = (902,710);
},
{
name = top;
pos = (902,1419);
},
{
name = topleft;
pos = (-13,1419);
}
);
layerId = "62CA62AF-CD91-478A-AB8B-28A62CC47DA0";
shapes = (
{
closed = 1;
nodes = (
(1707,0,ls),
(1730,0,o),
(1741,36,o),
(1741,51,cs),
(1741,81,o),
(1733,85,o),
(1705,88,cs),
(1644,93,o),
(1554,99,o),
(1554,185,cs),
(1554,1267,ls),
(1554,1311,o),
(1631,1326,o),
(1699,1331,c),
(1725,1334,o),
(1732,1347,o),
(1732,1368,cs),
(1732,1383,o),
(1721,1419,o),
(1698,1419,cs),
(1063,1419,ls),
(1040,1419,o),
(1029,1383,o),
(1029,1368,cs),
(1029,1338,o),
(1037,1334,o),
(1065,1331,cs),
(1126,1326,o),
(1217,1320,o),
(1217,1234,cs),
(1217,152,ls),
(1217,108,o),
(1135,93,o),
(1071,88,c),
(1045,85,o),
(1038,72,o),
(1038,51,cs),
(1038,36,o),
(1049,0,o),
(1072,0,cs)
);
},
{
closed = 1;
nodes = (
(740,0,ls),
(763,0,o),
(774,36,o),
(774,51,cs),
(774,81,o),
(766,85,o),
(738,88,cs),
(677,93,o),
(587,99,o),
(587,185,cs),
(587,1267,ls),
(587,1311,o),
(664,1326,o),
(732,1331,c),
(758,1334,o),
(765,1347,o),
(765,1368,cs),
(765,1383,o),
(754,1419,o),
(731,1419,cs),
(106,1419,ls),
(83,1419,o),
(72,1383,o),
(72,1368,cs),
(72,1338,o),
(80,1334,o),
(108,1331,cs),
(169,1326,o),
(250,1320,o),
(250,1234,cs),
(250,152,ls),
(250,108,o),
(178,93,o),
(114,88,c),
(88,85,o),
(81,72,o),
(81,51,cs,{
name = hr00;
}),
(81,36,o),
(92,0,o),
(115,0,cs)
);
},
{
closed = 1;
nodes = (
(1302,493,l),
(1302,629,l),
(505,629,l),
(505,493,l)
);
},
{
closed = 1;
nodes = (
(1731,887,l),
(1745,893,o),
(1755,935,o),
(1755,960,cs),
(1755,976,o),
(1747,993,o),
(1731,994,c),
(93,994,l),
(79,988,o),
(69,966,o),
(69,941,cs),
(69,925,o),
(77,888,o),
(93,887,c)
);
}
);
width = 1870;
}
);
unicode = 294;
}
{
glyphname = hbar;
kernLeft = h;
kernRight = n;
layers = (
{
layerId = "DD6F9F34-BC40-4E8F-B1D3-DF3B42A9710F";
shapes = (
{
closed = 1;
nodes = (
(604,1191,l),
(618,1197,o),
(628,1219,o),
(628,1244,cs),
(628,1260,o),
(620,1287,o),
(604,1288,c),
(-5,1288,l),
(-19,1282,o),
(-29,1250,o),
(-29,1225,cs),
(-29,1209,o),
(-21,1192,o),
(-5,1191,c)
);
},
{
pos = (-51,0);
ref = h;
}
);
width = 1192;
},
{
layerId = "62CA62AF-CD91-478A-AB8B-28A62CC47DA0";
shapes = (
{
closed = 1;
nodes = (
(678,1191,l),
(692,1197,o),
(702,1219,o),
(702,1244,cs),
(702,1260,o),
(694,1287,o),
(678,1288,c),
(-21,1288,l),
(-35,1282,o),
(-45,1250,o),
(-45,1225,cs),
(-45,1209,o),
(-37,1192,o),
(-21,1191,c)
);
},
{
pos = (-67,0);
ref = h;
}
);
width = 1392;
}
);
unicode = 295;
}
{
glyphname = OE;
kernLeft = O;
kernRight = E;
layers = (
{
anchors = (
{
name = bottom;
pos = (1022,0);
},
{
name = top;
pos = (1022,1419);
}
);
background = {
shapes = (
{
closed = 1;
nodes = (
(837,36,o),
(848,0,o),
(871,0,cs),
(1931,1,l),
(1981,373,l),
(1978,396,o),
(1957,407,o),
(1932,407,cs),
(1911,407,o),
(1870,399,o),
(1864,374,cs),
(1816,173,o),
(1724,102,o),
(1604,102,cs),
(1319,101,l),
(1275,105,o),
(1230,124,o),
(1230,197,cs),
(1230,682,l),
(1458,683,ls),
(1514,683,o),
(1559,547,o),
(1562,504,c),
(1565,478,o),
(1590,471,o),
(1611,471,cs),
(1626,471,o),
(1652,482,o),
(1652,505,cs),
(1652,948,ls),
(1652,971,o),
(1626,982,o),
(1611,982,cs),
(1590,982,o),
(1568,976,o),
(1565,950,cs),
(1560,910,o),
(1516,786,o),
(1464,779,c),
(1230,778,l),
(1230,1320,l),
(1570,1321,ls),
(1678,1321,o),
(1696,1244,o),
(1776,1094,cs),
(1792,1064,o),
(1819,1061,o),
(1840,1061,cs),
(1855,1061,o),
(1879,1072,o),
(1877,1095,cs),
(1842,1420,l),
(862,1419,ls),
(839,1419,o),
(828,1383,o),
(828,1368,cs),
(828,1338,o),
(836,1334,o),
(864,1331,cs),
(925,1324,o),
(1016,1320,o),
(1016,1234,cs),
(1016,152,ls),
(1016,108,o),
(934,93,o),
(870,88,c),
(844,85,o),
(837,72,o),
(837,51,cs,{
name = hr00;
})
);
}
);
};
layerId = "DD6F9F34-BC40-4E8F-B1D3-DF3B42A9710F";
shapes = (
{
closed = 1;
nodes = (
(904,-29,o),
(942,0,o),
(1123,0,c),
(1886,1,l),
(1955,373,l),
(1955,396,o),
(1922,407,o),
(1906,407,cs),
(1884,407,o),
(1840,390,o),
(1838,364,cs),
(1830,260,o),
(1710,101,o),
(1617,101,c),
(1297,101,l),
(1243,101,o),
(1196,130,o),
(1196,214,c),
(1197,682,l),
(1433,682,ls),
(1489,682,o),
(1532,548,o),
(1537,505,cs),
(1540,479,o),
(1564,472,o),
(1585,472,cs),
(1600,472,o),
(1626,483,o),
(1626,506,c),
(1626,948,l),
(1626,971,o),
(1601,982,o),
(1585,982,cs),
(1563,982,o),
(1541,975,o),
(1539,949,c),
(1534,909,o),
(1495,785,o),
(1443,778,c),
(1197,778,l),
(1196,1321,l),
(1579,1320,l),
(1636,1320,o),
(1718,1168,o),
(1740,1111,cs),
(1750,1085,o),
(1775,1059,o),
(1810,1059,cs),
(1825,1059,o),
(1851,1070,o),
(1851,1093,c),
(1816,1418,l),
(1007,1419,l),
(936,1419,o),
(901,1449,o),
(735,1449,cs),
(341,1449,o),
(94,1126,o),
(94,716,cs),
(94,306,o),
(320,-29,o),
(725,-29,cs)
);
},
{
closed = 1;
nodes = (
(412,65,o),
(336,312,o),
(336,714,cs),
(336,1116,o),
(421,1360,o),
(724,1360,cs),
(889,1360,o),
(960,1313,o),
(989,1275,c),
(989,1274,l),
(988,141,l),
(949,78,o),
(865,65,o),
(729,65,cs)
);
}
);
width = 2044;
},
{
anchors = (
{
name = bottom;
pos = (1127,0);
},
{
name = top;
pos = (1127,1419);
}
);
background = {
shapes = (
{
closed = 1;
nodes = (
(866,36,o),
(877,0,o),
(900,0,cs),
(2125,0,l),
(2165,372,l),
(2162,395,o),
(2131,406,o),
(2106,406,cs),
(2085,406,o),
(2049,397,o),
(2038,373,cs),
(1946,173,o),
(1874,101,o),
(1754,101,cs),
(1470,101,l),
(1426,105,o),
(1381,124,o),
(1381,197,cs),
(1381,682,l),
(1644,682,ls),
(1700,682,o),
(1745,546,o),
(1748,503,c),
(1751,477,o),
(1776,470,o),
(1797,470,cs),
(1812,470,o),
(1848,481,o),
(1848,504,cs),
(1848,947,ls),
(1848,970,o),
(1812,981,o),
(1797,981,cs),
(1776,981,o),
(1754,975,o),
(1751,949,cs),
(1746,909,o),
(1702,785,o),
(1650,778,c),
(1381,778,l),
(1381,1320,l),
(1770,1320,ls),
(1878,1320,o),
(1896,1243,o),
(1976,1093,cs),
(1992,1063,o),
(2027,1060,o),
(2048,1060,cs),
(2063,1060,o),
(2087,1071,o),
(2085,1094,cs),
(2050,1419,l),
(891,1419,ls),
(868,1419,o),
(857,1383,o),
(857,1368,cs),
(857,1338,o),
(865,1334,o),
(893,1331,cs),
(954,1324,o),
(1045,1320,o),
(1045,1234,cs),
(1045,152,ls),
(1045,108,o),
(963,93,o),
(899,88,c),
(873,85,o),
(866,72,o),
(866,51,cs,{
name = hr00;
})
);
}
);
};
layerId = "62CA62AF-CD91-478A-AB8B-28A62CC47DA0";
shapes = (
{
closed = 1;
nodes = (
(919,-29,o),
(991,0,o),
(1147,0,c,{
name = hr02;
}),
(2147,0,l),
(2186,372,l),
(2183,395,o),
(2162,406,o),
(2137,406,cs),
(2090,406,o),
(2063,388,o),
(2052,364,cs),
(1983,214,o),
(1910,101,o),
(1790,101,c),
(1469,101,l),
(1425,105,o),
(1380,124,o),
(1380,197,cs),
(1380,682,l),
(1668,682,ls),
(1724,682,o),
(1769,546,o),
(1772,503,c),
(1775,477,o),
(1800,470,o),
(1821,470,cs),
(1836,470,o),
(1869,481,o),
(1869,504,c),
(1869,947,l),
(1869,970,o),
(1836,981,o),
(1821,981,cs),
(1800,981,o),
(1778,975,o),
(1775,949,cs),
(1770,909,o),
(1726,785,o),
(1674,778,c),
(1380,778,l),
(1380,1320,l),
(1794,1320,l),
(1902,1320,o),
(1920,1243,o),
(2000,1093,cs),
(2016,1063,o),
(2043,1060,o),
(2069,1060,cs),
(2084,1060,o),
(2108,1071,o),
(2106,1094,cs),
(2071,1419,l),
(1073,1419,l),
(1007,1421,o),
(951,1449,o),
(794,1449,cs,{
name = hr03;
}),
(398,1449,o),
(83,1126,o),
(83,716,cs,{
name = hr01;
}),
(83,306,o),
(391,-29,o),
(784,-29,cs)
);
},
{
closed = 1;
nodes = (
(584,65,o),
(455,312,o),
(455,714,cs),
(455,1116,o),
(581,1360,o),
(783,1360,cs),
(1000,1360,o),
(1027,1314,o),
(1044,1290,c),
(1044,141,l),
(1043,143,l),
(1004,78,o),
(925,65,o),
(788,65,cs)
);
}
);
width = 2254;
}
);
unicode = 338;
}
{
color = 1;
glyphname = Bhook;
layers = (
{
anchors = (
{
name = bottom;
pos = (885,0);
},
{
name = top;
pos = (787,1419);
}
);
layerId = "DD6F9F34-BC40-4E8F-B1D3-DF3B42A9710F";
shapes = (
{
closed = 1;
nodes = (
(939,0,ls),
(1178,0,o),
(1454,124,o),
(1454,416,cs),
(1454,678,o),
(1245,758,o),
(1081,776,c),
(1231,806,o),
(1369,913,o),
(1369,1100,cs),
(1369,1349,o),
(1135,1420,o),
(894,1419,cs),
(467,1418,ls),
(163,1417,o),
(20,1255,o),
(20,1064,cs),
(20,936,o),
(81,872,o),
(152,872,cs),
(232,872,o),
(284,945,o),
(284,980,cs),
(284,985,o),
(283,989,o),
(281,991,c),
(118,1100,l),
(118,1225,o),
(228,1338,o),
(472,1334,c),
(471,152,ls),
(471,108,o),
(375,93,o),
(296,88,cs),
(270,85,o),
(263,72,o),
(263,51,cs),
(263,36,o),
(274,0,o),
(297,0,cs)
);
},
{
closed = 1;
nodes = (
(675,1334,l),
(857,1334,ls),
(1026,1334,o),
(1152,1268,o),
(1152,1085,cs),
(1152,881,o),
(998,814,o),
(843,814,cs),
(675,814,l)
);
},
{
closed = 1;
nodes = (
(666,102,o),
(675,139,o),
(675,139,c),
(675,718,l),
(816,718,ls),
(961,718,o),
(1232,725,o),
(1232,421,cs),
(1232,140,o),
(1001,102,o),
(863,102,cs)
);
}
);
width = 1536;
},
{
anchors = (
{
name = bottom;
pos = (957,0);
},
{
name = top;
pos = (956,1419);
}
);
layerId = "62CA62AF-CD91-478A-AB8B-28A62CC47DA0";
shapes = (
{
closed = 1;
nodes = (
(1068,0,ls),
(1462,0,o),
(1654,139,o),
(1654,421,cs),
(1654,623,o),
(1488,749,o),
(1234,765,c),
(1414,785,o),
(1557,903,o),
(1557,1110,cs),
(1557,1329,o),
(1358,1419,o),
(1007,1419,cs),
(512,1419,ls),
(194,1419,o),
(10,1229,o),
(10,985,cs),
(10,832,o),
(79,756,o),
(157,756,cs),
(239,756,o),
(299,809,o),
(298,874,c),
(298,874,o),
(297,885,o),
(295,885,c),
(124,1013,l),
(124,1066,o),
(177,1322,o),
(496,1322,c),
(496,152,ls),
(496,108,o),
(400,93,o),
(321,88,cs),
(295,85,o),
(288,72,o),
(288,51,cs,{
name = hr00;
}),
(288,36,o),
(299,0,o),
(322,0,cs)
);
},
{
closed = 1;
nodes = (
(833,1322,l),
(946,1322,ls),
(1115,1322,o),
(1230,1256,o),
(1230,1073,cs),
(1230,869,o),
(1074,802,o),
(919,802,cs),
(833,802,l)
);
},
{
closed = 1;
nodes = (
(834,101,o),
(833,138,o),
(833,138,c),
(833,706,l),
(922,706,ls),
(1066,706,o),
(1290,713,o),
(1290,418,cs),
(1290,141,o),
(1128,101,o),
(989,101,cs)
);
}
);
width = 1729;
}
);
metricRight = B;
unicode = 385;
}
{
color = 3;
glyphname = Ereversed;
layers = (
{
anchors = (
{
name = bottom;
pos = (630,0);
},
{
name = top;
pos = (664,1419);
}
);
layerId = "DD6F9F34-BC40-4E8F-B1D3-DF3B42A9710F";
shapes = (
{
closed = 1;
nodes = (
(1233,72,o),
(1226,85,o),
(1200,88,c),
(1136,93,o),
(1054,108,o),
(1054,152,cs),
(1054,1234,ls),
(1054,1320,o),
(1145,1324,o),
(1206,1331,cs),
(1234,1334,o),
(1242,1338,o),
(1242,1368,cs),
(1242,1383,o),
(1231,1419,o),
(1208,1419,cs),
(228,1420,l),
(193,1095,ls),
(191,1072,o),
(215,1061,o),
(230,1061,cs),
(251,1061,o),
(278,1064,o),
(294,1094,cs),
(374,1244,o),
(392,1321,o),
(500,1321,cs),
(840,1320,l),
(840,778,l),
(606,779,l),
(554,786,o),
(510,910,o),
(505,950,cs),
(502,976,o),
(480,982,o),
(459,982,cs),
(444,982,o),
(418,971,o),
(418,948,cs),
(418,505,ls),
(418,482,o),
(444,471,o),
(459,471,cs),
(480,471,o),
(505,478,o),
(508,504,c),
(511,547,o),
(556,683,o),
(612,683,cs),
(840,682,l),
(840,197,ls),
(840,124,o),
(795,105,o),
(751,101,c),
(466,102,ls),
(346,102,o),
(254,173,o),
(206,374,cs),
(200,399,o),
(159,407,o),
(138,407,cs),
(113,407,o),
(92,396,o),
(89,373,c),
(139,1,l),
(1199,0,ls),
(1222,0,o),
(1233,36,o),
(1233,51,cs,{
name = hr00;
})
);
}
);
width = 1338;
},
{
anchors = (
{
name = bottom;
pos = (677,0);
},
{
name = top;
pos = (686,1419);
}
);
layerId = "62CA62AF-CD91-478A-AB8B-28A62CC47DA0";
shapes = (
{
closed = 1;
nodes = (
(1367,72,o),
(1360,85,o),
(1334,88,c),
(1270,93,o),
(1188,108,o),
(1188,152,cs),
(1188,1234,ls),
(1188,1320,o),
(1279,1324,o),
(1340,1331,cs),
(1368,1334,o),
(1376,1338,o),
(1376,1368,cs),
(1376,1383,o),
(1365,1419,o),
(1342,1419,cs),
(183,1419,l),
(148,1094,ls),
(146,1071,o),
(179,1060,o),
(194,1060,cs),
(215,1060,o),
(250,1063,o),
(266,1093,cs),
(346,1243,o),
(355,1320,o),
(463,1320,cs),
(854,1320,l),
(854,778,l),
(587,778,l),
(535,785,o),
(491,909,o),
(486,949,cs),
(483,975,o),
(461,981,o),
(440,981,cs),
(425,981,o),
(385,970,o),
(385,947,cs),
(385,504,ls),
(385,481,o),
(425,470,o),
(440,470,cs),
(461,470,o),
(486,477,o),
(489,503,c),
(492,546,o),
(537,682,o),
(593,682,cs),
(854,682,l),
(854,197,ls),
(854,124,o),
(807,105,o),
(763,101,c),
(474,101,ls),
(354,101,o),
(290,173,o),
(198,373,cs),
(187,397,o),
(151,406,o),
(130,406,cs),
(105,406,o),
(71,395,o),
(68,372,c),
(108,0,l),
(1333,0,ls),
(1356,0,o),
(1367,36,o),
(1367,51,cs,{
name = hr00;
})
);
}
);
width = 1477;
}
);
unicode = 398;
}
{
color = 4;
glyphname = Eopen;
layers = (
{
anchors = (
{
name = bottom;
pos = (581,0);
},
{
name = top;
pos = (642,1419);
}
);
layerId = "DD6F9F34-BC40-4E8F-B1D3-DF3B42A9710F";
shapes = (
{
closed = 1;
nodes = (
(813,-28,o),
(1070,63,o),
(1070,298,cs),
(1070,388,o),
(1003,456,o),
(941,456,cs),
(902,456,o),
(847,425,o),
(847,372,c),
(894,200,l),
(868,140,o),
(805,67,o),
(622,67,cs),
(432,67,o),
(304,161,o),
(304,386,cs),
(304,665,o),
(562,696,o),
(665,696,cs),
(728,696,l),
(754,696,o),
(754,734,o),
(754,753,cs),
(754,772,o),
(756,810,o),
(728,810,c),
(665,810,ls),
(564,810,o),
(379,911,o),
(379,1109,cs),
(379,1163,o),
(409,1350,o),
(629,1350,cs),
(778,1350,o),
(797,1286,o),
(817,1243,c),
(828,1191,o),
(837,1130,o),
(844,1090,cs),
(851,1049,o),
(871,1015,o),
(911,1015,cs),
(948,1015,o),
(1038,1037,o),
(1038,1133,cs),
(1038,1309,o),
(863,1446,o),
(632,1446,cs),
(332,1446,o),
(163,1309,o),
(163,1081,cs),
(163,875,o),
(368,791,o),
(499,761,c),
(319,759,o),
(82,665,o),
(82,403,cs),
(82,129,o),
(313,-28,o),
(607,-28,cs)
);
}
);
width = 1161;
},
{
anchors = (
{
name = bottom;
pos = (658,0);
},
{
name = top;
pos = (707,1419);
}
);
layerId = "62CA62AF-CD91-478A-AB8B-28A62CC47DA0";
shapes = (
{
closed = 1;
nodes = (
(1004,-21,o),
(1234,94,o),
(1234,293,cs,{
name = hr01;
}),
(1234,420,o),
(1132,488,o),
(1073,488,cs),
(987,488,o),
(951,450,o),
(941,417,c),
(1004,174,l),
(1004,174,o),
(941,74,o),
(731,74,cs),
(537,74,o),
(439,186,o),
(439,387,cs),
(439,653,o),
(573,694,o),
(754,694,cs),
(847,694,ls),
(863,694,o),
(871,702,o),
(871,750,cs),
(871,797,o),
(863,806,o),
(847,806,cs),
(774,806,ls),
(633,806,o),
(485,877,o),
(485,1092,cs),
(485,1193,o),
(527,1349,o),
(709,1349,cs),
(810,1349,o),
(865,1325,o),
(905,1243,c),
(925,1181,o),
(941,1114,o),
(955,1075,cs),
(975,1019,o),
(1017,994,o),
(1061,994,cs,{
name = "❌";
}),
(1131,994,o),
(1205,1055,o),
(1205,1137,cs),
(1205,1320,o),
(961,1446,o),
(711,1446,cs),
(342,1446,o),
(158,1308,o),
(158,1106,cs,{
name = hr02;
}),
(158,900,o),
(305,787,o),
(508,757,c),
(248,755,o),
(75,642,o),
(75,408,cs),
(75,154,o),
(292,-21,o),
(722,-21,cs)
);
}
);
width = 1316;
}
);
unicode = 400;
}
{
glyphname = ezhreversed;
layers = (
{
anchors = (
{
name = bottom;
pos = (528,-433);
},
{
name = top;
pos = (496,986);
}
);
layerId = "DD6F9F34-BC40-4E8F-B1D3-DF3B42A9710F";
shapes = (
{
closed = 1;
nodes = (
(760,-421,o),
(1017,-330,o),
(1017,-95,cs),
(1017,-5,o),
(950,63,o),
(888,63,cs),
(849,63,o),
(794,32,o),
(794,-21,c),
(841,-193,l),
(815,-253,o),
(752,-326,o),
(599,-326,cs),
(409,-326,o),
(251,-232,o),
(251,-7,cs),
(251,312,o),
(489,303,o),
(592,303,cs),
(655,303,ls),
(681,303,o),
(681,341,o),
(681,360,cs),
(681,379,o),
(675,395,o),
(655,417,c),
(431,768,l),
(320,903,l),
(681,903,ls),
(769,903,o),
(882,695,o),
(888,646,cs),
(891,620,o),
(904,613,o),
(925,613,cs),
(940,613,o),
(958,624,o),
(956,647,cs),
(927,945,l),
(915,972,o),
(900,986,o),
(880,986,cs),
(78,986,ls),
(62,986,o),
(54,981,o),
(54,962,cs),
(54,935,ls),
(54,924,o),
(57,917,o),
(64,907,cs),
(446,368,l),
(266,366,o),
(54,292,o),
(54,10,cs),
(54,-264,o),
(290,-421,o),
(584,-421,cs)
);
}
);
width = 1050;
},
{
anchors = (
{
name = bottom;
pos = (635,-403);
},
{
name = top;
pos = (597,994);
}
);
layerId = "62CA62AF-CD91-478A-AB8B-28A62CC47DA0";
shapes = (
{
closed = 1;
nodes = (
(904,-446,o),
(1125,-331,o),
(1125,-132,cs,{
name = hr01;
}),
(1125,-5,o),
(1024,63,o),
(972,63,cs),
(882,63,o),
(855,24,o),
(844,-8,c),
(905,-251,l),
(911,-251,o),
(835,-351,o),
(666,-351,cs),
(490,-351,o),
(448,-239,o),
(448,-38,cs),
(448,228,o),
(532,269,o),
(714,269,cs),
(805,269,ls),
(817,269,o),
(826,277,o),
(826,325,cs),
(826,350,o),
(813,360,o),
(805,381,c),
(546,780,l),
(456,911,l),
(786,911,ls),
(864,911,o),
(933,743,o),
(972,594,cs),
(979,567,o),
(988,561,o),
(1006,561,cs),
(1020,561,o),
(1067,572,o),
(1068,595,c),
(1042,953,l),
(1030,983,o),
(1015,994,o),
(999,994,cs),
(129,994,ls),
(115,994,o),
(96,987,o),
(96,968,cs),
(96,952,ls),
(96,943,o),
(98,926,o),
(105,915,cs),
(468,332,l),
(237,330,o),
(76,223,o),
(76,-11,cs),
(76,-265,o),
(239,-446,o),
(659,-446,cs)
);
}
);
width = 1194;
}
);
metricLeft = "=|ezh";
metricRight = "=|ezh";
unicode = 441;
}
{
color = 9;
glyphname = Astroke;
layers = (
{
anchors = (
{
name = bottom;
pos = (678,0);
},
{
name = ogonek;
pos = (1222,10);
},
{
name = top;
pos = (712,1419);
}
);
layerId = "DD6F9F34-BC40-4E8F-B1D3-DF3B42A9710F";
shapes = (
{
closed = 1;
nodes = (
(430,0,ls),
(453,0,o),
(464,36,o),
(464,51,cs),
(464,72,o),
(457,85,o),
(431,88,c),
(349,93,o),
(285,86,o),
(285,120,cs),
(285,123,o),
(285,127,o),
(287,132,cs),
(423,537,l),
(364,494,l),
(935,494,l),
(875,537,l),
(1010,132,ls),
(1012,127,o),
(1013,122,o),
(1013,118,cs),
(1013,87,o),
(957,92,o),
(876,88,c),
(850,85,o),
(843,72,o),
(843,51,cs),
(843,36,o),
(854,0,o),
(877,0,cs),
(1378,0,ls),
(1400,0,o),
(1412,36,o),
(1412,51,cs),
(1412,81,o),
(1404,85,o),
(1376,88,cs),
(1327,93,o),
(1256,77,o),
(1225,165,cs),
(780,1441,l),
(620,1441,l),
(162,165,ls),
(130,76,o),
(58,93,o),
(9,88,cs),
(-19,85,o),
(-27,81,o),
(-27,51,cs),
(-27,24,o),
(-15,0,o),
(7,0,cs)
);
},
{
closed = 1;
nodes = (
(659,1187,l),
(875,537,l),
(905,580,l),
(393,580,l),
(424,537,l)
);
},
{
closed = 1;
nodes = (
(312,-114,l,{
name = hr00;
}),
(310,-129,o),
(323,-148,o),
(345,-162,cs),
(353,-167,o),
(366,-171,o),
(377,-171,cs),
(384,-171,o),
(390,-169,o),
(394,-164,c),
(1248,1525,l),
(1250,1540,o),
(1228,1566,o),
(1207,1578,cs),
(1200,1582,o),
(1192,1584,o),
(1185,1584,cs),
(1177,1584,o),
(1170,1582,o),
(1165,1575,c)
);
}
);
width = 1374;
},
{
anchors = (
{
name = bottom;
pos = (750,0);
},
{
name = ogonek;
pos = (1351,10);
},
{
name = top;
pos = (773,1419);
}
);
layerId = "62CA62AF-CD91-478A-AB8B-28A62CC47DA0";
shapes = (
{
closed = 1;
nodes = (
(446,0,ls),
(469,0,o),
(480,36,o),
(480,51,cs),
(480,72,o),
(473,85,o),
(447,88,c),
(366,92,o),
(300,87,o),
(300,119,cs),
(300,123,o),
(301,127,o),
(303,132,cs),
(443,522,l),
(393,478,l),
(943,477,l),
(893,512,l),
(1031,132,ls),
(1033,126,o),
(1034,121,o),
(1034,116,cs),
(1034,87,o),
(986,92,o),
(907,88,c),
(881,85,o),
(874,72,o),
(874,51,cs),
(874,36,o),
(885,0,o),
(908,0,cs),
(1530,0,ls),
(1552,0,o),
(1564,36,o),
(1564,51,cs),
(1564,81,o),
(1556,85,o),
(1528,88,cs),
(1479,93,o),
(1400,75,o),
(1367,165,cs),
(892,1441,l),
(658,1441,l),
(178,165,ls),
(146,79,o),
(74,93,o),
(25,88,cs),
(-3,85,o),
(-11,81,o),
(-11,51,cs),
(-11,24,o),
(1,0,o),
(23,0,cs)
);
},
{
closed = 1;
nodes = (
(688,1190,l),
(879,554,l),
(910,563,l),
(435,563,l),
(452,555,l)
);
},
{
closed = 1;
nodes = (
(310,-114,l,{
name = hr00;
}),
(308,-129,o),
(321,-148,o),
(343,-162,cs),
(351,-167,o),
(364,-171,o),
(375,-171,cs),
(382,-171,o),
(388,-169,o),
(392,-164,c),
(1368,1525,l),
(1370,1540,o),
(1348,1566,o),
(1327,1578,cs),
(1320,1582,o),
(1312,1584,o),
(1305,1584,cs),
(1297,1584,o),
(1290,1582,o),
(1285,1575,c)
);
}
);
width = 1553;
}
);
metricLeft = A;
metricWidth = A;
unicode = 570;
}
{
glyphname = Vturned;
layers = (
{
anchors = (
{
name = bottom;
pos = (639,0);
},
{
name = top;
pos = (676,1419);
}
);
layerId = "DD6F9F34-BC40-4E8F-B1D3-DF3B42A9710F";
shapes = (
{
closed = 1;
nodes = (
(598,1437,l),
(133,165,ls),
(100,77,o),
(21,93,o),
(-28,88,cs),
(-56,85,o),
(-64,81,o),
(-64,51,cs),
(-64,36,o),
(-52,0,o),
(-30,0,cs),
(425,0,ls),
(448,0,o),
(459,36,o),
(459,51,cs),
(459,72,o),
(452,85,o),
(426,88,c),
(343,93,o),
(266,111,o),
(266,151,cs),
(266,154,o),
(267,158,o),
(268,162,cs),
(615,1187,l),
(981,132,ls),
(983,127,o),
(984,122,o),
(984,119,cs),
(984,87,o),
(924,92,o),
(843,88,c),
(817,85,o),
(810,72,o),
(810,51,cs),
(810,36,o),
(821,0,o),
(844,0,cs),
(1369,0,ls),
(1391,0,o),
(1403,36,o),
(1403,51,cs),
(1403,81,o),
(1395,85,o),
(1367,88,cs),
(1318,93,o),
(1239,77,o),
(1206,165,cs),
(721,1437,l)
);
}
);
width = 1365;
},
{
anchors = (
{
name = bottom;
pos = (684,0);
},
{
name = top;
pos = (757,1419);
}
);
layerId = "62CA62AF-CD91-478A-AB8B-28A62CC47DA0";
shapes = (
{
closed = 1;
nodes = (
(684,1437,l),
(157,165,ls),
(135,113,o),
(105,93,o),
(-7,88,cs),
(-35,87,o),
(-43,81,o),
(-43,51,cs),
(-43,36,o),
(-31,0,o),
(-9,0,cs),
(449,0,ls),
(472,0,o),
(483,36,o),
(483,51,cs),
(483,72,o),
(476,85,o),
(450,88,c),
(367,93,o),
(290,111,o),
(290,151,cs),
(290,154,o),
(291,158,o),
(292,162,c),
(649,1072,l),
(1052,132,l),
(1054,127,o),
(1055,122,o),
(1055,119,cs),
(1055,87,o),
(995,92,o),
(914,88,c),
(888,85,o),
(881,72,o),
(881,51,cs),
(881,36,o),
(892,0,o),
(915,0,cs),
(1570,0,ls),
(1592,0,o),
(1604,36,o),
(1604,51,cs),
(1604,81,o),
(1596,85,o),
(1568,88,cs),
(1519,93,o),
(1440,77,o),
(1407,165,c),
(807,1437,l,{
name = hr00;
})
);
}
);
width = 1561;
}
);
unicode = 581;
}
{
color = 1;
glyphname = bhook;
layers = (
{
anchors = (
{
name = bottom;
pos = (567,0);
},
{
name = top;
pos = (782,950);
}
);
layerId = "DD6F9F34-BC40-4E8F-B1D3-DF3B42A9710F";
shapes = (
{
closed = 1;
nodes = (
(222,-32,o),
(277,20,o),
(311,74,c),
(367,-5,o),
(480,-30,o),
(603,-30,cs),
(912,-30,o),
(1055,223,o),
(1055,492,cs),
(1055,762,o),
(933,1013,o),
(625,1013,cs),
(525,1013,o),
(399,958,o),
(331,875,c),
(342,1074,l),
(342,1458,o),
(559,1475,o),
(584,1475,c),
(693,1312,l),
(695,1310,o),
(699,1309,o),
(704,1309,cs),
(739,1309,o),
(812,1361,o),
(812,1441,cs),
(812,1512,o),
(748,1573,o),
(620,1573,cs),
(313,1573,o),
(156,1367,o),
(156,1042,cs),
(155,12,ls),
(155,-17,o),
(162,-32,o),
(190,-32,cs)
);
},
{
closed = 1;
nodes = (
(455,65,o),
(379,99,o),
(341,170,c),
(341,808,l),
(385,867,o),
(485,918,o),
(562,918,cs),
(777,918,o),
(840,732,o),
(840,492,cs),
(840,252,o),
(781,65,o),
(566,65,cs)
);
}
);
width = 1147;
},
{
anchors = (
{
name = bottom;
pos = (655,0);
},
{
name = top;
pos = (887,994);
}
);
layerId = "62CA62AF-CD91-478A-AB8B-28A62CC47DA0";
shapes = (
{
closed = 1;
nodes = (
(238,-32,o),
(214,-23,o),
(316,40,c),
(437,-21,o),
(606,-29,o),
(720,-29,cs),
(1064,-29,o),
(1230,224,o),
(1230,493,cs),
(1230,763,o),
(1111,1014,o),
(782,1014,cs),
(666,1014,o),
(516,970,o),
(453,877,c),
(458,1045,ls),
(467,1334,o),
(495,1449,o),
(638,1449,c),
(786,1278,l),
(786,1276,o),
(797,1275,o),
(797,1275,c),
(862,1274,o),
(915,1334,o),
(915,1416,cs),
(915,1494,o),
(839,1563,o),
(666,1563,cs),
(292,1563,o),
(148,1269,o),
(148,974,cs),
(148,25,ls,{
name = hr00;
}),
(148,-4,o),
(155,-32,o),
(183,-32,cs)
);
},
{
closed = 1;
nodes = (
(560,76,o),
(475,135,o),
(458,164,c),
(458,776,l),
(492,838,o),
(578,869,o),
(639,869,cs),
(829,869,o),
(893,722,o),
(893,493,cs),
(893,235,o),
(829,76,o),
(623,76,cs)
);
}
);
width = 1322;
}
);
unicode = 595;
}
{
glyphname = mturned;
layers = (
{
anchors = (
{
name = bottom;
pos = (918,-8);
},
{
name = top;
pos = (899,986);
}
);
layerId = "DD6F9F34-BC40-4E8F-B1D3-DF3B42A9710F";
shapes = (
{
closed = 1;
nodes = (
(653,-28,o),
(792,93,o),
(832,136,c),
(863,1,o),
(976,-28,o),
(1069,-28,cs),
(1247,-28,o),
(1381,87,o),
(1427,132,c),
(1432,17,o),
(1480,-24,o),
(1543,-24,cs),
(1651,-24,o),
(1722,23,o),
(1735,38,c),
(1739,41,o),
(1741,47,o),
(1741,54,cs),
(1741,74,o),
(1724,104,o),
(1701,97,cs),
(1685,92,o),
(1673,89,o),
(1654,89,cs),
(1632,89,o),
(1613,114,o),
(1613,211,cs),
(1613,939,ls),
(1613,977,o),
(1593,986,o),
(1570,986,cs),
(1313,986,ls),
(1291,986,o),
(1279,960,o),
(1279,945,cs),
(1279,915,o),
(1287,911,o),
(1315,908,cs),
(1364,903,o),
(1427,897,o),
(1427,811,cs),
(1427,215,l),
(1372,164,o),
(1265,90,o),
(1140,90,cs),
(1022,90,o),
(1011,157,o),
(1011,191,cs),
(1011,939,ls),
(1011,977,o),
(989,986,o),
(966,986,cs),
(697,986,ls),
(674,986,o),
(663,960,o),
(663,945,cs),
(663,916,o),
(674,911,o),
(696,908,cs),
(746,901,o),
(823,907,o),
(823,811,cs),
(823,245,l),
(823,235,o),
(823,225,o),
(823,215,c),
(765,164,o),
(662,90,o),
(536,90,cs),
(418,90,o),
(407,157,o),
(407,191,cs),
(407,939,ls),
(407,977,o),
(399,986,o),
(376,986,cs),
(83,986,ls),
(60,986,o),
(49,960,o),
(49,945,cs),
(49,916,o),
(60,911,o),
(82,908,cs),
(132,901,o),
(219,907,o),
(219,811,cs),
(219,220,ls),
(219,12,o),
(328,-28,o),
(461,-28,cs)
);
}
);
width = 1810;
},
{
anchors = (
{
name = bottom;
pos = (1064,0);
},
{
name = top;
pos = (1041,994);
}
);
background = {
shapes = (
{
closed = 1;
nodes = (
(706,-27,o),
(859,56,o),
(923,147,c),
(922,92,o),
(932,-25,o),
(1065,-25,cs),
(1233,-25,o),
(1322,17,o),
(1352,37,cs),
(1355,39,o),
(1357,46,o),
(1357,54,cs),
(1357,84,o),
(1340,137,o),
(1318,126,cs),
(1304,119,o),
(1285,118,o),
(1266,118,cs),
(1244,118,o),
(1222,128,o),
(1222,222,cs),
(1222,958,ls),
(1222,979,o),
(1212,994,o),
(1185,994,cs),
(762,994,ls),
(739,994,o),
(728,968,o),
(728,953,cs),
(728,923,o),
(736,919,o),
(764,916,c),
(828,911,o),
(906,905,o),
(906,819,cs),
(906,238,l),
(841,168,o),
(766,127,o),
(651,127,cs),
(569,127,o),
(540,223,o),
(540,361,cs),
(540,958,ls),
(540,979,o),
(531,994,o),
(503,994,cs),
(112,994,ls),
(90,994,o),
(78,968,o),
(78,953,cs),
(78,923,o),
(86,919,o),
(114,916,cs),
(163,911,o),
(224,905,o),
(224,819,cs),
(224,270,ls,{
name = hr00;
}),
(224,22,o),
(369,-27,o),
(560,-27,cs)
);
}
);
};
layerId = "62CA62AF-CD91-478A-AB8B-28A62CC47DA0";
shapes = (
{
closed = 1;
nodes = (
(684,-20,o),
(847,85,o),
(912,134,c),
(956,10,o),
(1061,-20,o),
(1172,-20,cs),
(1370,-20,o),
(1547,104,o),
(1597,160,c),
(1596,82,o),
(1606,-25,o),
(1739,-25,cs),
(1907,-25,o),
(1996,17,o),
(2026,37,cs),
(2029,39,o),
(2031,46,o),
(2031,54,cs),
(2031,84,o),
(2014,137,o),
(1992,126,cs),
(1978,119,o),
(1959,118,o),
(1940,118,cs),
(1918,118,o),
(1896,128,o),
(1896,222,cs),
(1895,953,ls),
(1895,990,o),
(1879,994,o),
(1856,994,cs),
(1475,994,ls),
(1453,994,o),
(1441,968,o),
(1441,953,cs),
(1441,923,o),
(1449,919,o),
(1477,916,cs),
(1526,912,o),
(1579,906,o),
(1579,829,cs),
(1579,257,l),
(1522,206,o),
(1456,132,o),
(1327,132,cs),
(1208,132,o),
(1199,234,o),
(1199,283,cs),
(1199,953,ls),
(1199,980,o),
(1185,994,o),
(1155,994,cs),
(783,994,ls),
(760,994,o),
(749,968,o),
(749,953,cs),
(749,924,o),
(760,919,o),
(782,916,cs),
(832,910,o),
(891,915,o),
(891,829,cs),
(891,278,ls),
(891,263,o),
(892,249,o),
(893,235,c),
(833,186,o),
(747,132,o),
(643,132,cs),
(524,132,o),
(524,234,o),
(524,283,cs),
(524,957,ls),
(524,976,o),
(526,994,o),
(486,994,cs),
(80,994,ls),
(57,994,o),
(46,968,o),
(46,953,cs),
(46,924,o),
(57,919,o),
(79,916,cs),
(129,910,o),
(206,915,o),
(206,829,cs),
(206,278,ls),
(206,30,o),
(330,-20,o),
(478,-20,cs)
);
}
);
width = 2092;
}
);
metricLeft = u;
metricRight = u;
unicode = 623;
}
{
glyphname = commareversedmod;
layers = (
{
layerId = "DD6F9F34-BC40-4E8F-B1D3-DF3B42A9710F";
shapes = (
{
closed = 1;
nodes = (
(278,1047,o),
(287,1045,o),
(296,1045,cs),
(318,1045,o),
(338,1057,o),
(338,1078,cs),
(338,1086,o),
(335,1095,o),
(329,1105,c),
(259,1182,o),
(235,1293,o),
(235,1346,cs),
(235,1352,o),
(235,1358,o),
(236,1362,cs),
(238,1373,o),
(346,1386,o),
(346,1493,cs),
(346,1563,o),
(287,1617,o),
(215,1617,cs),
(151,1617,o),
(69,1581,o),
(69,1446,cs),
(69,1288,o),
(212,1092,o),
(270,1051,c,{
name = hr00;
})
);
}
);
width = 464;
},
{
layerId = "62CA62AF-CD91-478A-AB8B-28A62CC47DA0";
shapes = (
{
closed = 1;
nodes = (
(387,981,o),
(411,996,o),
(411,1021,cs),
(411,1030,o),
(408,1041,o),
(401,1052,c),
(319,1140,o),
(288,1268,o),
(288,1331,cs),
(288,1340,o),
(289,1348,o),
(290,1354,cs),
(293,1366,o),
(420,1382,o),
(420,1508,cs),
(420,1590,o),
(352,1654,o),
(266,1654,cs),
(191,1654,o),
(95,1612,o),
(95,1452,cs),
(95,1266,o),
(263,1036,o),
(331,988,c,{
name = hr00;
}),
(340,984,o),
(351,981,o),
(361,981,cs)
);
}
);
width = 550;
}
);
metricLeft = "=|apostrophemod";
metricRight = "=|apostrophemod";
unicode = 701;
}
{
glyphname = ringhalfright;
kernLeft = ring;
kernRight = ring;
layers = (
{
anchors = (
{
name = _top;
pos = (2,994);
},
{
name = top;
pos = (2,1657);
}
);
layerId = "DD6F9F34-BC40-4E8F-B1D3-DF3B42A9710F";
shapes = (
{
closed = 1;
nodes = (
(153,1143,o),
(278,1243,o),
(278,1400,cs),
(278,1556,o),
(155,1655,o),
(1,1657,c),
(1,1553,l),
(111,1551,o),
(154,1481,o),
(154,1399,cs),
(154,1317,o),
(111,1248,o),
(-1,1247,c),
(-1,1142,l)
);
}
);
width = 0;
},
{
anchors = (
{
name = _top;
pos = (-4,994);
},
{
name = top;
pos = (-4,1657);
}
);
layerId = "62CA62AF-CD91-478A-AB8B-28A62CC47DA0";
shapes = (
{
closed = 1;
nodes = (
(170,1117,o),
(306,1227,o),
(306,1400,cs),
(306,1571,o),
(172,1680,o),
(3,1683,c),
(3,1538,l),
(101,1535,o),
(138,1472,o),
(138,1399,cs),
(138,1325,o),
(100,1263,o),
(-1,1262,c),
(-1,1116,l)
);
}
);
width = 0;
}
);
unicode = 702;
}
{
glyphname = tilde;
kernLeft = tilde;
kernRight = tilde;
layers = (
{
layerId = "DD6F9F34-BC40-4E8F-B1D3-DF3B42A9710F";
shapes = (
{
closed = 1;
nodes = (
(706,1174,o),
(763,1204,o),
(805,1259,cs),
(829,1291,o),
(872,1356,o),
(872,1375,cs),
(872,1396,o),
(854,1416,o),
(834,1416,cs),
(830,1416,o),
(826,1416,o),
(822,1415,c),
(785,1399,o),
(754,1321,o),
(674,1321,cs),
(644,1321,o),
(606,1332,o),
(558,1363,cs),
(496,1410,o),
(447,1464,o),
(370,1464,cs),
(288,1464,o),
(235,1434,o),
(189,1379,cs),
(166,1351,o),
(130,1298,o),
(130,1279,cs),
(130,1258,o),
(148,1238,o),
(168,1238,cs),
(172,1238,o),
(176,1238,o),
(180,1239,c),
(216,1254,o),
(242,1320,o),
(314,1320,cs),
(345,1320,o),
(384,1308,o),
(436,1275,cs),
(498,1228,o),
(546,1174,o),
(624,1174,cs)
);
}
);
width = 1024;
},
{
layerId = "62CA62AF-CD91-478A-AB8B-28A62CC47DA0";
shapes = (
{
closed = 1;
nodes = (
(691,1164,o),
(778,1202,o),
(820,1249,cs),
(862,1296,o),
(900,1359,o),
(900,1401,cs),
(900,1423,o),
(864,1453,o),
(844,1453,c),
(840,1453,o),
(835,1448,o),
(831,1444,cs),
(800,1416,o),
(763,1348,o),
(679,1348,cs),
(645,1348,o),
(604,1359,o),
(553,1388,c),
(476,1427,o),
(418,1484,o),
(325,1484,cs,{
name = hr03;
}),
(259,1484,o),
(176,1436,o),
(134,1389,cs),
(101,1352,o),
(65,1312,o),
(65,1274,cs),
(65,1241,o),
(99,1204,o),
(125,1204,c,{
name = hr01;
}),
(129,1204,o),
(132,1208,o),
(136,1211,cs),
(164,1236,o),
(190,1301,o),
(266,1301,cs),
(297,1301,o),
(338,1290,o),
(391,1260,c),
(471,1221,o),
(531,1164,o),
(629,1164,cs,{
name = hr02;
})
);
}
);
width = 1024;
}
);
unicode = 732;
}
{
glyphname = hungarumlaut;
kernLeft = hungarumlaut;
kernRight = hungarumlaut;
layers = (
{
layerId = "DD6F9F34-BC40-4E8F-B1D3-DF3B42A9710F";
shapes = (
{
closed = 1;
nodes = (
(420,1313,o),
(544,1412,o),
(570,1447,cs),
(587,1468,o),
(601,1496,o),
(601,1523,cs),
(601,1547,o),
(591,1571,o),
(564,1591,cs),
(544,1607,o),
(524,1613,o),
(505,1613,cs),
(469,1613,o),
(438,1590,o),
(418,1564,cs),
(393,1529,o),
(334,1364,o),
(193,1149,c),
(257,1101,l)
);
},
{
closed = 1;
nodes = (
(784,1313,o),
(930,1412,o),
(957,1447,cs),
(973,1468,o),
(986,1495,o),
(986,1522,cs),
(986,1546,o),
(975,1570,o),
(948,1591,cs),
(927,1607,o),
(907,1613,o),
(888,1613,cs),
(852,1613,o),
(821,1591,o),
(801,1564,cs),
(775,1529,o),
(698,1364,o),
(557,1149,c),
(621,1101,l)
);
}
);
width = 1024;
},
{
layerId = "62CA62AF-CD91-478A-AB8B-28A62CC47DA0";
shapes = (
{
closed = 1;
nodes = (
(836,1293,o),
(960,1392,o),
(986,1427,c),
(1000,1445,o),
(1009,1469,o),
(1009,1495,cs),
(1009,1525,o),
(996,1557,o),
(965,1581,cs),
(942,1599,o),
(918,1606,o),
(897,1606,cs),
(863,1606,o),
(833,1588,o),
(814,1564,c),
(789,1529,o),
(730,1364,o),
(589,1149,c),
(673,1081,l,{
name = hr00;
})
);
},
{
closed = 1;
nodes = (
(402,1293,o),
(526,1392,o),
(552,1427,cs),
(566,1445,o),
(575,1469,o),
(575,1495,cs),
(575,1525,o),
(562,1557,o),
(531,1581,cs),
(508,1599,o),
(484,1606,o),
(463,1606,cs),
(429,1606,o),
(399,1588,o),
(380,1564,cs),
(355,1529,o),
(296,1364,o),
(155,1149,c),
(239,1081,l)
);
}
);
width = 1024;
}
);
unicode = 733;
}
{
glyphname = gravecomb;
kernLeft = gravecomb;
kernRight = gravecomb;
layers = (
{
anchors = (
{
name = _top;
pos = (622,994);
},
{
name = top;
pos = (622,1439);
}
);
layerId = "DD6F9F34-BC40-4E8F-B1D3-DF3B42A9710F";
shapes = (
{
closed = 1;
nodes = (
(775,1154,l),
(611,1343,o),
(516,1496,o),
(485,1526,cs),
(464,1546,o),
(433,1562,o),
(400,1562,cs),
(376,1562,o),
(350,1552,o),
(328,1529,cs),
(307,1507,o),
(299,1484,o),
(299,1462,cs),
(299,1430,o),
(316,1401,o),
(338,1381,cs),
(370,1352,o),
(515,1279,o),
(719,1096,c)
);
}
);
width = 1024;
},
{
anchors = (
{
name = _top;
pos = (587,994);
},
{
name = top;
pos = (587,1450);
}
);
layerId = "62CA62AF-CD91-478A-AB8B-28A62CC47DA0";
shapes = (
{
closed = 1;
nodes = (
(726,1169,l),
(572,1358,o),
(483,1511,o),
(452,1541,cs),
(431,1561,o),
(393,1577,o),
(355,1577,cs),
(325,1577,o),
(296,1567,o),
(274,1544,cs),
(251,1520,o),
(242,1489,o),
(242,1460,cs),
(242,1425,o),
(255,1391,o),
(275,1373,cs),
(307,1344,o),
(466,1264,o),
(670,1111,c,{
name = hr00;
})
);
}
);
width = 1024;
}
);
unicode = 768;
}
{
glyphname = caroncomb;
kernLeft = caron;
kernRight = caron;
layers = (
{
anchors = (
{
name = _top;
pos = (527,994);
},
{
name = top;
pos = (527,1420);
}
);
layerId = "DD6F9F34-BC40-4E8F-B1D3-DF3B42A9710F";
shapes = (
{
closed = 1;
nodes = (
(575,1111,o),
(597,1137,o),
(619,1161,c),
(867,1519,l),
(754,1519,l),
(527,1288,l),
(305,1519,l),
(187,1519,l),
(432,1161,l),
(454,1133,o),
(478,1111,o),
(526,1111,cs)
);
}
);
width = 1024;
},
{
anchors = (
{
name = _top;
pos = (512,994);
},
{
name = top;
pos = (512,1442);
}
);
layerId = "62CA62AF-CD91-478A-AB8B-28A62CC47DA0";
shapes = (
{
closed = 1;
nodes = (
(581,1140,o),
(610,1168,o),
(632,1191,c),
(880,1545,l),
(737,1545,l),
(512,1338,l),
(292,1545,l),
(144,1545,l),
(387,1191,l),
(407,1162,o),
(444,1140,o),
(512,1140,cs,{
name = hr00;
})
);
}
);
width = 1024;
}
);
unicode = 780;
}
{
glyphname = dotbelowcomb;
kernLeft = dotbelowcomb;
kernRight = dotbelowcomb;
layers = (
{
anchors = (
{
name = _bottom;
},
{
name = bottom;
pos = (0,-471);
}
);
layerId = "DD6F9F34-BC40-4E8F-B1D3-DF3B42A9710F";
shapes = (
{
closed = 1;
nodes = (
(73,-411,o),
(121,-350,o),
(121,-272,cs),
(121,-194,o),
(73,-133,o),
(0,-133,cs),
(-74,-133,o),
(-121,-194,o),
(-121,-272,cs),
(-121,-350,o),
(-74,-411,o),
(0,-411,cs)
);
}
);
width = 0;
},
{
anchors = (
{
name = _bottom;
},
{
name = bottom;
pos = (0,-563);
}
);
layerId = "62CA62AF-CD91-478A-AB8B-28A62CC47DA0";
shapes = (
{
closed = 1;
nodes = (
(103,-503,o),
(188,-428,o),
(188,-320,cs),
(188,-212,o),
(103,-136,o),
(0,-136,cs),
(-104,-136,o),
(-188,-212,o),
(-188,-320,cs),
(-188,-428,o),
(-104,-503,o),
(0,-503,cs)
);
}
);
width = 0;
}
);
unicode = 803;
}
{
glyphname = circumflexbelowcomb;
kernLeft = dotbelowcomb;
kernRight = dotbelowcomb;
layers = (
{
anchors = (
{
name = _bottom;
},
{
name = bottom;
pos = (0,-471);
}
);
layerId = "DD6F9F34-BC40-4E8F-B1D3-DF3B42A9710F";
shapes = (
{
closed = 1;
nodes = (
(-223,-521,l),
(-1,-310,l),
(226,-521,l),
(339,-521,l),
(94,-192,l),
(72,-159,o),
(48,-132,o),
(-1,-132,cs),
(-49,-132,o),
(-74,-155,o),
(-96,-183,c),
(-341,-521,l)
);
}
);
width = 0;
},
{
anchors = (
{
name = _bottom;
},
{
name = bottom;
pos = (0,-563);
}
);
layerId = "62CA62AF-CD91-478A-AB8B-28A62CC47DA0";
shapes = (
{
closed = 1;
nodes = (
(-223,-522,l),
(-1,-361,l),
(226,-522,l),
(369,-522,l),
(126,-213,ls),
(102,-182,o),
(68,-153,o),
(-1,-153,cs),
(-69,-153,o),
(-103,-176,o),
(-124,-204,cs),
(-371,-522,l,{
name = hr00;
})
);
}
);
width = 0;
}
);
unicode = 813;
}
{
glyphname = strokeshortcomb;
layers = (
{
layerId = "DD6F9F34-BC40-4E8F-B1D3-DF3B42A9710F";
shapes = (
{
closed = 1;
nodes = (
(660,496,l),
(660,622,l),
(106,622,l),
(106,496,l)
);
}
);
width = 766;
},
{
layerId = "62CA62AF-CD91-478A-AB8B-28A62CC47DA0";
shapes = (
{
closed = 1;
nodes = (
(740,476,l),
(740,622,l),
(96,622,l),
(96,476,l,{
name = hr00;
})
);
}
);
width = 836;
}
);
unicode = 821;
}
{
color = 0;
glyphname = "Ii-cy";
layers = (
{
anchors = (
{
name = bottom;
pos = (812,0);
},
{
name = top;
pos = (784,1419);
}
);
layerId = "DD6F9F34-BC40-4E8F-B1D3-DF3B42A9710F";
shapes = (
{
closed = 1;
nodes = (
(1498,0,o),
(1509,36,o),
(1509,51,cs),
(1509,72,o),
(1502,85,o),
(1476,88,c),
(1412,93,o),
(1321,108,o),
(1321,172,cs),
(1321,1234,ls),
(1321,1320,o),
(1421,1324,o),
(1482,1331,cs),
(1510,1334,o),
(1518,1338,o),
(1518,1368,cs),
(1518,1383,o),
(1507,1419,o),
(1484,1419,cs),
(1146,1419,l),
(369,313,l),
(357,313,l),
(357,1234,ls),
(357,1320,o),
(476,1324,o),
(537,1331,cs),
(565,1334,o),
(573,1338,o),
(573,1368,cs),
(573,1383,o),
(562,1419,o),
(539,1419,cs),
(84,1419,ls),
(61,1419,o),
(50,1383,o),
(50,1368,cs),
(50,1347,o),
(57,1334,o),
(83,1331,cs),
(144,1324,o),
(258,1320,o),
(258,1234,cs),
(258,113,ls),
(258,88,o),
(255,78,o),
(252,40,cs),
(248,-16,o),
(284,-30,o),
(312,-30,cs),
(333,-30,o),
(356,-20,o),
(366,-8,c),
(1205,1154,l),
(1222,1154,l),
(1222,185,ls),
(1222,99,o),
(1113,95,o),
(1052,88,cs),
(1024,85,o),
(1016,81,o),
(1016,51,cs),
(1016,36,o),
(1027,0,o),
(1050,0,cs),
(1475,0,ls)
);
}
);
width = 1571;
},
{
anchors = (
{
name = bottom;
pos = (859,0);
},
{
name = top;
pos = (836,1419);
}
);
layerId = "62CA62AF-CD91-478A-AB8B-28A62CC47DA0";
shapes = (
{
closed = 1;
nodes = (
(1659,0,o),
(1670,36,o),
(1670,51,cs,{
name = hr01;
}),
(1670,72,o),
(1663,85,o),
(1637,88,c,{
name = hr03;
}),
(1573,93,o),
(1452,108,o),
(1452,172,cs),
(1452,1180,ls),
(1452,1266,o),
(1582,1324,o),
(1643,1331,cs),
(1671,1334,o),
(1679,1338,o),
(1679,1368,cs),
(1679,1383,o),
(1668,1419,o),
(1645,1419,cs),
(1157,1419,l),
(347,467,l),
(335,467,l),
(335,1234,ls),
(335,1320,o),
(456,1324,o),
(517,1331,cs),
(545,1334,o),
(553,1338,o),
(553,1368,cs),
(553,1383,o),
(542,1419,o),
(519,1419,cs),
(44,1419,ls),
(21,1419,o),
(10,1383,o),
(10,1368,cs),
(10,1347,o),
(17,1334,o),
(43,1331,cs),
(104,1324,o),
(218,1306,o),
(218,1239,cs),
(218,113,ls),
(218,88,o),
(215,78,o),
(212,40,cs),
(208,-12,o),
(281,-30,o),
(322,-30,cs),
(343,-30,o),
(366,-20,o),
(376,-8,cs,{
name = hr02;
}),
(1308,1090,l),
(1325,1090,l),
(1325,185,ls),
(1325,99,o),
(1184,95,o),
(1123,88,cs),
(1095,85,o),
(1087,81,o),
(1087,51,cs),
(1087,36,o),
(1098,0,o),
(1121,0,cs),
(1636,0,ls)
);
}
);
width = 1719;
}
);
metricLeft = "=|N";
metricRight = "=|N";
unicode = 1048;
}
{
glyphname = "Pe-cy";
layers = (
{
anchors = (
{
name = bottom;
pos = (832,0);
},
{
name = center;
pos = (832,710);
},
{
name = top;
pos = (832,1419);
},
{
name = topleft;
pos = (17,1419);
}
);
layerId = "DD6F9F34-BC40-4E8F-B1D3-DF3B42A9710F";
shapes = (
{
closed = 1;
nodes = (
(631,0,ls),
(654,0,o),
(665,36,o),
(665,51,cs),
(665,81,o),
(657,85,o),
(629,88,cs),
(568,95,o),
(477,99,o),
(477,185,cs),
(478,1267,ls),
(478,1311,o),
(559,1311,o),
(623,1311,cs),
(779,1311,o),
(936,1311,o),
(1092,1311,c),
(1143,1309,o),
(1193,1298,o),
(1193,1234,cs),
(1192,152,ls),
(1192,108,o),
(1111,93,o),
(1047,88,cs),
(1021,86,o),
(1014,72,o),
(1014,51,cs),
(1014,36,o),
(1025,0,o),
(1048,0,cs),
(1550,0,ls),
(1573,0,o),
(1584,36,o),
(1584,51,cs),
(1584,81,o),
(1576,85,o),
(1548,88,cs),
(1487,95,o),
(1396,99,o),
(1396,185,cs),
(1397,1267,ls),
(1397,1311,o),
(1478,1326,o),
(1542,1331,cs),
(1568,1333,o),
(1575,1347,o),
(1575,1368,cs),
(1575,1383,o),
(1564,1419,o),
(1541,1419,cs),
(130,1419,ls),
(107,1419,o),
(96,1383,o),
(96,1368,cs),
(96,1338,o),
(104,1334,o),
(132,1331,cs),
(193,1324,o),
(274,1320,o),
(274,1234,cs),
(273,152,ls),
(273,108,o),
(202,93,o),
(138,88,cs),
(112,86,o),
(105,72,o),
(105,51,cs),
(105,36,o),
(116,0,o),
(139,0,cs)
);
}
);
width = 1669;
},
{
anchors = (
{
name = bottom;
pos = (931,0);
},
{
name = center;
pos = (931,710);
},
{
name = top;
pos = (931,1419);
},
{
name = topleft;
pos = (16,1419);
}
);
layerId = "62CA62AF-CD91-478A-AB8B-28A62CC47DA0";
shapes = (
{
closed = 1;
nodes = (
(769,0,ls),
(792,0,o),
(803,36,o),
(803,51,cs),
(803,81,o),
(795,85,o),
(767,88,cs),
(706,93,o),
(616,99,o),
(616,185,cs),
(616,1204,ls),
(616,1244,o),
(635,1290,o),
(733,1297,c),
(867,1297,o),
(1001,1297,o),
(1135,1297,c),
(1191,1293,o),
(1254,1276,o),
(1254,1204,cs),
(1254,152,ls),
(1254,108,o),
(1172,93,o),
(1108,88,cs),
(1082,85,o),
(1075,72,o),
(1075,51,cs),
(1075,36,o),
(1086,0,o),
(1109,0,cs),
(1744,0,ls),
(1767,0,o),
(1778,36,o),
(1778,51,cs),
(1778,81,o),
(1770,85,o),
(1742,88,cs),
(1681,95,o),
(1591,99,o),
(1591,185,cs),
(1591,1267,ls),
(1591,1311,o),
(1668,1326,o),
(1736,1331,cs),
(1762,1334,o),
(1769,1347,o),
(1769,1368,cs),
(1769,1383,o),
(1758,1419,o),
(1735,1419,cs),
(135,1419,ls),
(112,1419,o),
(101,1383,o),
(101,1368,cs),
(101,1338,o),
(109,1334,o),
(137,1331,cs),
(198,1326,o),
(279,1320,o),
(279,1234,cs),
(279,152,ls),
(279,108,o),
(207,93,o),
(143,88,cs),
(117,85,o),
(110,72,o),
(110,51,cs,{
name = hr00;
}),
(110,36,o),
(121,0,o),
(144,0,cs)
);
}
);
width = 1870;
}
);
unicode = 1055;
}
{
glyphname = quoteright;
kernLeft = quotedblleft;
kernRight = quotedblleft;
layers = (
{
layerId = "DD6F9F34-BC40-4E8F-B1D3-DF3B42A9710F";
shapes = (
{
closed = 1;
nodes = (
(240,1097,o),
(399,1315,o),
(399,1490,cs),
(399,1641,o),
(308,1681,o),
(237,1681,cs),
(157,1681,o),
(92,1621,o),
(92,1543,cs),
(92,1424,o),
(212,1409,o),
(214,1397,cs),
(215,1392,o),
(215,1386,o),
(215,1379,cs),
(215,1321,o),
(188,1197,o),
(110,1112,c),
(103,1101,o),
(101,1091,o),
(101,1082,cs),
(101,1059,o),
(123,1045,o),
(147,1045,cs),
(157,1045,o),
(167,1047,o),
(176,1052,c,{
name = hr00;
})
);
}
);
width = 464;
},
{
layerId = "62CA62AF-CD91-478A-AB8B-28A62CC47DA0";
shapes = (
{
closed = 1;
nodes = (
(261,1042,o),
(448,1298,o),
(448,1504,cs),
(448,1682,o),
(341,1729,o),
(258,1729,cs),
(163,1729,o),
(87,1658,o),
(87,1566,cs),
(87,1427,o),
(228,1409,o),
(231,1395,cs),
(232,1388,o),
(233,1380,o),
(233,1370,cs),
(233,1300,o),
(199,1158,o),
(108,1060,c),
(100,1047,o),
(97,1035,o),
(97,1025,cs),
(97,997,o),
(123,981,o),
(152,981,cs),
(164,981,o),
(175,984,o),
(186,989,c,{
name = hr00;
})
);
}
);
width = 550;
}
);
unicode = 8217;
}
{
glyphname = bullet;
kernLeft = bullet;
kernRight = bullet;
layers = (
{
layerId = "DD6F9F34-BC40-4E8F-B1D3-DF3B42A9710F";
shapes = (
{
closed = 1;
nodes = (
(550,336,o),
(658,439,o),
(658,601,cs),
(658,763,o),
(550,866,o),
(401,866,cs),
(252,866,o),
(145,763,o),
(145,601,cs),
(145,439,o),
(252,336,o),
(401,336,cs)
);
}
);
width = 804;
},
{
layerId = "62CA62AF-CD91-478A-AB8B-28A62CC47DA0";
shapes = (
{
closed = 1;
nodes = (
(632,246,o),
(765,373,o),
(765,573,cs),
(765,773,o),
(632,900,o),
(448,900,cs),
(264,900,o),
(132,773,o),
(132,573,cs),
(132,403,o),
(264,246,o),
(448,246,cs,{
name = hr00;
})
);
}
);
width = 896;
}
);
unicode = 8226;
}
{
glyphname = minute;
kernLeft = minute;
kernRight = minute;
layers = (
{
layerId = "DD6F9F34-BC40-4E8F-B1D3-DF3B42A9710F";
shapes = (
{
closed = 1;
nodes = (
(374,1268,o),
(475,1397,o),
(492,1438,c),
(499,1453,o),
(503,1471,o),
(503,1488,cs),
(503,1522,o),
(487,1555,o),
(442,1573,cs),
(427,1579,o),
(413,1582,o),
(400,1582,cs),
(353,1582,o),
(319,1546,o),
(303,1509,c),
(288,1469,o),
(278,1295,o),
(196,1052,c),
(270,1021,l)
);
}
);
width = 658;
},
{
layerId = "62CA62AF-CD91-478A-AB8B-28A62CC47DA0";
shapes = (
{
closed = 1;
nodes = (
(359,1259,o),
(482,1415,o),
(503,1465,c),
(511,1483,o),
(516,1504,o),
(516,1525,cs),
(516,1566,o),
(496,1607,o),
(442,1629,cs),
(424,1637,o),
(407,1640,o),
(391,1640,cs),
(334,1640,o),
(292,1596,o),
(273,1551,c,{
name = "❌";
}),
(255,1503,o),
(243,1292,o),
(143,997,c),
(233,959,l,{
name = hr00;
})
);
}
);
width = 658;
}
);
unicode = 8242;
}
{
glyphname = peseta;
kernLeft = peseta;
kernRight = peseta;
layers = (
{
layerId = "DD6F9F34-BC40-4E8F-B1D3-DF3B42A9710F";
shapes = (
{
closed = 1;
nodes = (
(615,0,ls),
(638,0,o),
(649,36,o),
(649,51,cs),
(649,81,o),
(641,85,o),
(613,88,c),
(536,93,o),
(411,99,o),
(411,185,cs),
(411,514,l),
(590,514,ls),
(890,514,o),
(1093,721,o),
(1093,989,cs),
(1093,1300,o),
(866,1431,o),
(631,1431,cs),
(493,1431,o),
(406,1419,o),
(281,1419,c),
(58,1419,l),
(35,1419,o),
(24,1383,o),
(24,1368,cs),
(24,1338,o),
(32,1334,o),
(60,1331,cs),
(121,1324,o),
(212,1320,o),
(212,1234,cs),
(211,152,ls),
(211,108,o),
(130,93,o),
(66,88,c),
(40,85,o),
(33,72,o),
(33,51,cs),
(33,36,o),
(44,0,o),
(67,0,cs)
);
},
{
closed = 1;
nodes = (
(412,1342,l),
(554,1342,ls),
(713,1342,o),
(875,1244,o),
(875,968,cs),
(875,700,o),
(662,600,o),
(587,600,cs),
(411,600,l)
);
},
{
closed = 1;
nodes = (
(1528,-30,o),
(1650,41,o),
(1685,78,c),
(1679,102,o),
(1667,122,o),
(1651,138,c),
(1598,113,o),
(1564,89,o),
(1472,89,cs),
(1421,89,o),
(1371,126,o),
(1371,296,cs),
(1371,907,l),
(1656,907,l),
(1670,913,o),
(1680,935,o),
(1680,960,cs),
(1680,976,o),
(1672,993,o),
(1656,994,c),
(1371,994,l),
(1371,1267,ls),
(1371,1275,o),
(1372,1291,o),
(1355,1291,cs),
(1332,1291,o),
(1305,1295,o),
(1299,1268,cs),
(1253,1063,o),
(1197,998,o),
(1073,985,c,{
name = L;
}),
(1060,984,l,{
name = L;
}),
(1046,978,o),
(1036,966,o),
(1036,941,cs),
(1036,925,o),
(1044,908,o),
(1060,907,c),
(1185,907,l),
(1185,223,ls),
(1185,20,o),
(1279,-30,o),
(1430,-30,cs)
);
},
{
closed = 1;
nodes = (
(2293,-28,o),
(2431,97,o),
(2431,283,cs),
(2431,440,o),
(2286,514,o),
(2131,588,cs),
(2004,649,o),
(1893,704,o),
(1893,795,cs),
(1893,876,o),
(1951,928,o),
(2061,928,cs),
(2228,928,o),
(2276,801,o),
(2311,722,cs),
(2315,713,o),
(2328,706,o),
(2341,706,cs),
(2355,706,o),
(2369,715,o),
(2369,743,cs),
(2369,762,o),
(2363,802,o),
(2363,865,cs),
(2363,925,o),
(2366,982,o),
(2366,994,cs),
(2366,1016,o),
(2350,1029,o),
(2333,1029,cs),
(2321,1029,o),
(2309,1022,o),
(2301,1008,cs),
(2293,994,o),
(2295,975,o),
(2266,975,cs),
(2232,975,o),
(2184,1014,o),
(2057,1014,cs),
(1914,1014,o),
(1728,927,o),
(1728,749,cs),
(1728,569,o),
(1851,496,o),
(1985,428,cs),
(2109,365,o),
(2250,322,o),
(2250,201,cs),
(2250,107,o),
(2159,57,o),
(2043,57,cs),
(1968,57,o),
(1868,83,o),
(1816,178,cs),
(1764,273,o),
(1760,308,o),
(1752,337,cs),
(1748,351,o),
(1734,359,o),
(1719,359,cs),
(1702,359,o),
(1685,347,o),
(1685,316,cs),
(1685,259,o),
(1699,130,o),
(1699,44,cs),
(1699,22,o),
(1716,10,o),
(1739,10,cs),
(1767,10,o),
(1772,23,o),
(1798,23,cs),
(1813,23,o),
(1832,18,o),
(1858,10,cs),
(1895,-1,o),
(1947,-28,o),
(2056,-28,cs)
);
}
);
width = 2467;
},
{
layerId = "62CA62AF-CD91-478A-AB8B-28A62CC47DA0";
shapes = (
{
closed = 1;
nodes = (
(757,0,ls),
(780,0,o),
(791,36,o),
(791,51,cs),
(791,81,o),
(783,85,o),
(755,88,c),
(678,93,o),
(534,99,o),
(534,185,cs),
(534,515,l),
(666,515,ls),
(1073,515,o),
(1174,742,o),
(1174,1010,cs),
(1174,1321,o),
(1021,1429,o),
(696,1429,cs),
(587,1429,o),
(484,1419,o),
(338,1419,c,{
name = hr02;
}),
(53,1419,ls),
(30,1419,o),
(19,1383,o),
(19,1368,cs),
(19,1338,o),
(27,1334,o),
(55,1331,cs),
(116,1324,o),
(206,1320,o),
(206,1234,cs),
(206,152,ls),
(206,108,o),
(135,93,o),
(71,88,c),
(45,85,o),
(38,72,o),
(38,51,cs,{
name = hr01;
}),
(38,36,o),
(49,0,o),
(72,0,cs)
);
},
{
closed = 1;
nodes = (
(534,1332,l),
(583,1332,ls),
(783,1332,o),
(806,1215,o),
(806,989,cs),
(806,761,o),
(727,611,o),
(583,611,cs),
(534,611,l)
);
},
{
closed = 1;
nodes = (
(1659,-30,o),
(1781,28,o),
(1832,84,c),
(1845,93,o),
(1810,156,o),
(1798,150,cs),
(1750,126,o),
(1713,105,o),
(1667,105,cs),
(1592,105,o),
(1579,142,o),
(1579,312,cs),
(1579,887,l),
(1795,887,l),
(1809,893,o),
(1819,935,o),
(1819,960,cs),
(1819,976,o),
(1811,993,o),
(1795,994,c),
(1579,994,l),
(1579,1277,ls),
(1579,1299,o),
(1537,1307,o),
(1500,1307,cs),
(1470,1307,o),
(1438,1299,o),
(1431,1268,cs),
(1400,1129,o),
(1328,1022,o),
(1282,1012,c),
(1147,975,l),
(1133,969,o),
(1122,954,o),
(1122,929,cs),
(1122,913,o),
(1131,886,o),
(1146,885,c),
(1263,885,l),
(1263,223,ls,{
name = hr00;
}),
(1263,20,o),
(1399,-30,o),
(1568,-30,cs)
);
},
{
closed = 1;
nodes = (
(2589,-30,o),
(2746,78,o),
(2746,279,cs),
(2746,475,o),
(2577,566,o),
(2389,628,cs),
(2234,679,o),
(2163,726,o),
(2163,818,cs),
(2163,904,o),
(2247,928,o),
(2311,928,cs),
(2500,928,o),
(2556,783,o),
(2584,698,cs),
(2588,686,o),
(2607,678,o),
(2628,678,cs),
(2656,678,o),
(2681,693,o),
(2681,733,cs),
(2681,764,o),
(2676,804,o),
(2676,843,cs),
(2676,906,o),
(2679,967,o),
(2679,979,cs),
(2679,1001,o),
(2651,1014,o),
(2622,1014,cs),
(2602,1014,o),
(2581,1007,o),
(2573,993,cs,{
name = L;
}),
(2565,978,o),
(2567,960,o),
(2538,960,cs),
(2509,960,o),
(2426,1014,o),
(2299,1014,cs),
(2057,1014,o),
(1874,878,o),
(1874,703,cs),
(1874,528,o),
(2026,436,o),
(2154,391,cs),
(2381,311,o),
(2438,259,o),
(2438,169,cs),
(2438,93,o),
(2380,55,o),
(2270,55,cs),
(2113,55,o),
(2037,160,o),
(2010,216,cs),
(1978,282,o),
(1967,318,o),
(1959,347,cs),
(1955,361,o),
(1935,369,o),
(1913,369,cs),
(1888,369,o),
(1861,357,o),
(1861,326,cs),
(1861,269,o),
(1870,56,o),
(1870,24,cs,{
name = hr01;
}),
(1870,6,o),
(1895,-6,o),
(1921,-6,cs),
(1979,-6,o),
(1962,38,o),
(2016,38,cs),
(2025,38,o),
(2035,36,o),
(2047,30,cs,{
name = hr02;
}),
(2083,12,o),
(2170,-30,o),
(2282,-30,cs)
);
}
);
width = 2777;
}
);
unicode = 8359;
}
{
glyphname = won;
kernLeft = won;
kernRight = won;
layers = (
{
anchors = (
{
name = bottom;
pos = (1009,0);
},
{
name = top;
pos = (1059,1419);
}
);
layerId = "DD6F9F34-BC40-4E8F-B1D3-DF3B42A9710F";
shapes = (
{
closed = 1;
nodes = (
(1854,681,l),
(1868,687,o),
(1878,729,o),
(1878,754,cs),
(1878,770,o),
(1870,787,o),
(1854,788,c),
(153,788,l),
(139,782,o),
(129,760,o),
(129,735,cs),
(129,719,o),
(137,682,o),
(153,681,c)
);
},
{
closed = 1;
nodes = (
(675,-18,l),
(1005,1076,l),
(1355,-18,l),
(1478,-18,l),
(1851,1254,ls),
(1878,1344,o),
(1953,1326,o),
(2002,1331,cs),
(2030,1334,o),
(2038,1338,o),
(2038,1368,cs),
(2038,1383,o),
(2026,1419,o),
(2004,1419,cs),
(1559,1419,ls),
(1536,1419,o),
(1525,1383,o),
(1525,1368,cs),
(1525,1347,o),
(1532,1334,o),
(1558,1331,c),
(1643,1326,o),
(1734,1334,o),
(1734,1295,cs),
(1734,1293,o),
(1734,1290,o),
(1733,1287,cs),
(1464,252,l),
(1099,1399,l),
(1001,1399,l),
(664,256,l),
(385,1287,l),
(384,1291,o),
(383,1295,o),
(383,1298,cs),
(383,1333,o),
(460,1326,o),
(543,1331,c),
(569,1334,o),
(576,1347,o),
(576,1368,cs),
(576,1383,o),
(565,1419,o),
(542,1419,cs),
(30,1419,ls),
(8,1419,o),
(-4,1383,o),
(-4,1368,cs),
(-4,1338,o),
(4,1334,o),
(32,1331,cs),
(81,1326,o),
(158,1342,o),
(191,1254,c),
(560,-18,l)
);
}
);
width = 1998;
},
{
anchors = (
{
name = bottom;
pos = (1154,0);
},
{
name = top;
pos = (1243,1419);
}
);
layerId = "62CA62AF-CD91-478A-AB8B-28A62CC47DA0";
shapes = (
{
closed = 1;
nodes = (
(2135,681,l),
(2149,687,o),
(2159,729,o),
(2159,754,cs),
(2159,770,o),
(2151,787,o),
(2135,788,c),
(153,788,l),
(139,782,o),
(129,760,o),
(129,735,cs),
(129,719,o),
(137,682,o),
(153,681,c)
);
},
{
closed = 1;
nodes = (
(784,-18,l),
(1123,987,l),
(1535,-18,l),
(1658,-18,l),
(2108,1180,ls),
(2140,1269,o),
(2165,1331,o),
(2306,1331,cs),
(2334,1331,o),
(2342,1338,o),
(2342,1368,cs),
(2342,1383,o),
(2330,1419,o),
(2308,1419,cs),
(1823,1419,ls),
(1800,1419,o),
(1789,1383,o),
(1789,1368,cs),
(1789,1347,o),
(1796,1334,o),
(1822,1331,c),
(1969,1331,o),
(2006,1298,o),
(2006,1261,cs),
(2006,1251,o),
(2004,1242,o),
(2001,1233,cs),
(1709,428,l),
(1314,1389,l),
(1150,1389,l),
(825,398,l),
(500,1230,ls),
(497,1239,o),
(495,1249,o),
(495,1259,cs),
(495,1297,o),
(528,1331,o),
(641,1331,c),
(667,1334,o),
(674,1347,o),
(674,1368,cs),
(674,1383,o),
(663,1419,o),
(640,1419,cs),
(-1,1419,ls),
(-23,1419,o),
(-35,1383,o),
(-35,1368,cs),
(-35,1338,o),
(-27,1335,o),
(2,1331,cs),
(94,1317,o),
(125,1293,o),
(159,1205,cs),
(661,-18,l,{
name = hr00;
})
);
}
);
width = 2306;
}
);
unicode = 8361;
}
{
color = 1;
glyphname = hryvnia;
layers = (
{
anchors = (
{
name = bottom;
pos = (565,0);
},
{
name = top;
pos = (562,1419);
}
);
layerId = "DD6F9F34-BC40-4E8F-B1D3-DF3B42A9710F";
shapes = (
{
closed = 1;
nodes = (
(677,-30,o),
(750,22,o),
(795,45,cs),
(833,65,o),
(853,82,o),
(876,82,cs),
(886,82,o),
(896,78,o),
(907,65,cs),
(931,36,o),
(958,24,o),
(978,24,cs),
(1004,24,o),
(1021,44,o),
(1019,72,cs),
(1017,99,o),
(1017,127,o),
(1017,155,cs),
(1017,287,o),
(1039,406,o),
(1039,469,cs),
(1039,504,o),
(1014,520,o),
(990,520,cs),
(966,520,o),
(944,506,o),
(937,478,cs),
(929,444,o),
(916,389,o),
(862,274,cs),
(790,121,o),
(646,59,o),
(540,59,cs),
(419,59,o),
(290,103,o),
(290,299,cs),
(290,481,o),
(434,563,o),
(594,644,cs),
(779,738,o),
(985,831,o),
(991,1069,cs),
(998,1344,o),
(762,1449,o),
(577,1449,cs),
(418,1449,o),
(339,1398,o),
(312,1398,cs),
(280,1398,o),
(274,1413,o),
(255,1425,cs),
(247,1430,o),
(237,1432,o),
(228,1432,cs),
(202,1432,o),
(173,1414,o),
(173,1394,cs),
(173,1272,o),
(147,1160,o),
(147,1084,cs),
(147,1042,o),
(173,1028,o),
(199,1028,cs),
(219,1028,o),
(241,1039,o),
(243,1051,cs),
(280,1266,o),
(413,1370,o),
(560,1370,cs),
(699,1370,o),
(798,1308,o),
(798,1129,cs),
(798,968,o),
(649,887,o),
(495,797,cs),
(322,696,o),
(84,596,o),
(84,371,cs),
(84,110,o),
(280,-30,o),
(523,-30,cs)
);
},
{
closed = 1;
nodes = (
(1090,613,l),
(1104,619,o),
(1114,661,o),
(1114,686,cs),
(1114,702,o),
(1106,719,o),
(1090,720,c),
(51,720,l),
(37,714,o),
(27,692,o),
(27,667,cs),
(27,651,o),
(35,614,o),
(51,613,c)
);
},
{
closed = 1;
nodes = (
(1091,848,l),
(1105,854,o),
(1115,896,o),
(1115,921,cs),
(1115,937,o),
(1107,954,o),
(1091,955,c),
(52,955,l),
(38,949,o),
(28,927,o),
(28,902,cs),
(28,886,o),
(36,849,o),
(52,848,c)
);
}
);
width = 1149;
},
{
anchors = (
{
name = bottom;
pos = (648,0);
},
{
name = top;
pos = (646,1419);
}
);
layerId = "62CA62AF-CD91-478A-AB8B-28A62CC47DA0";
shapes = (
{
closed = 1;
nodes = (
(784,-30,o),
(905,24,o),
(951,41,cs),
(988,55,o),
(1004,69,o),
(1020,69,cs),
(1037,69,o),
(1048,55,o),
(1056,46,cs),
(1084,14,o),
(1106,5,o),
(1130,5,cs),
(1164,5,o),
(1187,25,o),
(1185,53,cs,{
name = hr01;
}),
(1182,89,o),
(1183,90,o),
(1183,138,cs),
(1183,262,o),
(1198,389,o),
(1198,437,cs),
(1198,493,o),
(1171,507,o),
(1140,507,cs),
(1110,507,o),
(1088,494,o),
(1080,465,cs),
(1071,431,o),
(1054,366,o),
(1012,294,cs),
(933,158,o),
(782,61,o),
(612,61,cs),
(500,61,o),
(393,121,o),
(393,294,cs),
(393,522,o),
(572,544,o),
(745,637,cs),
(921,731,o),
(1167,812,o),
(1167,1053,cs),
(1167,1291,o),
(958,1448,o),
(659,1448,cs),
(477,1448,o),
(415,1396,o),
(357,1396,cs),
(324,1396,o),
(323,1413,o),
(304,1425,cs),
(296,1430,o),
(286,1432,o),
(276,1432,cs),
(243,1432,o),
(205,1415,o),
(205,1394,cs,{
name = hr03;
}),
(203,1289,o),
(180,1118,o),
(180,1086,cs),
(180,1042,o),
(210,1028,o),
(243,1028,cs),
(269,1028,o),
(284,1036,o),
(293,1051,cs),
(294,1053,o),
(336,1360,o),
(644,1360,cs),
(765,1360,o),
(888,1316,o),
(888,1138,cs),
(888,968,o),
(726,899,o),
(555,814,cs),
(348,711,o),
(93,617,o),
(93,382,cs,{
name = hr02;
}),
(93,127,o),
(337,-30,o),
(620,-30,cs)
);
},
{
closed = 1;
nodes = (
(1207,585,l),
(1221,591,o),
(1231,633,o),
(1231,658,cs),
(1231,674,o),
(1223,691,o),
(1207,692,c),
(57,692,l),
(43,686,o),
(33,664,o),
(33,639,cs),
(33,623,o),
(41,586,o),
(57,585,c)
);
},
{
closed = 1;
nodes = (
(1228,848,l),
(1242,854,o),
(1252,896,o),
(1252,921,cs),
(1252,937,o),
(1244,954,o),
(1228,955,c),
(78,955,l),
(64,949,o),
(54,927,o),
(54,902,cs),
(54,886,o),
(62,849,o),
(78,848,c)
);
}
);
width = 1329;
}
);
unicode = 8372;
}
{
glyphname = liraTurkish;
kernLeft = uni20BA;
kernRight = uni20BA;
layers = (
{
layerId = "DD6F9F34-BC40-4E8F-B1D3-DF3B42A9710F";
shapes = (
{
closed = 1;
nodes = (
(1009,323,o),
(751,122,o),
(576,122,c),
(524,122,l),
(525,1267,ls),
(525,1311,o),
(572,1326,o),
(640,1331,cs),
(666,1333,o),
(673,1347,o),
(673,1368,cs),
(673,1383,o),
(662,1419,o),
(639,1419,cs),
(205,1419,ls),
(182,1419,o),
(171,1383,o),
(171,1368,cs),
(171,1338,o),
(179,1334,o),
(207,1331,cs),
(268,1324,o),
(309,1320,o),
(309,1234,cs),
(308,0,l),
(534,0,l),
(956,0,o),
(1208,280,o),
(1208,501,cs),
(1208,601,o),
(1106,629,o),
(1009,629,c)
);
},
{
closed = 1;
nodes = (
(997,1070,o),
(1005,1110,o),
(1005,1126,cs),
(1005,1151,o),
(995,1169,o),
(981,1170,c),
(117,790,l),
(101,783,o),
(93,763,o),
(93,747,cs),
(93,722,o),
(102,684,o),
(117,684,c),
(981,1062,l)
);
},
{
closed = 1;
nodes = (
(1005,781,o),
(1013,822,o),
(1013,837,cs),
(1013,862,o),
(1003,880,o),
(989,881,c),
(125,501,l),
(111,494,o),
(102,475,o),
(102,460,cs),
(102,436,o),
(112,395,o),
(125,394,c),
(990,774,l)
);
}
);
width = 1257;
},
{
layerId = "62CA62AF-CD91-478A-AB8B-28A62CC47DA0";
shapes = (
{
closed = 1;
nodes = (
(1008,387,o),
(793,122,o),
(618,122,c),
(566,122,l),
(567,1267,ls),
(567,1311,o),
(614,1326,o),
(682,1331,cs),
(708,1333,o),
(715,1347,o),
(715,1368,cs),
(715,1383,o),
(704,1419,o),
(681,1419,cs),
(136,1419,ls),
(113,1419,o),
(102,1383,o),
(102,1368,cs),
(102,1338,o),
(110,1334,o),
(138,1331,cs),
(199,1324,o),
(240,1320,o),
(240,1234,cs),
(239,0,l),
(576,0,l),
(998,0,o),
(1270,210,o),
(1270,446,cs),
(1270,546,o),
(1148,629,o),
(1051,629,c)
);
},
{
closed = 1;
nodes = (
(928,1070,o),
(936,1110,o),
(936,1126,cs),
(936,1151,o),
(926,1169,o),
(912,1170,c),
(48,790,l),
(32,783,o),
(24,763,o),
(24,747,cs),
(24,722,o),
(33,684,o),
(48,684,c),
(912,1062,l)
);
},
{
closed = 1;
nodes = (
(936,781,o),
(944,822,o),
(944,837,cs),
(944,862,o),
(934,880,o),
(920,881,c),
(56,501,l),
(42,494,o),
(33,475,o),
(33,460,cs),
(33,436,o),
(43,395,o),
(56,394,c),
(921,774,l)
);
}
);
width = 1300;
}
);
unicode = 8378;
}
{
color = 1;
glyphname = cadauna;
layers = (
{
anchors = (
{
name = bottom;
pos = (461.06,507);
},
{
name = ogonek;
pos = (2233.733,9.873);
},
{
name = top;
pos = (526.779,1467.644);
},
{
name = topright;
pos = (2330.485,981.344);
}
);
layerId = "DD6F9F34-BC40-4E8F-B1D3-DF3B42A9710F";
shapes = (
{
closed = 1;
nodes = (
(661,441,o),
(774,522,o),
(831,636,cs),
(833,640,o),
(837,646,o),
(837,651,cs),
(837,656,o),
(834,659,o),
(826,663,cs),
(778,685,ls),
(766,691,o),
(764,678,o),
(760,670,cs),
(718,587,o),
(631,541,o),
(534,541,cs),
(432,541,o),
(276,641,o),
(276,943,cs),
(276,1247,o),
(383,1356,o),
(539,1356,cs),
(594,1356,o),
(621,1336,o),
(621,1336,c),
(702,1155,ls),
(721,1113,o),
(743,1109,o),
(781,1109,cs),
(815,1109,o),
(850,1143,o),
(850,1201,cs),
(850,1234,o),
(838,1277,o),
(808,1326,cs),
(748,1425,o),
(635,1449,o),
(525,1449,cs),
(268,1449,o),
(69,1265,o),
(69,952,cs),
(69,639,o),
(215,441,o),
(497,441,cs)
);
},
{
closed = 1;
nodes = (
(752,0,l),
(1423,1419,l),
(1286,1419,l),
(617,0,l)
);
},
{
closed = 1;
nodes = (
(1819,-27,o),
(1955,65,o),
(1990,129,c),
(2000,20,o),
(2039,-25,o),
(2104,-25,cs),
(2211,-25,o),
(2281,22,o),
(2294,37,c),
(2298,39,o),
(2300,45,o),
(2300,52,cs),
(2300,72,o),
(2283,102,o),
(2260,95,cs),
(2245,90,o),
(2233,87,o),
(2214,87,cs),
(2192,87,o),
(2174,112,o),
(2174,207,cs),
(2174,946,ls),
(2174,967,o),
(2165,981,o),
(2137,981,cs),
(1838,981,ls),
(1816,981,o),
(1804,956,o),
(1804,941,cs),
(1804,911,o),
(1812,907,o),
(1840,904,cs),
(1906,897,o),
(1990,893,o),
(1990,809,cs),
(1990,217,l),
(1926,148,o),
(1852,112,o),
(1718,112,cs),
(1602,112,o),
(1591,209,o),
(1591,258,cs),
(1591,946,ls),
(1591,967,o),
(1582,981,o),
(1554,981,cs),
(1287,981,ls),
(1265,981,o),
(1253,956,o),
(1253,941,cs),
(1253,911,o),
(1261,907,o),
(1289,904,cs),
(1337,899,o),
(1405,893,o),
(1405,809,cs),
(1405,267,ls),
(1405,22,o),
(1545,-27,o),
(1688,-27,cs)
);
}
);
width = 2369;
},
{
anchors = (
{
name = bottom;
pos = (579,526);
},
{
name = ogonek;
pos = (2551,10);
},
{
name = top;
pos = (672,1481);
},
{
name = topright;
pos = (2668,976);
}
);
layerId = "62CA62AF-CD91-478A-AB8B-28A62CC47DA0";
shapes = (
{
closed = 1;
nodes = (
(767,442,o),
(906,523,o),
(970,636,cs),
(974,643,o),
(976,648,o),
(976,653,cs),
(976,657,o),
(973,661,o),
(967,664,c),
(924,684,l),
(912,687,o),
(905,677,o),
(899,670,cs),
(843,604,o),
(747,571,o),
(646,571,cs),
(524,571,o),
(402,685,o),
(402,941,cs),
(402,1245,o),
(498,1362,o),
(616,1362,cs),
(642,1362,o),
(660,1355,o),
(670,1346,c),
(769,1111,ls),
(779,1087,o),
(821,1053,o),
(868,1053,cs),
(915,1053,o),
(1005,1093,o),
(1005,1195,cs),
(1005,1216,o),
(1003,1231,o),
(992,1258,cs),
(938,1384,o),
(818,1444,o),
(621,1444,cs),
(294,1444,o),
(70,1255,o),
(70,941,cs,{
name = hr00;
}),
(70,639,o),
(237,442,o),
(621,442,cs)
);
},
{
closed = 1;
nodes = (
(879,0,l,{
name = hr00;
}),
(1598,1419,l),
(1451,1419,l),
(734,0,l)
);
},
{
closed = 1;
nodes = (
(2012,-26,o),
(2163,55,o),
(2225,144,c),
(2224,90,o),
(2234,-25,o),
(2365,-25,cs),
(2530,-25,o),
(2617,17,o),
(2646,36,cs),
(2649,38,o),
(2651,45,o),
(2651,53,cs),
(2651,82,o),
(2635,134,o),
(2613,124,cs),
(2599,117,o),
(2581,116,o),
(2562,116,cs),
(2540,116,o),
(2519,126,o),
(2519,218,cs),
(2519,940,ls),
(2519,961,o),
(2509,976,o),
(2483,976,cs),
(2067,976,ls),
(2045,976,o),
(2034,950,o),
(2034,935,cs),
(2034,906,o),
(2042,902,o),
(2069,899,c),
(2132,894,o),
(2209,888,o),
(2209,804,cs),
(2209,234,l),
(2145,165,o),
(2071,125,o),
(1958,125,cs),
(1878,125,o),
(1850,219,o),
(1850,354,cs),
(1850,940,ls),
(1850,961,o),
(1841,976,o),
(1813,976,cs),
(1430,976,ls),
(1408,976,o),
(1396,950,o),
(1396,935,cs),
(1396,906,o),
(1404,902,o),
(1431,899,cs),
(1480,894,o),
(1539,888,o),
(1539,804,cs),
(1539,265,ls,{
name = hr00;
}),
(1539,22,o),
(1682,-26,o),
(1869,-26,cs)
);
}
);
width = 2712;
}
);
metricLeft = c;
metricRight = u;
unicode = 8454;
}
{
glyphname = numero;
layers = (
{
layerId = "DD6F9F34-BC40-4E8F-B1D3-DF3B42A9710F";
shapes = (
{
closed = 1;
nodes = (
(483,0,ls),
(506,0,o),
(517,16,o),
(517,31,cs),
(517,61,o),
(509,65,o),
(481,68,cs),
(420,75,o),
(339,79,o),
(339,165,cs),
(339,1140,l),
(356,1140,l),
(1197,-2,l,{
name = "❌";
}),
(1207,-14,o),
(1230,-24,o),
(1251,-24,cs),
(1279,-24,o),
(1315,-10,o),
(1311,46,cs),
(1308,84,o),
(1305,94,o),
(1305,119,cs),
(1305,1287,ls),
(1305,1331,o),
(1399,1346,o),
(1460,1351,cs),
(1486,1353,o),
(1493,1367,o),
(1493,1388,cs),
(1493,1403,o),
(1482,1419,o),
(1459,1419,cs),
(1054,1419,ls),
(1031,1419,o),
(1020,1403,o),
(1020,1388,cs),
(1020,1358,o),
(1028,1354,o),
(1056,1351,cs),
(1117,1344,o),
(1208,1340,o),
(1208,1254,cs),
(1208,340,l),
(1196,340,l),
(425,1419,l),
(99,1419,ls),
(76,1419,o),
(65,1403,o),
(65,1388,cs),
(65,1358,o),
(73,1354,o),
(101,1351,cs),
(162,1344,o),
(242,1340,o),
(242,1254,cs),
(242,152,ls),
(242,88,o),
(171,73,o),
(107,68,c),
(81,65,o),
(74,52,o),
(74,31,cs),
(74,16,o),
(85,0,o),
(108,0,cs)
);
},
{
closed = 1;
nodes = (
(2209,532,o),
(2366,735,o),
(2366,985,cs),
(2366,1235,o),
(2215,1438,o),
(1949,1438,cs),
(1683,1438,o),
(1524,1235,o),
(1524,985,cs),
(1524,735,o),
(1677,532,o),
(1943,532,cs)
);
},
{
closed = 1;
nodes = (
(1772,626,o),
(1721,764,o),
(1721,985,cs),
(1721,1207,o),
(1768,1346,o),
(1942,1346,cs),
(2117,1346,o),
(2168,1207,o),
(2168,985,cs),
(2168,764,o),
(2119,626,o),
(1946,626,cs)
);
},
{
closed = 1;
nodes = (
(2293,242,l),
(2293,328,l),
(1556,328,l),
(1556,242,l)
);
}
);
width = 2500;
},
{
layerId = "62CA62AF-CD91-478A-AB8B-28A62CC47DA0";
shapes = (
{
closed = 1;
nodes = (
(588,0,ls),
(611,0,o),
(622,36,o),
(622,51,cs),
(622,81,o),
(614,85,o),
(586,88,cs),
(525,95,o),
(384,99,o),
(384,185,cs),
(384,1090,l),
(401,1090,l),
(1252,-8,ls,{
name = hr02;
}),
(1262,-20,o),
(1285,-30,o),
(1306,-30,cs),
(1347,-30,o),
(1420,-12,o),
(1416,40,cs),
(1413,78,o),
(1410,88,o),
(1410,113,cs),
(1410,1239,ls),
(1410,1306,o),
(1524,1324,o),
(1585,1331,cs),
(1611,1334,o),
(1618,1347,o),
(1618,1368,cs),
(1618,1383,o),
(1607,1419,o),
(1584,1419,cs),
(1109,1419,ls),
(1086,1419,o),
(1075,1383,o),
(1075,1368,cs),
(1075,1338,o),
(1083,1334,o),
(1111,1331,cs),
(1172,1324,o),
(1293,1320,o),
(1293,1234,cs),
(1293,467,l),
(1281,467,l),
(522,1419,l),
(94,1419,ls),
(71,1419,o),
(60,1383,o),
(60,1368,cs),
(60,1338,o),
(68,1334,o),
(96,1331,cs),
(157,1324,o),
(257,1320,o),
(257,1234,cs),
(257,172,ls),
(257,108,o),
(136,93,o),
(72,88,c,{
name = hr03;
}),
(46,85,o),
(39,72,o),
(39,51,cs,{
name = hr01;
}),
(39,36,o),
(50,0,o),
(73,0,cs)
);
},
{
closed = 1;
nodes = (
(2363,513,o),
(2524,720,o),
(2524,975,cs),
(2524,1230,o),
(2370,1437,o),
(2098,1437,cs),
(1827,1437,o),
(1664,1230,o),
(1664,975,cs),
(1664,720,o),
(1821,513,o),
(2092,513,cs)
);
},
{
closed = 1;
nodes = (
(1931,627,o),
(1903,767,o),
(1903,975,cs),
(1903,1182,o),
(1927,1324,o),
(2091,1324,cs),
(2255,1324,o),
(2284,1183,o),
(2284,975,cs),
(2284,767,o),
(2258,627,o),
(2095,627,cs)
);
},
{
closed = 1;
nodes = (
(2442,229,l),
(2442,365,l),
(1705,365,l),
(1705,229,l)
);
}
);
width = 2620;
}
);
unicode = 8470;
}
{
glyphname = trademark;
kernLeft = trademark;
kernRight = trademark;
layers = (
{
layerId = "DD6F9F34-BC40-4E8F-B1D3-DF3B42A9710F";
shapes = (
{
closed = 1;
nodes = (
(614,665,ls),
(637,665,o),
(648,681,o),
(648,696,cs),
(648,726,o),
(640,730,o),
(612,733,c),
(531,738,o),
(510,744,o),
(510,830,cs),
(511,1350,l),
(564,1350,ls),
(678,1350,o),
(722,1196,o),
(728,1159,cs),
(732,1133,o),
(744,1126,o),
(765,1126,cs,{
name = hr02;
}),
(780,1126,o),
(806,1137,o),
(806,1160,c),
(802,1249,o),
(781,1419,o),
(746,1419,cs,{
name = hr03;
}),
(79,1419,ls),
(44,1419,o),
(23,1249,o),
(19,1160,c),
(19,1137,o),
(45,1126,o),
(60,1126,cs,{
name = hr04;
}),
(81,1126,o),
(94,1133,o),
(97,1159,cs),
(101,1196,o),
(147,1350,o),
(261,1350,cs,{
name = hr05;
}),
(314,1350,l),
(313,827,ls),
(313,753,o),
(312,738,o),
(218,733,c),
(192,730,o),
(185,717,o),
(185,696,cs),
(185,681,o),
(196,665,o),
(219,665,cs)
);
},
{
closed = 1;
nodes = (
(1215,666,ls),
(1238,666,o),
(1249,682,o),
(1249,697,cs),
(1249,727,o),
(1241,731,o),
(1213,734,cs),
(1164,739,o),
(1101,745,o),
(1101,831,cs),
(1101,1263,l),
(1346,850,l),
(1348,855,l),
(1347,850,l),
(1356,847,o),
(1364,846,o),
(1372,846,cs),
(1380,846,o),
(1389,847,o),
(1397,850,c),
(1621,1351,l),
(1628,1351,l),
(1627,798,ls),
(1627,754,o),
(1586,739,o),
(1552,734,cs),
(1526,730,o),
(1519,726,o),
(1519,705,cs),
(1519,690,o),
(1530,666,o),
(1553,666,cs),
(1902,666,ls),
(1925,666,o),
(1936,682,o),
(1936,697,cs),
(1936,727,o),
(1928,731,o),
(1900,734,cs),
(1863,738,o),
(1818,745,o),
(1818,831,cs),
(1819,1287,ls),
(1819,1331,o),
(1860,1346,o),
(1894,1351,cs),
(1920,1355,o),
(1927,1367,o),
(1927,1388,cs),
(1927,1403,o),
(1916,1419,o),
(1893,1419,cs),
(1554,1419,l),
(1415,1102,l),
(1403,1102,l),
(1225,1419,l),
(891,1419,l),
(868,1418,o),
(857,1403,o),
(857,1388,cs),
(857,1358,o),
(865,1354,o),
(893,1351,cs),
(942,1346,o),
(994,1340,o),
(994,1254,cs),
(994,830,ls),
(994,746,o),
(948,740,o),
(899,734,cs),
(873,731,o),
(866,718,o),
(866,697,cs,{
name = hr01;
}),
(866,682,o),
(877,666,o),
(900,666,cs)
);
}
);
width = 1930;
},
{
layerId = "62CA62AF-CD91-478A-AB8B-28A62CC47DA0";
shapes = (
{
closed = 1;
nodes = (
(614,665,ls),
(637,665,o),
(648,681,o),
(648,696,cs),
(648,726,o),
(640,730,o),
(612,733,c),
(531,738,o),
(510,744,o),
(510,830,cs),
(511,1350,l),
(564,1350,ls),
(678,1350,o),
(722,1196,o),
(728,1159,cs),
(732,1133,o),
(744,1126,o),
(765,1126,cs,{
name = hr02;
}),
(780,1126,o),
(806,1137,o),
(806,1160,c),
(802,1249,o),
(781,1419,o),
(746,1419,cs,{
name = hr03;
}),
(79,1419,ls),
(44,1419,o),
(23,1249,o),
(19,1160,c),
(19,1137,o),
(45,1126,o),
(60,1126,cs,{
name = hr04;
}),
(81,1126,o),
(94,1133,o),
(97,1159,cs),
(101,1196,o),
(147,1350,o),
(261,1350,cs,{
name = hr05;
}),
(314,1350,l),
(313,827,ls),
(313,753,o),
(312,738,o),
(218,733,c),
(192,730,o),
(185,717,o),
(185,696,cs),
(185,681,o),
(196,665,o),
(219,665,cs)
);
},
{
closed = 1;
nodes = (
(1215,666,ls),
(1238,666,o),
(1249,682,o),
(1249,697,cs),
(1249,727,o),
(1241,731,o),
(1213,734,cs),
(1164,739,o),
(1101,745,o),
(1101,831,cs),
(1101,1263,l),
(1346,850,l),
(1348,855,l),
(1347,850,l),
(1356,847,o),
(1364,846,o),
(1372,846,cs),
(1380,846,o),
(1389,847,o),
(1397,850,c),
(1621,1351,l),
(1628,1351,l),
(1627,798,ls),
(1627,754,o),
(1586,739,o),
(1552,734,cs),
(1526,730,o),
(1519,726,o),
(1519,705,cs),
(1519,690,o),
(1530,666,o),
(1553,666,cs),
(1902,666,ls),
(1925,666,o),
(1936,682,o),
(1936,697,cs),
(1936,727,o),
(1928,731,o),
(1900,734,cs),
(1863,738,o),
(1818,745,o),
(1818,831,cs),
(1819,1287,ls),
(1819,1331,o),
(1860,1346,o),
(1894,1351,cs),
(1920,1355,o),
(1927,1367,o),
(1927,1388,cs),
(1927,1403,o),
(1916,1419,o),
(1893,1419,cs),
(1554,1419,l),
(1415,1102,l),
(1403,1102,l),
(1225,1419,l),
(891,1419,l),
(868,1418,o),
(857,1403,o),
(857,1388,cs),
(857,1358,o),
(865,1354,o),
(893,1351,cs),
(942,1346,o),
(994,1340,o),
(994,1254,cs),
(994,830,ls),
(994,746,o),
(948,740,o),
(899,734,cs),
(873,731,o),
(866,718,o),
(866,697,cs,{
name = hr01;
}),
(866,682,o),
(877,666,o),
(900,666,cs)
);
}
);
width = 1940;
}
);
unicode = 8482;
}
{
glyphname = leftArrow;
kernLeft = leftArrow;
kernRight = leftArrow;
layers = (
{
layerId = "DD6F9F34-BC40-4E8F-B1D3-DF3B42A9710F";
shapes = (
{
closed = 1;
nodes = (
(764,242,l),
(413,598,l),
(546,585,l),
(1437,585,l),
(1437,793,l),
(546,793,l),
(413,780,l),
(764,1136,l),
(642,1279,l),
(50,689,l),
(642,99,l)
);
}
);
width = 1487;
},
{
layerId = "62CA62AF-CD91-478A-AB8B-28A62CC47DA0";
shapes = (
{
closed = 1;
nodes = (
(764,242,l),
(413,598,l),
(546,585,l),
(1437,585,l),
(1437,793,l),
(546,793,l),
(413,780,l),
(764,1136,l),
(642,1279,l),
(50,689,l),
(642,99,l)
);
}
);
width = 1487;
}
);
unicode = 8592;
}
{
glyphname = downArrow;
kernLeft = downArrow;
kernRight = downArrow;
layers = (
{
layerId = "DD6F9F34-BC40-4E8F-B1D3-DF3B42A9710F";
shapes = (
{
closed = 1;
nodes = (
(1230,587,l),
(1087,709,l),
(731,358,l),
(744,491,l),
(744,1382,l),
(536,1382,l),
(536,491,l),
(549,358,l),
(193,709,l),
(50,587,l),
(640,-5,l)
);
}
);
width = 1280;
},
{
layerId = "62CA62AF-CD91-478A-AB8B-28A62CC47DA0";
shapes = (
{
closed = 1;
nodes = (
(1230,587,l),
(1087,709,l),
(731,358,l),
(744,491,l),
(744,1382,l),
(536,1382,l),
(536,491,l),
(549,358,l),
(193,709,l),
(50,587,l),
(640,-5,l)
);
}
);
width = 1280;
}
);
unicode = 8595;
}
{
glyphname = product;
kernLeft = product;
kernRight = product;
layers = (
{
layerId = "DD6F9F34-BC40-4E8F-B1D3-DF3B42A9710F";
shapes = (
{
closed = 1;
nodes = (
(669,-415,ls),
(692,-415,o),
(703,-399,o),
(703,-384,cs),
(703,-354,o),
(695,-350,o),
(667,-347,cs),
(606,-342,o),
(505,-336,o),
(505,-250,cs),
(506,1332,l),
(1204,1332,l),
(1203,-283,ls),
(1203,-327,o),
(1112,-342,o),
(1048,-347,c),
(1022,-350,o),
(1015,-363,o),
(1015,-384,cs),
(1015,-399,o),
(1026,-415,o),
(1049,-415,cs),
(1574,-415,ls),
(1597,-415,o),
(1608,-399,o),
(1608,-384,cs),
(1608,-354,o),
(1600,-350,o),
(1572,-347,cs),
(1511,-342,o),
(1410,-336,o),
(1410,-250,cs),
(1411,1287,ls),
(1411,1331,o),
(1502,1346,o),
(1566,1351,c),
(1592,1354,o),
(1599,1367,o),
(1599,1388,cs),
(1599,1403,o),
(1588,1419,o),
(1565,1419,cs),
(135,1419,ls),
(112,1419,o),
(101,1403,o),
(101,1388,cs),
(101,1358,o),
(109,1354,o),
(137,1351,cs),
(198,1346,o),
(299,1340,o),
(299,1254,cs),
(298,-283,ls),
(298,-327,o),
(207,-342,o),
(143,-347,c),
(117,-350,o),
(110,-363,o),
(110,-384,cs),
(110,-399,o),
(121,-415,o),
(144,-415,cs)
);
}
);
width = 1709;
},
{
layerId = "62CA62AF-CD91-478A-AB8B-28A62CC47DA0";
shapes = (
{
closed = 1;
nodes = (
(781,-415,ls),
(804,-415,o),
(815,-399,o),
(815,-384,cs),
(815,-354,o),
(807,-330,o),
(779,-327,cs),
(718,-322,o),
(627,-316,o),
(627,-230,cs),
(628,1312,l),
(1265,1312,l),
(1264,-263,ls),
(1264,-307,o),
(1183,-322,o),
(1119,-327,c),
(1093,-330,o),
(1086,-363,o),
(1086,-384,cs),
(1086,-399,o),
(1097,-415,o),
(1120,-415,cs),
(1775,-415,ls),
(1798,-415,o),
(1809,-399,o),
(1809,-384,cs),
(1809,-354,o),
(1801,-330,o),
(1773,-327,cs),
(1712,-322,o),
(1601,-316,o),
(1601,-230,cs),
(1602,1267,ls),
(1602,1311,o),
(1685,1326,o),
(1747,1331,c),
(1773,1334,o),
(1780,1347,o),
(1780,1368,cs),
(1780,1383,o),
(1769,1419,o),
(1746,1419,cs),
(148,1419,ls),
(125,1419,o),
(114,1383,o),
(114,1368,cs),
(114,1338,o),
(122,1334,o),
(150,1331,cs),
(211,1326,o),
(291,1320,o),
(291,1234,cs),
(290,-263,ls),
(290,-307,o),
(199,-322,o),
(135,-327,c,{
name = hr00;
}),
(109,-330,o),
(102,-363,o),
(102,-384,cs),
(102,-399,o),
(113,-415,o),
(136,-415,cs)
);
}
);
width = 1910;
}
);
unicode = 8719;
}
{
glyphname = summation;
kernLeft = summation;
kernRight = summation;
layers = (
{
layerId = "DD6F9F34-BC40-4E8F-B1D3-DF3B42A9710F";
shapes = (
{
closed = 1;
nodes = (
(1200,-416,l),
(1220,-415,o),
(1235,-402,o),
(1247,-375,c),
(1297,-17,l),
(1297,6,o),
(1271,17,o),
(1256,17,cs),
(1235,17,o),
(1222,10,o),
(1219,-16,cs),
(1214,-59,o),
(1103,-253,o),
(1015,-253,cs),
(267,-253,l),
(824,535,l),
(827,539,o),
(829,543,o),
(829,547,cs),
(829,551,o),
(827,555,o),
(824,559,c),
(341,1336,l),
(948,1336,ls),
(1036,1336,o),
(1150,1092,o),
(1155,1049,cs),
(1158,1023,o),
(1171,1016,o),
(1192,1016,cs),
(1207,1016,o),
(1223,1027,o),
(1223,1050,c),
(1194,1378,l),
(1182,1405,o),
(1167,1418,o),
(1147,1419,c),
(105,1419,ls),
(89,1419,o),
(81,1404,o),
(81,1385,cs),
(81,1368,o),
(88,1348,o),
(107,1316,cs),
(627,452,l),
(103,-293,ls),
(66,-346,o),
(61,-363,o),
(61,-376,cs),
(61,-405,o),
(77,-416,o),
(101,-416,cs)
);
}
);
width = 1444;
},
{
layerId = "62CA62AF-CD91-478A-AB8B-28A62CC47DA0";
shapes = (
{
closed = 1;
nodes = (
(1243,-416,l),
(1263,-415,o),
(1277,-402,o),
(1288,-375,c),
(1385,113,l),
(1384,136,o),
(1337,147,o),
(1322,147,cs),
(1301,147,o),
(1285,138,o),
(1274,114,cs),
(1203,-40,o),
(1169,-123,o),
(1081,-123,cs),
(359,-123,l),
(867,578,ls),
(880,596,o),
(887,610,o),
(887,625,cs),
(887,638,o),
(882,651,o),
(871,668,cs),
(453,1323,l),
(981,1323,ls),
(1124,1323,o),
(1165,1174,o),
(1208,1049,cs),
(1217,1023,o),
(1264,1016,o),
(1285,1016,cs),
(1300,1016,o),
(1336,1027,o),
(1336,1050,c),
(1307,1378,l),
(1295,1405,o),
(1280,1418,o),
(1260,1419,c),
(87,1419,ls),
(67,1419,o),
(54,1401,o),
(54,1377,cs),
(54,1366,o),
(58,1350,o),
(64,1340,cs),
(630,445,l),
(100,-293,l,{
name = hr00;
}),
(64,-347,o),
(58,-363,o),
(58,-376,cs),
(58,-401,o),
(69,-416,o),
(92,-416,cs)
);
}
);
width = 1494;
}
);
unicode = 8721;
}
{
glyphname = "leftanglebracket-math";
kernLeft = uni27E8;
kernRight = uni27E8;
layers = (
{
layerId = "DD6F9F34-BC40-4E8F-B1D3-DF3B42A9710F";
shapes = (
{
closed = 1;
nodes = (
(565,-82,l),
(203,714,l),
(565,1539,l),
(424,1539,l),
(59,717,l),
(433,-82,l)
);
}
);
width = 600;
},
{
layerId = "62CA62AF-CD91-478A-AB8B-28A62CC47DA0";
shapes = (
{
closed = 1;
nodes = (
(565,-82,l),
(203,714,l),
(565,1539,l),
(394,1539,l),
(29,717,l),
(403,-82,l)
);
}
);
width = 600;
}
);
unicode = 10216;
}
{
glyphname = brevebelowcomb.case;
kernLeft = dotbelowcomb;
kernRight = dotbelowcomb;
layers = (
{
anchors = (
{
name = _bottom;
},
{
name = bottom;
pos = (0,-471);
}
);
layerId = "DD6F9F34-BC40-4E8F-B1D3-DF3B42A9710F";
shapes = (
{
closed = 1;
nodes = (
(118,-562,o),
(326,-511,o),
(333,-199,c),
(220,-199,l),
(214,-297,o),
(144,-414,o),
(0,-414,cs),
(-144,-414,o),
(-214,-297,o),
(-220,-199,c),
(-333,-199,l),
(-326,-511,o),
(-118,-562,o),
(0,-562,cs)
);
}
);
width = 0;
},
{
anchors = (
{
name = _bottom;
},
{
name = bottom;
pos = (0,-563);
}
);
layerId = "62CA62AF-CD91-478A-AB8B-28A62CC47DA0";
shapes = (
{
closed = 1;
nodes = (
(168,-572,o),
(366,-501,o),
(353,-199,c),
(220,-199,l),
(214,-317,o),
(144,-374,o),
(0,-374,cs),
(-144,-374,o),
(-214,-317,o),
(-220,-199,c),
(-353,-199,l),
(-366,-501,o),
(-168,-572,o),
(0,-572,cs,{
name = hr00;
})
);
}
);
width = 0;
}
);
}
{
glyphname = brevecomb_acutecomb;
kernLeft = brevecomb;
kernRight = brevecomb;
layers = (
{
anchors = (
{
name = _top;
pos = (0,994);
},
{
name = top;
pos = (0,1553);
}
);
layerId = "DD6F9F34-BC40-4E8F-B1D3-DF3B42A9710F";
shapes = (
{
closed = 1;
nodes = (
(111,1184,o),
(307,1233,o),
(313,1502,c),
(207,1502,l),
(201,1408,o),
(136,1326,o),
(0,1326,cs),
(-136,1326,o),
(-201,1408,o),
(-207,1502,c),
(-313,1502,l),
(-307,1233,o),
(-111,1184,o),
(0,1184,cs)
);
},
{
closed = 1;
nodes = (
(95,1684,o),
(227,1750,o),
(256,1778,cs),
(275,1796,o),
(290,1823,o),
(290,1853,cs),
(290,1873,o),
(283,1895,o),
(264,1915,cs),
(244,1937,o),
(221,1945,o),
(199,1945,cs),
(169,1945,o),
(141,1931,o),
(122,1912,cs),
(94,1884,o),
(9,1743,o),
(-140,1569,c),
(-89,1515,l)
);
}
);
width = 0;
},
{
anchors = (
{
name = _top;
pos = (0,994);
},
{
name = top;
pos = (0,1553);
}
);
layerId = "62CA62AF-CD91-478A-AB8B-28A62CC47DA0";
shapes = (
{
closed = 1;
nodes = (
(158,1180,o),
(344,1247,o),
(332,1501,c),
(207,1501,l),
(201,1387,o),
(136,1366,o),
(0,1366,cs),
(-136,1366,o),
(-201,1390,o),
(-207,1501,c),
(-332,1501,l),
(-344,1247,o),
(-158,1180,o),
(0,1180,cs,{
name = hr00;
})
);
},
{
closed = 1;
nodes = (
(91,1653,o),
(236,1724,o),
(264,1751,cs),
(282,1768,o),
(294,1799,o),
(294,1830,cs),
(294,1857,o),
(286,1884,o),
(265,1906,cs),
(245,1927,o),
(219,1935,o),
(192,1935,cs),
(157,1935,o),
(123,1921,o),
(104,1903,cs),
(76,1876,o),
(-5,1738,o),
(-143,1567,c),
(-93,1515,l,{
name = hr00;
})
);
}
);
width = 0;
}
);
}
{
glyphname = brevecomb_hookabovecomb.case;
kernLeft = brevecomb;
kernRight = brevecomb;
layers = (
{
anchors = (
{
name = _top;
pos = (0,994);
},
{
name = top;
pos = (0,1549);
}
);
background = {
shapes = (
{
closed = 1;
nodes = (
(39,1534,l),
(35,1547,o),
(32,1562,o),
(32,1574,cs),
(32,1601,o),
(44,1623,o),
(55,1634,cs),
(105,1684,o),
(184,1705,o),
(184,1810,cs),
(184,1917,o),
(84,1953,o),
(-12,1953,cs),
(-75,1953,o),
(-120,1940,o),
(-154,1924,cs),
(-173,1915,o),
(-188,1890,o),
(-188,1866,cs),
(-188,1839,o),
(-181,1822,o),
(-162,1822,cs),
(-150,1822,o),
(-112,1841,o),
(-57,1841,cs),
(6,1841,o),
(40,1814,o),
(40,1773,c),
(40,1705,o),
(-80,1692,o),
(-80,1615,c),
(-80,1581,o),
(-68,1561,o),
(-55,1534,c)
);
}
);
};
layerId = "DD6F9F34-BC40-4E8F-B1D3-DF3B42A9710F";
shapes = (
{
closed = 1;
nodes = (
(111,1184,o),
(307,1233,o),
(313,1502,c),
(207,1502,l),
(201,1408,o),
(136,1326,o),
(0,1326,cs),
(-136,1326,o),
(-201,1408,o),
(-207,1502,c),
(-313,1502,l),
(-307,1233,o),
(-111,1184,o),
(0,1184,cs)
);
},
{
closed = 1;
nodes = (
(32,1540,l),
(29,1551,o),
(23,1563,o),
(23,1580,cs),
(23,1609,o),
(38,1627,o),
(89,1665,cs),
(145,1707,o),
(180,1737,o),
(180,1809,cs),
(180,1891,o),
(98,1950,o),
(-11,1950,cs),
(-70,1950,o),
(-124,1931,o),
(-157,1914,cs),
(-165,1910,o),
(-173,1906,o),
(-174,1890,cs),
(-175,1876,o),
(-177,1844,o),
(-177,1829,cs),
(-177,1822,o),
(-173,1818,o),
(-167,1818,cs),
(-151,1818,o),
(-115,1839,o),
(-57,1839,cs),
(11,1839,o),
(40,1811,o),
(40,1779,cs),
(40,1699,o),
(-79,1692,o),
(-79,1611,cs),
(-79,1585,o),
(-70,1563,o),
(-55,1540,c)
);
}
);
width = 0;
},
{
anchors = (
{
name = _top;
pos = (0,994);
},
{
name = top;
pos = (0,1549);
}
);
background = {
shapes = (
{
closed = 1;
nodes = (
(158,1180,o),
(344,1247,o),
(332,1501,c),
(207,1501,l),
(201,1387,o),
(136,1366,o),
(0,1366,cs),
(-136,1366,o),
(-201,1390,o),
(-207,1501,c),
(-332,1501,l),
(-344,1247,o),
(-158,1180,o),
(0,1180,cs,{
name = hr00;
})
);
},
{
closed = 1;
nodes = (
(44,1534,l),
(40,1549,o),
(37,1563,o),
(37,1576,cs),
(37,1605,o),
(49,1628,o),
(63,1638,cs),
(125,1683,o),
(208,1711,o),
(208,1820,cs),
(208,1933,o),
(95,1970,o),
(-13,1970,cs),
(-85,1970,o),
(-135,1956,o),
(-173,1940,cs),
(-195,1931,o),
(-212,1905,o),
(-212,1878,cs),
(-212,1851,o),
(-203,1833,o),
(-182,1833,cs),
(-169,1833,o),
(-126,1854,o),
(-64,1854,cs),
(7,1854,o),
(46,1826,o),
(46,1783,c),
(46,1711,o),
(-89,1699,o),
(-89,1618,c),
(-89,1583,o),
(-76,1562,o),
(-62,1534,c)
);
},
{
closed = 1;
nodes = (
(44,1534,l),
(40,1549,o),
(37,1563,o),
(37,1576,cs),
(37,1605,o),
(49,1628,o),
(63,1638,cs),
(125,1683,o),
(208,1711,o),
(208,1820,cs),
(208,1933,o),
(95,1970,o),
(-13,1970,cs),
(-85,1970,o),
(-135,1956,o),
(-173,1940,cs),
(-195,1931,o),
(-212,1905,o),
(-212,1878,cs),
(-212,1851,o),
(-203,1833,o),
(-182,1833,cs),
(-169,1833,o),
(-126,1854,o),
(-64,1854,cs),
(7,1854,o),
(46,1826,o),
(46,1783,c),
(46,1711,o),
(-89,1699,o),
(-89,1618,c),
(-89,1583,o),
(-76,1562,o),
(-62,1534,c)
);
}
);
};
layerId = "62CA62AF-CD91-478A-AB8B-28A62CC47DA0";
shapes = (
{
closed = 1;
nodes = (
(158,1178,o),
(332,1245,o),
(332,1501,c),
(207,1501,l),
(201,1387,o),
(136,1366,o),
(0,1366,cs),
(-136,1366,o),
(-201,1390,o),
(-207,1501,c),
(-332,1501,l),
(-332,1245,o),
(-158,1178,o),
(0,1178,cs,{
name = hr00;
})
);
},
{
closed = 1;
nodes = (
(52,1547,l),
(46,1559,o),
(43,1571,o),
(43,1584,cs),
(43,1617,o),
(60,1638,o),
(110,1669,cs),
(176,1710,o),
(213,1750,o),
(213,1826,cs),
(213,1914,o),
(118,1973,o),
(0,1973,cs),
(-82,1973,o),
(-144,1946,o),
(-171,1931,cs),
(-185,1923,o),
(-186,1913,o),
(-189,1891,cs),
(-192,1871,o),
(-193,1843,o),
(-193,1823,cs),
(-193,1816,o),
(-190,1812,o),
(-182,1812,cs),
(-170,1812,o),
(-122,1839,o),
(-60,1839,cs),
(-1,1839,o),
(35,1818,o),
(35,1784,cs),
(35,1714,o),
(-75,1712,o),
(-75,1618,cs),
(-75,1590,o),
(-67,1572,o),
(-53,1547,c)
);
}
);
width = 0;
}
);
}
{
glyphname = bullet.case;
kernLeft = bullet;
kernRight = bullet;
layers = (
{
layerId = "DD6F9F34-BC40-4E8F-B1D3-DF3B42A9710F";
shapes = (
{
closed = 1;
nodes = (
(145,439,o),
(252,336,o),
(401,336,cs),
(550,336,o),
(658,439,o),
(658,601,cs),
(658,763,o),
(550,866,o),
(401,866,cs),
(252,866,o),
(145,763,o),
(145,601,cs)
);
}
);
width = 804;
},
{
layerId = "62CA62AF-CD91-478A-AB8B-28A62CC47DA0";
shapes = (
{
closed = 1;
nodes = (
(631,246,o),
(764,373,o),
(764,573,cs),
(764,773,o),
(631,900,o),
(447,900,cs),
(263,900,o),
(131,773,o),
(131,573,cs),
(131,403,o),
(263,246,o),
(447,246,cs,{
name = hr00;
})
);
}
);
width = 895;
}
);
}
{
glyphname = cedillacomb.case;
kernLeft = cedilla;
kernRight = cedilla;
layers = (
{
anchors = (
{
name = _bottom;
pos = (226,0);
}
);
background = {
anchors = (
{
name = _bottom;
pos = (233,0);
}
);
shapes = (
{
closed = 1;
nodes = (
(399,-488,o),
(483,-387,o),
(483,-292,cs),
(483,-206,o),
(407,-134,o),
(274,-121,c,{
name = hr03;
}),
(310,18,l),
(193,18,l,{
name = hr01;
}),
(160,-182,l),
(266,-183,o),
(316,-232,o),
(316,-281,cs,{
name = hr02;
}),
(316,-339,o),
(266,-374,o),
(199,-374,cs),
(137,-374,o),
(99,-357,o),
(77,-349,cs),
(66,-345,o),
(60,-346,o),
(55,-356,cs),
(47,-371,o),
(33,-396,o),
(23,-417,cs),
(19,-425,o),
(19,-433,o),
(28,-439,cs),
(64,-463,o),
(128,-488,o),
(213,-488,cs)
);
}
);
};
layerId = "DD6F9F34-BC40-4E8F-B1D3-DF3B42A9710F";
shapes = (
{
alignment = -1;
pos = (233,0);
ref = cedillacomb;
}
);
width = 503;
},
{
anchors = (
{
name = _bottom;
pos = (241,0);
}
);
background = {
anchors = (
{
name = _bottom;
pos = (273,0);
}
);
shapes = (
{
closed = 1;
nodes = (
(436,-498,o),
(541,-411,o),
(541,-287,cs),
(541,-184,o),
(456,-108,o),
(306,-100,c,{
name = hr03;
}),
(339,18,l),
(192,18,l,{
name = hr01;
}),
(158,-192,l),
(279,-190,o),
(336,-235,o),
(336,-283,cs,{
name = hr02;
}),
(336,-335,o),
(289,-374,o),
(211,-374,cs),
(156,-374,o),
(111,-358,o),
(72,-342,cs),
(62,-338,o),
(58,-342,o),
(54,-350,cs),
(45,-368,o),
(27,-405,o),
(22,-417,cs),
(18,-426,o),
(20,-432,o),
(28,-437,cs),
(58,-457,o),
(144,-498,o),
(256,-498,cs)
);
}
);
};
layerId = "62CA62AF-CD91-478A-AB8B-28A62CC47DA0";
shapes = (
{
alignment = -1;
pos = (20,0);
ref = cedillacomb;
}
);
width = 561;
}
);
}
{
glyphname = circumflexcomb_acutecomb.case;
layers = (
{
anchors = (
{
name = _top;
pos = (-2,994);
},
{
name = top;
pos = (-2,1549);
}
);
layerId = "DD6F9F34-BC40-4E8F-B1D3-DF3B42A9710F";
shapes = (
{
closed = 1;
nodes = (
(441,1543,o),
(553,1600,o),
(579,1623,cs),
(596,1638,o),
(608,1662,o),
(608,1687,cs),
(608,1705,o),
(602,1723,o),
(586,1741,cs),
(570,1760,o),
(549,1766,o),
(530,1766,cs),
(505,1766,o),
(481,1754,o),
(464,1738,cs),
(439,1715,o),
(367,1593,o),
(240,1444,c),
(283,1398,l)
);
},
{
closed = 1;
nodes = (
(-224,1140,l),
(-2,1341,l),
(225,1140,l),
(338,1140,l),
(93,1429,l),
(71,1462,o),
(47,1489,o),
(-2,1489,cs),
(-50,1489,o),
(-75,1466,o),
(-97,1438,c),
(-342,1140,l)
);
}
);
width = 0;
},
{
anchors = (
{
name = _top;
pos = (0,994);
},
{
name = top;
pos = (0,1475);
}
);
layerId = "62CA62AF-CD91-478A-AB8B-28A62CC47DA0";
shapes = (
{
closed = 1;
nodes = (
(446,1526,o),
(576,1590,o),
(601,1615,cs),
(617,1631,o),
(628,1657,o),
(628,1685,cs),
(628,1710,o),
(621,1734,o),
(602,1754,cs),
(584,1773,o),
(561,1781,o),
(536,1781,cs),
(505,1781,o),
(474,1768,o),
(457,1751,cs),
(432,1726,o),
(359,1602,o),
(234,1448,c),
(280,1401,l,{
name = hr00;
})
);
},
{
closed = 1;
nodes = (
(-222,1140,l),
(0,1321,l),
(227,1140,l),
(370,1140,l),
(127,1439,ls),
(102,1469,o),
(69,1499,o),
(0,1499,cs),
(-68,1499,o),
(-101,1475,o),
(-123,1448,cs),
(-370,1140,l,{
name = hr00;
})
);
}
);
width = 0;
}
);
}
{
glyphname = circumflexcomb_tildecomb.case;
kernLeft = circumflexcomb;
kernRight = circumflexcomb;
layers = (
{
anchors = (
{
name = _top;
pos = (0,994);
}
);
layerId = "DD6F9F34-BC40-4E8F-B1D3-DF3B42A9710F";
shapes = (
{
closed = 1;
nodes = (
(174,1605,o),
(274,1693,o),
(274,1768,cs),
(274,1772,o),
(274,1776,o),
(273,1778,cs),
(266,1793,o),
(247,1806,o),
(238,1804,c),
(215,1793,o),
(192,1732,o),
(130,1732,cs),
(107,1732,o),
(81,1739,o),
(47,1759,cs),
(-2,1788,o),
(-41,1825,o),
(-103,1825,cs,{
name = hr03;
}),
(-163,1825,o),
(-233,1772,o),
(-269,1701,cs),
(-271,1697,o),
(-273,1689,o),
(-273,1681,cs),
(-273,1672,o),
(-272,1664,o),
(-269,1658,cs),
(-263,1645,o),
(-247,1633,o),
(-237,1633,cs),
(-236,1633,o),
(-230,1634,o),
(-225,1640,c,{
name = hr01;
}),
(-205,1658,o),
(-197,1699,o),
(-141,1699,cs),
(-121,1699,o),
(-94,1692,o),
(-59,1671,c),
(-7,1645,o),
(33,1605,o),
(97,1605,cs,{
name = hr02;
})
);
},
{
closed = 1;
nodes = (
(-224,1140,l),
(-2,1341,l),
(225,1140,l),
(338,1140,l),
(93,1429,l),
(71,1462,o),
(47,1489,o),
(-2,1489,cs),
(-50,1489,o),
(-75,1466,o),
(-97,1438,c),
(-342,1140,l)
);
}
);
width = 0;
},
{
anchors = (
{
name = _top;
pos = (0,994);
}
);
layerId = "62CA62AF-CD91-478A-AB8B-28A62CC47DA0";
shapes = (
{
closed = 1;
nodes = (
(190,1604,o),
(298,1699,o),
(298,1781,cs),
(298,1786,o),
(298,1789,o),
(297,1792,cs),
(291,1809,o),
(268,1822,o),
(258,1820,c),
(234,1810,o),
(209,1742,o),
(141,1742,cs),
(116,1742,o),
(88,1750,o),
(52,1771,cs),
(-3,1803,o),
(-45,1842,o),
(-111,1842,cs,{
name = hr03;
}),
(-177,1842,o),
(-248,1782,o),
(-293,1708,cs),
(-296,1703,o),
(-297,1695,o),
(-297,1686,cs),
(-297,1676,o),
(-296,1667,o),
(-292,1662,cs),
(-282,1649,o),
(-269,1634,o),
(-259,1634,cs),
(-257,1634,o),
(-250,1636,o),
(-245,1642,c,{
name = hr01;
}),
(-223,1662,o),
(-216,1706,o),
(-154,1706,cs),
(-132,1706,o),
(-103,1697,o),
(-64,1675,c),
(-8,1647,o),
(36,1604,o),
(106,1604,cs,{
name = hr02;
})
);
},
{
closed = 1;
nodes = (
(-222,1140,l),
(0,1321,l),
(227,1140,l),
(370,1140,l),
(127,1439,ls),
(102,1469,o),
(69,1499,o),
(0,1499,cs),
(-68,1499,o),
(-101,1475,o),
(-123,1448,cs),
(-370,1140,l,{
name = hr00;
})
);
}
);
width = 0;
}
);
}
{
glyphname = circumflexcomb_tildecomb;
kernLeft = circumflexcomb;
kernRight = circumflexcomb;
layers = (
{
anchors = (
{
name = _top;
pos = (0,994);
}
);
layerId = "DD6F9F34-BC40-4E8F-B1D3-DF3B42A9710F";
shapes = (
{
closed = 1;
nodes = (
(186,1617,o),
(294,1719,o),
(294,1807,cs),
(294,1812,o),
(293,1816,o),
(292,1819,cs),
(287,1837,o),
(264,1853,o),
(255,1849,cs),
(230,1838,o),
(206,1765,o),
(138,1765,cs),
(114,1765,o),
(86,1773,o),
(50,1796,cs),
(-3,1830,o),
(-45,1873,o),
(-112,1873,cs,{
name = hr03;
}),
(-176,1873,o),
(-258,1815,o),
(-291,1729,cs),
(-293,1724,o),
(-295,1715,o),
(-295,1705,cs),
(-295,1695,o),
(-293,1686,o),
(-291,1679,cs),
(-284,1663,o),
(-267,1649,o),
(-257,1649,cs),
(-255,1649,o),
(-249,1651,o),
(-243,1657,cs,{
name = hr01;
}),
(-221,1679,o),
(-213,1726,o),
(-153,1726,cs),
(-131,1726,o),
(-103,1716,o),
(-65,1694,cs),
(-9,1661,o),
(34,1617,o),
(103,1617,cs,{
name = hr02;
})
);
},
{
closed = 1;
nodes = (
(-224,1140,l),
(-2,1341,l),
(225,1140,l),
(338,1140,l),
(93,1429,l),
(71,1462,o),
(47,1489,o),
(-2,1489,cs),
(-50,1489,o),
(-75,1466,o),
(-97,1438,c),
(-342,1140,l)
);
}
);
width = 0;
},
{
anchors = (
{
name = _top;
pos = (0,994);
}
);
layerId = "62CA62AF-CD91-478A-AB8B-28A62CC47DA0";
shapes = (
{
closed = 1;
nodes = (
(204,1614,o),
(327,1725,o),
(327,1821,cs),
(327,1826,o),
(326,1830,o),
(325,1833,cs),
(319,1853,o),
(288,1870,o),
(278,1866,cs),
(251,1856,o),
(225,1775,o),
(151,1775,cs),
(125,1775,o),
(95,1784,o),
(55,1809,cs),
(-3,1845,o),
(-49,1892,o),
(-120,1892,cs,{
name = hr03;
}),
(-191,1892,o),
(-279,1826,o),
(-321,1736,cs),
(-323,1730,o),
(-325,1720,o),
(-325,1710,cs),
(-325,1698,o),
(-318,1688,o),
(-315,1682,cs),
(-304,1666,o),
(-290,1649,o),
(-279,1649,cs),
(-272,1649,o),
(-266,1652,o),
(-260,1658,cs,{
name = hr01;
}),
(-236,1682,o),
(-232,1733,o),
(-166,1733,cs),
(-142,1733,o),
(-112,1722,o),
(-69,1697,cs),
(-9,1663,o),
(39,1614,o),
(114,1614,cs,{
name = hr02;
})
);
},
{
closed = 1;
nodes = (
(-222,1140,l),
(0,1321,l),
(227,1140,l),
(370,1140,l),
(127,1439,ls),
(102,1469,o),
(69,1499,o),
(0,1499,cs),
(-68,1499,o),
(-101,1475,o),
(-123,1448,cs),
(-370,1140,l,{
name = hr00;
})
);
}
);
width = 0;
}
);
}
{
glyphname = commaaccentcomb.case;
kernLeft = commaaccent;
kernRight = commaaccent;
layers = (
{
anchors = (
{
name = _bottom;
pos = (161,0);
},
{
name = bottom;
pos = (161,-563);
}
);
layerId = "DD6F9F34-BC40-4E8F-B1D3-DF3B42A9710F";
shapes = (
{
closed = 1;
nodes = (
(88,-151,o),
(30,-199,o),
(30,-282,cs,{
name = hr00;
}),
(30,-351,o),
(90,-410,o),
(181,-406,c),
(165,-374,l),
(156,-467,o),
(111,-518,o),
(32,-545,c),
(62,-603,l),
(223,-550,o),
(295,-435,o),
(295,-317,cs),
(295,-208,o),
(235,-151,o),
(153,-151,cs)
);
}
);
width = 325;
},
{
anchors = (
{
name = _bottom;
pos = (177,0);
},
{
name = bottom;
pos = (177,-563);
}
);
background = {
shapes = (
{
closed = 1;
nodes = (
(395,-306,o),
(499,-296,o),
(509,-303,c),
(517,-319,o),
(501,-375,o),
(489,-390,cs),
(473,-410,o),
(466,-422,o),
(466,-434,cs),
(466,-455,o),
(478,-478,o),
(528,-478,cs),
(537,-478,o),
(546,-475,o),
(553,-472,cs),
(648,-431,o),
(716,-344,o),
(716,-234,cs),
(716,-108,o),
(639,-79,o),
(564,-79,cs),
(463,-79,o),
(395,-108,o),
(395,-185,cs,{
name = hr00;
})
);
}
);
};
layerId = "62CA62AF-CD91-478A-AB8B-28A62CC47DA0";
shapes = (
{
closed = 1;
nodes = (
(89,-129,o),
(29,-189,o),
(29,-263,cs,{
name = hr00;
}),
(29,-344,o),
(81,-400,o),
(195,-403,c),
(178,-370,l),
(176,-466,o),
(125,-509,o),
(42,-530,c),
(78,-601,l),
(252,-573,o),
(327,-436,o),
(327,-317,cs),
(327,-193,o),
(257,-129,o),
(164,-129,cs)
);
}
);
width = 354;
}
);
}
{
glyphname = dblgravecomb.case;
kernLeft = hungarumlautcomb;
kernRight = hungarumlautcomb;
layers = (
{
anchors = (
{
name = _top;
pos = (0,994);
},
{
name = top;
pos = (0,1613);
}
);
layerId = "DD6F9F34-BC40-4E8F-B1D3-DF3B42A9710F";
shapes = (
{
closed = 1;
nodes = (
(-107,1149,l),
(-248,1364,o),
(-325,1529,o),
(-351,1564,cs),
(-371,1591,o),
(-402,1613,o),
(-438,1613,cs),
(-457,1613,o),
(-477,1607,o),
(-498,1591,cs),
(-526,1570,o),
(-536,1546,o),
(-536,1521,cs),
(-536,1494,o),
(-523,1468,o),
(-507,1447,cs),
(-480,1412,o),
(-334,1313,o),
(-171,1101,c)
);
},
{
closed = 1;
nodes = (
(257,1149,l),
(116,1364,o),
(58,1530,o),
(32,1564,cs),
(12,1590,o),
(-19,1613,o),
(-55,1613,cs),
(-74,1613,o),
(-94,1607,o),
(-114,1591,cs),
(-140,1571,o),
(-150,1548,o),
(-150,1524,cs),
(-150,1496,o),
(-136,1469,o),
(-120,1447,cs),
(-94,1412,o),
(30,1313,o),
(193,1101,c)
);
}
);
width = 0;
},
{
anchors = (
{
name = _top;
pos = (-2,994);
},
{
name = top;
pos = (-2,1606);
}
);
layerId = "62CA62AF-CD91-478A-AB8B-28A62CC47DA0";
shapes = (
{
closed = 1;
nodes = (
(-131,1149,l),
(-272,1364,o),
(-331,1529,o),
(-356,1564,c),
(-375,1588,o),
(-405,1606,o),
(-439,1606,cs),
(-460,1606,o),
(-484,1599,o),
(-507,1581,cs),
(-538,1557,o),
(-551,1525,o),
(-551,1495,cs),
(-551,1469,o),
(-542,1445,o),
(-528,1427,c),
(-502,1392,o),
(-378,1293,o),
(-215,1081,c,{
name = hr00;
})
);
},
{
closed = 1;
nodes = (
(303,1149,l),
(162,1364,o),
(104,1530,o),
(78,1564,cs),
(59,1588,o),
(29,1606,o),
(-5,1606,cs),
(-26,1606,o),
(-50,1599,o),
(-73,1581,cs),
(-104,1557,o),
(-117,1526,o),
(-117,1496,cs),
(-117,1470,o),
(-108,1445,o),
(-94,1427,cs),
(-68,1392,o),
(56,1293,o),
(219,1081,c)
);
}
);
width = 0;
}
);
}
{
glyphname = dotaccentcomb.case;
kernLeft = dotaccent.cap;
kernRight = dotaccent.cap;
layers = (
{
anchors = (
{
name = _top;
pos = (0,994);
},
{
name = top;
pos = (0,1325);
}
);
layerId = "DD6F9F34-BC40-4E8F-B1D3-DF3B42A9710F";
shapes = (
{
closed = 1;
nodes = (
(73,1161,o),
(121,1222,o),
(121,1300,cs),
(121,1378,o),
(73,1439,o),
(0,1439,cs),
(-74,1439,o),
(-121,1378,o),
(-121,1300,cs),
(-121,1222,o),
(-74,1161,o),
(0,1161,cs)
);
}
);
width = 0;
},
{
anchors = (
{
name = _top;
pos = (0,994);
},
{
name = top;
pos = (0,1368);
}
);
layerId = "62CA62AF-CD91-478A-AB8B-28A62CC47DA0";
shapes = (
{
closed = 1;
nodes = (
(103,1150,o),
(188,1225,o),
(188,1333,cs),
(188,1441,o),
(103,1517,o),
(0,1517,cs),
(-104,1517,o),
(-188,1441,o),
(-188,1333,cs),
(-188,1225,o),
(-104,1150,o),
(0,1150,cs)
);
}
);
width = 600;
}
);
}
{
glyphname = dotbelowcomb.case;
kernLeft = dotbelowcomb;
kernRight = dotbelowcomb;
layers = (
{
anchors = (
{
name = _bottom;
},
{
name = bottom;
pos = (0,-471);
}
);
layerId = "DD6F9F34-BC40-4E8F-B1D3-DF3B42A9710F";
shapes = (
{
closed = 1;
nodes = (
(73,-414,o),
(121,-353,o),
(121,-275,cs),
(121,-197,o),
(73,-136,o),
(0,-136,cs),
(-74,-136,o),
(-121,-197,o),
(-121,-275,cs),
(-121,-353,o),
(-74,-414,o),
(0,-414,cs)
);
}
);
width = 0;
},
{
anchors = (
{
name = _bottom;
},
{
name = bottom;
pos = (0,-563);
}
);
layerId = "62CA62AF-CD91-478A-AB8B-28A62CC47DA0";
shapes = (
{
closed = 1;
nodes = (
(103,-483,o),
(188,-408,o),
(188,-300,cs),
(188,-192,o),
(103,-116,o),
(0,-116,cs),
(-104,-116,o),
(-188,-192,o),
(-188,-300,cs),
(-188,-408,o),
(-104,-483,o),
(0,-483,cs)
);
}
);
width = 0;
}
);
}
{
glyphname = eight.dnom;
kernLeft = eight.dnom;
kernRight = eight.dnom;
layers = (
{
layerId = "DD6F9F34-BC40-4E8F-B1D3-DF3B42A9710F";
shapes = (
{
closed = 1;
nodes = (
(749,-25,o),
(886,95,o),
(886,243,cs),
(886,391,o),
(767,461,o),
(644,528,c),
(732,565,o),
(838,645,o),
(838,754,cs),
(838,887,o),
(741,982,o),
(517,982,cs),
(302,982,o),
(188,868,o),
(188,754,cs),
(188,639,o),
(254,565,o),
(359,497,c),
(267,468,o),
(138,391,o),
(138,253,cs),
(138,92,o),
(272,-25,o),
(516,-25,cs)
);
},
{
closed = 1;
nodes = (
(428,641,o),
(347,695,o),
(347,773,cs),
(347,875,o),
(412,916,o),
(516,916,cs),
(632,916,o),
(675,845,o),
(675,761,cs),
(675,646,o),
(627,585,o),
(582,558,c)
);
},
{
closed = 1;
nodes = (
(367,41,o),
(310,155,o),
(310,252,cs),
(310,359,o),
(360,433,o),
(412,464,c),
(555,401,o),
(714,327,o),
(714,208,cs),
(714,101,o),
(640,41,o),
(520,41,cs)
);
}
);
width = 1024;
},
{
layerId = "62CA62AF-CD91-478A-AB8B-28A62CC47DA0";
shapes = (
{
closed = 1;
nodes = (
(798,-21,o),
(980,121,o),
(980,270,cs),
(980,447,o),
(855,489,o),
(706,559,c),
(812,588,o),
(931,657,o),
(931,764,cs,{
name = hr02;
}),
(931,895,o),
(812,986,o),
(561,986,cs),
(299,986,o),
(197,843,o),
(197,724,cs),
(197,606,o),
(274,540,o),
(376,472,c),
(290,458,o),
(134,392,o),
(134,244,cs,{
name = hr01;
}),
(134,63,o),
(317,-21,o),
(559,-21,cs)
);
},
{
closed = 1;
nodes = (
(468,663,o),
(409,721,o),
(409,801,cs,{
name = hr04;
}),
(409,896,o),
(463,921,o),
(559,921,cs),
(668,921,o),
(712,850,o),
(712,771,cs),
(712,664,o),
(674,613,o),
(639,589,c)
);
},
{
closed = 1;
nodes = (
(459,44,o),
(370,118,o),
(370,257,cs,{
name = hr05;
}),
(370,350,o),
(405,410,o),
(423,444,c),
(500,399,o),
(759,324,o),
(759,208,cs),
(759,102,o),
(681,44,o),
(570,44,cs)
);
}
);
width = 1130;
}
);
}
{
glyphname = five.dnom;
kernLeft = five.dnom;
kernRight = five.dnom;
layers = (
{
layerId = "DD6F9F34-BC40-4E8F-B1D3-DF3B42A9710F";
shapes = (
{
closed = 1;
nodes = (
(676,-25,o),
(857,119,o),
(857,344,cs),
(857,513,o),
(742,631,o),
(526,631,cs),
(448,631,o),
(361,603,o),
(308,572,c),
(353,811,l),
(805,811,l),
(814,968,l),
(273,968,l),
(209,476,l),
(258,453,l),
(305,516,o),
(392,551,o),
(474,551,cs),
(591,551,o),
(660,471,o),
(660,338,cs),
(660,144,o),
(584,34,o),
(437,39,cs),
(321,43,o),
(288,97,o),
(288,97,c),
(321,247,l),
(315,273,o),
(283,289,o),
(239,289,cs),
(205,289,o),
(143,247,o),
(143,177,cs),
(143,46,o),
(300,-25,o),
(433,-25,cs)
);
}
);
width = 1024;
},
{
layerId = "62CA62AF-CD91-478A-AB8B-28A62CC47DA0";
shapes = (
{
closed = 1;
nodes = (
(854,-24,o),
(986,136,o),
(986,324,cs),
(986,464,o),
(864,602,o),
(611,602,cs),
(481,602,o),
(358,557,o),
(295,510,c),
(336,771,l),
(912,771,l),
(926,968,l),
(263,968,l),
(203,434,l),
(250,410,l),
(308,465,o),
(412,518,o),
(501,518,cs),
(648,518,o),
(706,428,o),
(706,303,cs),
(706,124,o),
(623,50,o),
(489,50,cs),
(389,50,o),
(317,94,o),
(292,119,c),
(333,268,l),
(328,282,o),
(311,313,o),
(256,313,cs),
(222,313,o),
(157,279,o),
(157,197,cs,{
name = hr00;
}),
(157,54,o),
(354,-24,o),
(528,-24,cs)
);
}
);
width = 1130;
}
);
}
{
glyphname = four.lf;
kernLeft = four.lf;
kernRight = four.lf;
layers = (
{
layerId = "DD6F9F34-BC40-4E8F-B1D3-DF3B42A9710F";
shapes = (
{
closed = 1;
nodes = (
(875,0,l,{
name = "❌";
}),
(875,318,l),
(1097,318,l),
(1107,482,l),
(875,482,l),
(875,850,l),
(712,840,l),
(712,482,l),
(225,482,l),
(789,1307,l),
(789,1362,o),
(701,1445,o),
(638,1445,cs),
(603,1445,o),
(582,1424,o),
(577,1412,c),
(59,453,l),
(50,440,o),
(41,417,o),
(41,391,cs),
(41,353,o),
(59,318,o),
(74,318,c),
(712,318,l),
(712,0,l,{
name = "❌";
})
);
}
);
width = 1157;
},
{
layerId = "62CA62AF-CD91-478A-AB8B-28A62CC47DA0";
shapes = (
{
closed = 1;
nodes = (
(1039,0,l),
(1039,290,l),
(1237,290,l),
(1250,454,l),
(1039,454,l),
(1039,836,l),
(746,804,l),
(746,454,l),
(313,454,l),
(871,1259,l),
(871,1318,o),
(768,1435,o),
(654,1435,cs),
(622,1435,o),
(596,1424,o),
(570,1389,c),
(80,415,ls),
(67,390,o),
(69,373,o),
(69,352,cs),
(69,321,o),
(83,290,o),
(92,290,c),
(746,290,l),
(746,0,l)
);
}
);
width = 1329;
}
);
}
{
glyphname = gravecomb.case;
kernLeft = gravecomb;
kernRight = gravecomb;
layers = (
{
anchors = (
{
name = _top;
pos = (-25,994);
},
{
name = top;
pos = (-25,1567);
}
);
layerId = "DD6F9F34-BC40-4E8F-B1D3-DF3B42A9710F";
shapes = (
{
closed = 1;
nodes = (
(143,1159,l),
(-21,1348,o),
(-116,1501,o),
(-147,1531,cs),
(-168,1551,o),
(-199,1567,o),
(-232,1567,cs),
(-256,1567,o),
(-282,1557,o),
(-304,1534,cs),
(-325,1512,o),
(-333,1489,o),
(-333,1467,cs),
(-333,1435,o),
(-316,1406,o),
(-294,1386,cs),
(-262,1357,o),
(-117,1284,o),
(87,1101,c)
);
}
);
width = 0;
},
{
anchors = (
{
name = _top;
pos = (-73,994);
},
{
name = top;
pos = (-73,1587);
}
);
layerId = "62CA62AF-CD91-478A-AB8B-28A62CC47DA0";
shapes = (
{
closed = 1;
nodes = (
(79,1179,l),
(-75,1368,o),
(-164,1521,o),
(-195,1551,cs),
(-216,1571,o),
(-254,1587,o),
(-292,1587,cs),
(-322,1587,o),
(-351,1577,o),
(-373,1554,cs),
(-396,1530,o),
(-405,1499,o),
(-405,1470,cs),
(-405,1435,o),
(-392,1401,o),
(-372,1383,cs),
(-340,1354,o),
(-181,1274,o),
(23,1121,c,{
name = hr00;
})
);
}
);
width = 0;
}
);
}
{
glyphname = hungarumlautcomb.case;
kernLeft = hungarumlautcomb;
kernRight = hungarumlautcomb;
layers = (
{
anchors = (
{
name = _top;
pos = (0,994);
},
{
name = top;
pos = (0,1613);
}
);
layerId = "DD6F9F34-BC40-4E8F-B1D3-DF3B42A9710F";
shapes = (
{
closed = 1;
nodes = (
(332,1313,o),
(478,1412,o),
(505,1447,cs),
(521,1468,o),
(534,1494,o),
(534,1521,cs),
(534,1546,o),
(524,1570,o),
(496,1591,cs),
(475,1607,o),
(455,1613,o),
(436,1613,cs),
(400,1613,o),
(369,1591,o),
(349,1564,cs),
(323,1529,o),
(246,1364,o),
(105,1149,c),
(169,1101,l)
);
},
{
closed = 1;
nodes = (
(-32,1313,o),
(92,1412,o),
(118,1447,cs),
(134,1469,o),
(148,1496,o),
(148,1524,cs),
(148,1548,o),
(138,1571,o),
(112,1591,cs),
(92,1607,o),
(72,1613,o),
(53,1613,cs),
(17,1613,o),
(-14,1590,o),
(-34,1564,cs),
(-60,1530,o),
(-118,1364,o),
(-259,1149,c),
(-195,1101,l)
);
}
);
width = 0;
},
{
anchors = (
{
name = _top;
pos = (0,994);
},
{
name = top;
pos = (0,1606);
}
);
layerId = "62CA62AF-CD91-478A-AB8B-28A62CC47DA0";
shapes = (
{
closed = 1;
nodes = (
(370,1293,o),
(494,1392,o),
(520,1427,c),
(534,1445,o),
(543,1469,o),
(543,1495,cs),
(543,1525,o),
(530,1557,o),
(499,1581,cs),
(476,1599,o),
(452,1606,o),
(431,1606,cs),
(397,1606,o),
(367,1588,o),
(348,1564,c),
(323,1529,o),
(264,1364,o),
(123,1149,c),
(207,1081,l,{
name = hr00;
})
);
},
{
closed = 1;
nodes = (
(-64,1293,o),
(60,1392,o),
(86,1427,cs),
(100,1445,o),
(109,1470,o),
(109,1496,cs),
(109,1526,o),
(96,1557,o),
(65,1581,cs),
(42,1599,o),
(18,1606,o),
(-3,1606,cs),
(-37,1606,o),
(-67,1588,o),
(-86,1564,cs),
(-112,1530,o),
(-170,1364,o),
(-311,1149,c),
(-227,1081,l)
);
}
);
width = 0;
}
);
}
{
glyphname = macronbelowcomb.case;
layers = (
{
anchors = (
{
name = _bottom;
}
);
layerId = "DD6F9F34-BC40-4E8F-B1D3-DF3B42A9710F";
shapes = (
{
closed = 1;
nodes = (
(295,-328,l),
(295,-180,l),
(-292,-180,l),
(-292,-328,l,{
name = hr00;
})
);
}
);
width = 0;
},
{
anchors = (
{
name = _bottom;
}
);
layerId = "62CA62AF-CD91-478A-AB8B-28A62CC47DA0";
shapes = (
{
closed = 1;
nodes = (
(305,-328,l),
(305,-177,l),
(-302,-177,l),
(-302,-328,l,{
name = hr00;
})
);
}
);
width = 0;
}
);
}
{
glyphname = macroncomb.case;
kernLeft = macron.cap;
kernRight = macron.cap;
layers = (
{
anchors = (
{
name = _top;
pos = (0,994);
},
{
name = top;
pos = (0,1318);
}
);
layerId = "DD6F9F34-BC40-4E8F-B1D3-DF3B42A9710F";
shapes = (
{
closed = 1;
nodes = (
(294,1182,l),
(294,1323,l),
(-294,1323,l),
(-294,1182,l)
);
}
);
width = 0;
},
{
anchors = (
{
name = _top;
pos = (0,994);
},
{
name = top;
pos = (0,1300);
}
);
layerId = "62CA62AF-CD91-478A-AB8B-28A62CC47DA0";
shapes = (
{
closed = 1;
nodes = (
(295,1194,l),
(295,1385,l),
(-292,1385,l),
(-292,1194,l,{
name = hr00;
})
);
}
);
width = 0;
}
);
}
{
glyphname = nine.tf;
layers = (
{
layerId = "DD6F9F34-BC40-4E8F-B1D3-DF3B42A9710F";
shapes = (
{
closed = 1;
nodes = (
(1031,-28,o),
(1180,570,o),
(1180,901,cs),
(1180,1204,o),
(962,1452,o),
(656,1452,cs),
(341,1452,o),
(125,1228,o),
(125,951,cs),
(125,720,o),
(275,489,o),
(602,489,cs),
(774,489,o),
(873,558,o),
(936,624,c),
(875,367,o),
(713,98,o),
(332,64,c),
(333,-28,l)
);
},
{
closed = 1;
nodes = (
(448,607,o),
(341,783,o),
(341,951,cs),
(341,1200,o),
(431,1357,o),
(659,1357,cs),
(891,1357,o),
(970,1141,o),
(970,891,cs),
(970,831,o),
(968,824,o),
(959,753,c),
(892,680,o),
(827,607,o),
(627,607,cs)
);
}
);
userData = {
RMXScaler = {
monoWidth = 1306;
};
};
width = 1306;
},
{
layerId = "62CA62AF-CD91-478A-AB8B-28A62CC47DA0";
shapes = (
{
closed = 1;
nodes = (
(964,-28,o),
(1215,490,o),
(1215,868,cs,{
name = hr00;
}),
(1215,1205,o),
(1060,1479,o),
(665,1479,cs),
(311,1479,o),
(91,1239,o),
(91,948,cs),
(91,685,o),
(235,486,o),
(542,486,cs),
(675,486,o),
(772,529,o),
(848,582,c),
(811,339,o),
(725,146,o),
(337,64,c),
(338,-28,l)
);
},
{
closed = 1;
nodes = (
(514,604,o),
(446,744,o),
(446,978,cs),
(446,1215,o),
(495,1384,o),
(669,1384,cs),
(822,1384,o),
(865,1153,o),
(865,848,cs),
(865,797,o),
(864,743,o),
(860,684,c),
(811,639,o),
(748,604,o),
(668,604,cs)
);
}
);
userData = {
RMXScaler = {
monoWidth = 1306;
};
};
width = 1306;
}
);
userData = {
RMXScaler = {
source = nine;
};
};
}
{
glyphname = oSlash_part.;
layers = (
{
anchors = (
{
name = _center;
pos = (545,497);
}
);
layerId = "DD6F9F34-BC40-4E8F-B1D3-DF3B42A9710F";
shapes = (
{
closed = 1;
nodes = (
(184,-72,l,{
name = hr01;
}),
(182,-87,o),
(195,-106,o),
(217,-120,cs),
(225,-125,o),
(238,-129,o),
(249,-129,cs),
(256,-129,o),
(262,-127,o),
(266,-122,c),
(896,1059,l),
(898,1074,o),
(876,1100,o),
(855,1112,cs),
(848,1116,o),
(840,1118,o),
(833,1118,cs),
(825,1118,o),
(818,1116,o),
(813,1109,c)
);
}
);
width = 1200;
},
{
anchors = (
{
name = _center;
pos = (647,497);
}
);
layerId = "62CA62AF-CD91-478A-AB8B-28A62CC47DA0";
shapes = (
{
closed = 1;
nodes = (
(290,-122,l,{
name = hr01;
}),
(288,-137,o),
(301,-156,o),
(323,-170,cs),
(331,-175,o),
(344,-179,o),
(355,-179,cs),
(362,-179,o),
(368,-177,o),
(372,-172,c),
(1001,1104,l),
(1003,1119,o),
(981,1145,o),
(960,1157,cs),
(953,1161,o),
(945,1163,o),
(938,1163,cs),
(930,1163,o),
(923,1161,o),
(918,1154,c)
);
}
);
width = 1200;
},
{
anchors = (
{
name = _center;
pos = (467,728);
}
);
associatedMasterId = "DD6F9F34-BC40-4E8F-B1D3-DF3B42A9710F";
layerId = "BF6BC6F6-4B2A-4E9B-9E28-8B62B2F12FD9";
name = "Bold Italic";
shapes = (
{
closed = 1;
nodes = (
(180,128,l),
(301,320,l),
(308,351,l),
(760,1081,l),
(807,1119,l),
(937,1326,l),
(755,1326,l),
(644,1148,l),
(639,1113,l),
(197,400,l),
(148,366,l),
(-2,128,l)
);
}
);
width = 1200;
}
);
}
{
glyphname = ogonekcomb.case;
kernLeft = ogonekcomb;
kernRight = ogonekcomb;
layers = (
{
anchors = (
{
name = _ogonek;
pos = (-10,10);
}
);
layerId = "DD6F9F34-BC40-4E8F-B1D3-DF3B42A9710F";
shapes = (
{
closed = 1;
nodes = (
(-31,19,l),
(-235,-36,o),
(-344,-145,o),
(-344,-276,cs),
(-344,-367,o),
(-268,-466,o),
(-111,-466,cs),
(-36,-466,o),
(31,-442,o),
(74,-409,cs),
(91,-396,o),
(98,-378,o),
(98,-360,cs),
(98,-329,o),
(87,-312,o),
(77,-317,cs),
(31,-340,o),
(11,-343,o),
(-25,-343,cs),
(-129,-343,o),
(-163,-282,o),
(-163,-205,cs),
(-163,-116,o),
(-89,-36,o),
(48,30,c),
(26,80,l)
);
}
);
width = 0;
},
{
anchors = (
{
name = _ogonek;
pos = (23,10);
}
);
layerId = "62CA62AF-CD91-478A-AB8B-28A62CC47DA0";
shapes = (
{
closed = 1;
nodes = (
(26,25,l),
(-192,-20,o),
(-364,-160,o),
(-364,-302,cs),
(-364,-411,o),
(-273,-500,o),
(-81,-500,cs),
(1,-500,o),
(93,-474,o),
(140,-438,cs),
(158,-424,o),
(166,-405,o),
(166,-385,cs),
(166,-352,o),
(146,-323,o),
(135,-329,cs),
(88,-355,o),
(66,-356,o),
(28,-356,cs),
(-41,-356,o),
(-121,-302,o),
(-121,-222,cs),
(-121,-120,o),
(-47,-35,o),
(101,37,c),
(76,51,l)
);
}
);
width = 0;
}
);
}
{
glyphname = one.tosf;
layers = (
{
layerId = "DD6F9F34-BC40-4E8F-B1D3-DF3B42A9710F";
shapes = (
{
closed = 1;
nodes = (
(1101,0,ls),
(1134,0,o),
(1151,36,o),
(1151,51,cs),
(1151,82,o),
(1139,88,o),
(1098,88,cs),
(928,88,o),
(804,99,o),
(804,185,cs),
(804,1190,l),
(694,1190,l),
(573,1101,o),
(415,1060,o),
(321,1053,cs),
(280,1050,o),
(268,1016,o),
(268,986,cs),
(268,971,o),
(285,894,o),
(318,894,cs),
(389,894,o),
(513,968,o),
(617,1012,c),
(617,152,ls),
(617,110,o),
(466,88,o),
(299,88,cs),
(261,88,o),
(251,56,o),
(251,36,cs),
(251,21,o),
(268,0,o),
(301,0,cs)
);
}
);
userData = {
RMXScaler = {
keepStroke = 90;
monoWidth = 1280;
useSpacing = 60;
};
};
width = 1306;
},
{
layerId = "62CA62AF-CD91-478A-AB8B-28A62CC47DA0";
shapes = (
{
closed = 1;
nodes = (
(1178,0,ls),
(1212,0,o),
(1229,46,o),
(1229,61,cs),
(1229,91,o),
(1217,95,o),
(1174,98,cs),
(1090,104,o),
(885,107,o),
(885,195,cs),
(885,1190,l),
(706,1190,l),
(564,1115,o),
(327,1038,o),
(235,1034,cs),
(193,1032,o),
(181,986,o),
(181,942,cs),
(181,927,o),
(198,849,o),
(232,849,cs),
(303,849,o),
(475,941,o),
(563,993,c,{
name = "❌";
}),
(563,162,ls),
(563,118,o),
(359,104,o),
(263,98,c),
(224,95,o),
(214,81,o),
(214,61,cs,{
name = hr00;
}),
(214,46,o),
(231,0,o),
(265,0,cs)
);
}
);
userData = {
RMXScaler = {
keepStroke = 80;
monoWidth = 1436;
useSpacing = 60;
};
};
width = 1306;
}
);
userData = {
RMXScaler = {
source = one;
};
};
}
{
glyphname = seven.dnom;
kernLeft = seven.dnom;
kernRight = seven.dnom;
layers = (
{
layerId = "DD6F9F34-BC40-4E8F-B1D3-DF3B42A9710F";
shapes = (
{
closed = 1;
nodes = (
(559,0,l),
(885,933,l),
(850,968,l),
(143,968,l),
(117,665,l),
(117,649,o),
(140,641,o),
(151,641,cs),
(166,641,o),
(184,645,o),
(187,665,cs),
(193,708,o),
(222,815,o),
(310,815,c),
(748,815,l),
(364,0,l)
);
}
);
width = 1024;
},
{
layerId = "62CA62AF-CD91-478A-AB8B-28A62CC47DA0";
shapes = (
{
closed = 1;
nodes = (
(629,-1,l),
(990,913,l),
(942,968,l),
(185,967,l),
(142,628,l),
(142,612,o),
(170,604,o),
(179,604,cs),
(194,604,o),
(216,611,o),
(220,626,cs),
(245,720,o),
(257,764,o),
(360,764,c),
(823,764,l),
(385,0,l,{
name = hr00;
})
);
}
);
width = 1130;
}
);
}
{
glyphname = seven.tf;
layers = (
{
layerId = "DD6F9F34-BC40-4E8F-B1D3-DF3B42A9710F";
shapes = (
{
closed = 1;
nodes = (
(587,0,l),
(1223,1353,l),
(1155,1419,l,{
name = "❌";
}),
(175,1420,l,{
name = "❌";
}),
(132,1017,l),
(132,994,o),
(160,983,o),
(178,983,cs),
(204,983,o),
(233,990,o),
(233,1016,cs),
(233,1055,o),
(318,1259,o),
(466,1259,c),
(1059,1259,l),
(341,1,l)
);
}
);
userData = {
RMXScaler = {
monoWidth = 1306;
};
};
width = 1306;
},
{
layerId = "62CA62AF-CD91-478A-AB8B-28A62CC47DA0";
shapes = (
{
closed = 1;
nodes = (
(661,-1,l),
(1228,1381,l),
(1175,1419,l,{
name = "❌";
}),
(140,1419,l,{
name = "❌";
}),
(100,946,l),
(100,923,o),
(137,912,o),
(154,912,cs),
(181,912,o),
(209,921,o),
(215,946,cs),
(240,1049,o),
(264,1141,o),
(401,1141,c),
(987,1141,l),
(355,0,l,{
name = hr00;
})
);
}
);
userData = {
RMXScaler = {
monoWidth = 1306;
};
};
width = 1306;
}
);
userData = {
RMXScaler = {
source = seven;
};
};
}
{
glyphname = seven.tosf;
layers = (
{
layerId = "DD6F9F34-BC40-4E8F-B1D3-DF3B42A9710F";
shapes = (
{
closed = 1;
nodes = (
(540,-383,l),
(1166,1123,l),
(1104,1190,l),
(181,1191,l),
(141,744,l),
(141,721,o),
(168,710,o),
(185,710,cs),
(209,710,o),
(235,717,o),
(236,742,cs),
(238,784,o),
(327,1023,o),
(464,1023,c),
(998,1023,l),
(333,-382,l)
);
}
);
userData = {
RMXScaler = {
keepStroke = 90;
monoWidth = 1280;
useSpacing = 60;
};
};
width = 1306;
},
{
layerId = "62CA62AF-CD91-478A-AB8B-28A62CC47DA0";
shapes = (
{
closed = 1;
nodes = (
(634,-383,l),
(1274,1153,l),
(1220,1191,l),
(160,1191,l),
(119,717,l),
(119,694,o),
(157,683,o),
(174,683,cs),
(200,683,o),
(229,691,o),
(235,716,cs),
(260,818,o),
(287,912,o),
(428,912,c),
(1033,912,l),
(391,-382,l,{
name = hr00;
})
);
}
);
userData = {
RMXScaler = {
keepStroke = 80;
monoWidth = 1436;
useSpacing = 60;
};
};
width = 1306;
}
);
userData = {
RMXScaler = {
source = seven;
};
};
}
{
glyphname = six.tf;
layers = (
{
layerId = "DD6F9F34-BC40-4E8F-B1D3-DF3B42A9710F";
shapes = (
{
closed = 1;
nodes = (
(993,-29,o),
(1180,205,o),
(1180,482,cs),
(1180,739,o),
(1045,934,o),
(735,934,cs),
(554,934,o),
(433,863,o),
(372,798,c),
(434,1057,o),
(627,1378,o),
(1061,1378,c),
(1060,1470,l),
(380,1470,o),
(125,954,o),
(125,560,cs),
(125,243,o),
(334,-29,o),
(660,-29,cs)
);
},
{
closed = 1;
nodes = (
(408,66,o),
(339,319,o),
(339,472,cs),
(339,532,o),
(340,597,o),
(349,670,c),
(419,746,o),
(534,816,o),
(706,816,cs),
(872,816,o),
(964,686,o),
(964,482,cs),
(964,233,o),
(897,66,o),
(655,66,cs)
);
}
);
userData = {
RMXScaler = {
monoWidth = 1306;
};
};
width = 1306;
},
{
layerId = "62CA62AF-CD91-478A-AB8B-28A62CC47DA0";
shapes = (
{
closed = 1;
nodes = (
(996,-29,o),
(1213,211,o),
(1213,502,cs),
(1213,765,o),
(1071,964,o),
(764,964,cs),
(629,964,o),
(529,920,o),
(456,868,c),
(493,1111,o),
(612,1329,o),
(969,1398,c),
(968,1490,l),
(341,1447,o),
(91,959,o),
(91,582,cs,{
name = hr00;
}),
(91,245,o),
(294,-29,o),
(642,-29,cs)
);
},
{
closed = 1;
nodes = (
(484,66,o),
(438,299,o),
(438,602,cs),
(438,647,o),
(439,704,o),
(444,766,c),
(492,811,o),
(556,846,o),
(635,846,cs),
(789,846,o),
(862,707,o),
(862,472,cs),
(862,234,o),
(811,66,o),
(638,66,cs)
);
}
);
userData = {
RMXScaler = {
monoWidth = 1306;
};
};
width = 1306;
}
);
userData = {
RMXScaler = {
source = six;
};
};
}
{
glyphname = three.tosf;
layers = (
{
layerId = "DD6F9F34-BC40-4E8F-B1D3-DF3B42A9710F";
shapes = (
{
closed = 1;
nodes = (
(930,-394,o),
(1154,-211,o),
(1154,63,cs),
(1154,363,o),
(916,454,o),
(731,456,c),
(862,486,o),
(1088,634,o),
(1088,841,cs),
(1088,1069,o),
(903,1206,o),
(638,1206,cs),
(418,1206,o),
(195,1046,o),
(195,889,cs),
(195,796,o),
(292,775,o),
(330,775,cs),
(374,775,o),
(398,809,o),
(398,850,cs),
(398,853,o),
(413,951,o),
(424,1003,c),
(451,1044,o),
(478,1110,o),
(637,1110,cs),
(846,1110,o),
(877,923,o),
(877,822,cs),
(877,607,o),
(669,506,o),
(564,506,cs),
(496,506,l),
(482,506,o),
(478,484,o),
(478,448,cs),
(478,414,o),
(482,391,o),
(496,391,c),
(561,391,ls),
(662,391,o),
(964,325,o),
(964,46,cs),
(964,-179,o),
(819,-299,o),
(611,-299,cs),
(448,-299,o),
(378,-226,o),
(346,-166,c),
(396,18,l),
(396,64,o),
(335,90,o),
(298,90,cs),
(230,90,o),
(161,22,o),
(161,-68,cs),
(161,-303,o),
(447,-394,o),
(629,-394,cs)
);
}
);
userData = {
RMXScaler = {
keepStroke = 90;
monoWidth = 1280;
useSpacing = 60;
};
};
width = 1306;
},
{
layerId = "62CA62AF-CD91-478A-AB8B-28A62CC47DA0";
shapes = (
{
closed = 1;
nodes = (
(1018,-392,o),
(1256,-181,o),
(1256,73,cs),
(1256,307,o),
(1053,454,o),
(788,456,c),
(991,486,o),
(1172,634,o),
(1172,841,cs,{
name = hr02;
}),
(1172,1059,o),
(970,1206,o),
(635,1206,cs),
(349,1206,o),
(96,1077,o),
(96,898,cs),
(96,813,o),
(178,756,o),
(249,756,cs),
(296,756,o),
(336,778,o),
(355,834,cs),
(371,880,o),
(385,941,o),
(404,1003,c),
(445,1085,o),
(495,1109,o),
(593,1109,cs),
(795,1109,o),
(839,923,o),
(839,822,cs),
(839,607,o),
(666,505,o),
(521,505,cs),
(443,505,ls),
(431,505,o),
(421,502,o),
(421,449,cs),
(421,395,o),
(432,393,o),
(443,393,cs),
(538,393,ls),
(717,393,o),
(897,312,o),
(897,46,cs),
(897,-155,o),
(781,-297,o),
(568,-297,cs),
(377,-297,o),
(308,-197,o),
(301,-197,c),
(366,46,l),
(361,79,o),
(314,117,o),
(231,117,cs),
(166,117,o),
(62,49,o),
(62,-78,cs,{
name = hr01;
}),
(62,-277,o),
(322,-392,o),
(580,-392,cs)
);
}
);
userData = {
RMXScaler = {
keepStroke = 80;
monoWidth = 1436;
useSpacing = 60;
};
};
width = 1306;
}
);
userData = {
RMXScaler = {
source = three;
};
};
}
{
glyphname = two.tf;
layers = (
{
layerId = "DD6F9F34-BC40-4E8F-B1D3-DF3B42A9710F";
shapes = (
{
closed = 1;
nodes = (
(1136,0,l),
(1147,165,l),
(482,165,l),
(889,398,o),
(1123,733,o),
(1123,1047,cs),
(1123,1314,o),
(917,1446,o),
(646,1446,cs),
(415,1446,o),
(210,1299,o),
(172,1182,cs),
(163,1154,o),
(160,1134,o),
(160,1112,cs),
(160,1017,o),
(262,995,o),
(296,995,cs),
(335,995,o),
(356,1031,o),
(365,1068,cs),
(401,1223,ls),
(411,1268,o),
(482,1350,o),
(650,1350,cs),
(865,1350,o),
(916,1204,o),
(916,1046,cs),
(916,703,o),
(656,338,o),
(199,85,c),
(188,70,o),
(181,53,o),
(177,34,c),
(177,0,l)
);
}
);
userData = {
RMXScaler = {
monoWidth = 1306;
};
};
width = 1306;
},
{
layerId = "62CA62AF-CD91-478A-AB8B-28A62CC47DA0";
shapes = (
{
closed = 1;
nodes = (
(1176,0,l),
(1186,249,l),
(514,249,l),
(810,393,o),
(1159,762,o),
(1159,1038,cs),
(1159,1287,o),
(980,1446,o),
(631,1446,cs),
(376,1446,o),
(204,1333,o),
(145,1213,cs),
(125,1172,o),
(116,1138,o),
(116,1107,cs),
(116,1012,o),
(203,971,o),
(277,971,cs),
(347,971,o),
(362,1020,o),
(375,1063,c),
(442,1243,l),
(457,1287,o),
(494,1350,o),
(615,1350,cs),
(776,1350,o),
(811,1183,o),
(811,1037,cs),
(811,702,o),
(443,317,o),
(145,88,cs),
(130,76,o),
(121,52,o),
(121,32,cs),
(121,0,l,{
name = hr00;
})
);
}
);
userData = {
RMXScaler = {
monoWidth = 1306;
};
};
width = 1306;
}
);
userData = {
RMXScaler = {
source = two;
};
};
}
{
glyphname = two.tosf;
layers = (
{
layerId = "DD6F9F34-BC40-4E8F-B1D3-DF3B42A9710F";
shapes = (
{
closed = 1;
nodes = (
(1118,0,l),
(1128,165,l),
(497,165,l),
(743,325,o),
(1088,599,o),
(1088,852,cs),
(1088,1080,o),
(908,1206,o),
(651,1206,cs),
(413,1206,o),
(236,1082,o),
(197,960,cs),
(189,935,o),
(185,914,o),
(185,895,cs),
(185,797,o),
(281,775,o),
(316,775,cs),
(355,775,o),
(378,809,o),
(384,847,cs),
(391,894,o),
(396,939,o),
(408,1003,c),
(439,1046,o),
(450,1110,o),
(635,1110,cs),
(826,1110,o),
(880,951,o),
(880,851,cs),
(880,588,o),
(564,295,o),
(222,85,c),
(210,70,o),
(203,51,o),
(200,34,c),
(200,0,l)
);
}
);
userData = {
RMXScaler = {
keepStroke = 90;
monoWidth = 1280;
useSpacing = 60;
};
};
width = 1306;
},
{
layerId = "62CA62AF-CD91-478A-AB8B-28A62CC47DA0";
shapes = (
{
closed = 1;
nodes = (
(1186,0,l),
(1197,220,l),
(474,220,l),
(770,364,o),
(1165,576,o),
(1165,852,cs),
(1165,1080,o),
(978,1206,o),
(625,1206,cs),
(366,1206,o),
(183,1094,o),
(126,973,cs),
(107,934,o),
(99,901,o),
(99,872,cs),
(99,774,o),
(190,731,o),
(261,731,cs),
(330,731,o),
(347,782,o),
(359,823,c),
(379,883,o),
(400,943,o),
(422,1003,c),
(440,1047,o),
(475,1110,o),
(609,1110,cs),
(785,1110,o),
(825,952,o),
(825,851,cs),
(825,517,o),
(451,374,o),
(141,137,cs),
(126,125,o),
(119,102,o),
(116,81,cs),
(105,0,l,{
name = hr00;
})
);
}
);
userData = {
RMXScaler = {
keepStroke = 80;
monoWidth = 1436;
useSpacing = 60;
};
};
width = 1306;
}
);
userData = {
RMXScaler = {
source = two;
};
};
}
{
glyphname = zero.tosf;
layers = (
{
anchors = (
{
name = center;
pos = (640,589);
}
);
layerId = "DD6F9F34-BC40-4E8F-B1D3-DF3B42A9710F";
shapes = (
{
closed = 1;
nodes = (
(947,-29,o),
(1130,206,o),
(1130,582,cs),
(1130,966,o),
(954,1206,o),
(646,1206,cs),
(337,1206,o),
(151,966,o),
(151,582,cs),
(151,206,o),
(330,-29,o),
(639,-29,cs)
);
},
{
closed = 1;
nodes = (
(421,65,o),
(358,226,o),
(359,545,cs),
(359,880,o),
(398,1112,o),
(644,1112,cs),
(850,1112,o),
(920,956,o),
(920,625,cs),
(920,293,o),
(883,65,o),
(635,65,cs)
);
}
);
userData = {
RMXScaler = {
keepStroke = 90;
monoWidth = 1280;
useSpacing = 60;
};
};
width = 1306;
},
{
anchors = (
{
name = center;
pos = (652,587);
}
);
layerId = "62CA62AF-CD91-478A-AB8B-28A62CC47DA0";
shapes = (
{
closed = 1;
nodes = (
(1039,-29,o),
(1238,207,o),
(1238,582,cs),
(1238,965,o),
(1047,1206,o),
(658,1206,cs),
(274,1206,o),
(68,965,o),
(68,582,cs,{
name = hr00;
}),
(68,207,o),
(267,-29,o),
(651,-29,cs)
);
},
{
closed = 1;
nodes = (
(445,67,o),
(403,233,o),
(403,584,cs),
(403,935,o),
(440,1110,o),
(648,1110,cs),
(858,1110,o),
(901,937,o),
(901,581,cs),
(901,236,o),
(863,67,o),
(656,67,cs)
);
}
);
userData = {
RMXScaler = {
keepStroke = 80;
monoWidth = 1436;
useSpacing = 60;
};
};
width = 1306;
}
);
userData = {
RMXScaler = {
source = zero;
};
};
}
